%TF.GenerationSoftware,KiCad,Pcbnew,7.0.8*%
%TF.CreationDate,2023-12-01T23:48:12-08:00*%
%TF.ProjectId,COMiX-Edge-Adapter-Slim,434f4d69-582d-4456-9467-652d41646170,rev?*%
%TF.SameCoordinates,Original*%
%TF.FileFunction,Drillmap*%
%TF.FilePolarity,Positive*%
%FSLAX45Y45*%
G04 Gerber Fmt 4.5, Leading zero omitted, Abs format (unit mm)*
G04 Created by KiCad (PCBNEW 7.0.8) date 2023-12-01 23:48:12*
%MOMM*%
%LPD*%
G01*
G04 APERTURE LIST*
%ADD10C,0.100000*%
%ADD11C,0.200000*%
%ADD12C,0.040000*%
%ADD13C,0.070000*%
%ADD14C,0.080000*%
G04 APERTURE END LIST*
D10*
X22679660Y-12536170D02*
X22679660Y-11014710D01*
X22598380Y-11014710D02*
X22679660Y-11014710D01*
X22598380Y-12536170D02*
X22679660Y-12536170D01*
X22598380Y-11014710D02*
X22598380Y-12536170D01*
X22860000Y-11014710D02*
X22941280Y-11014710D01*
X22941280Y-12536170D02*
X22941280Y-11014710D01*
X22860000Y-12536170D02*
X22941280Y-12536170D01*
X22860000Y-11014710D02*
X22860000Y-12536170D01*
X23327649Y-14585180D02*
X23327360Y-8978900D01*
X20236180Y-14686280D02*
X23227649Y-14685180D01*
X23227649Y-14685179D02*
G75*
G03*
X23327649Y-14585180I1J99999D01*
G01*
X23327360Y-8978900D02*
G75*
G03*
X23227360Y-8878900I-100000J0D01*
G01*
X20236180Y-8879840D02*
X23227360Y-8878900D01*
X20236180Y-8879840D02*
X20236180Y-14686280D01*
D11*
D12*
X21313460Y-12674920D02*
X21353460Y-12714920D01*
X21353460Y-12674920D02*
X21313460Y-12714920D01*
D13*
X21670720Y-11551920D02*
G75*
G03*
X21670720Y-11551920I-35000J0D01*
G01*
X21670720Y-12313920D02*
G75*
G03*
X21670720Y-12313920I-35000J0D01*
G01*
X21919640Y-11554460D02*
G75*
G03*
X21919640Y-11554460I-35000J0D01*
G01*
X21919640Y-12316460D02*
G75*
G03*
X21919640Y-12316460I-35000J0D01*
G01*
D14*
X21633180Y-10267320D02*
X21633180Y-10347320D01*
X21593180Y-10307320D02*
X21673180Y-10307320D01*
X21633180Y-11029320D02*
X21633180Y-11109320D01*
X21593180Y-11069320D02*
X21673180Y-11069320D01*
X21887180Y-10267320D02*
X21887180Y-10347320D01*
X21847180Y-10307320D02*
X21927180Y-10307320D01*
X21887180Y-11029320D02*
X21887180Y-11109320D01*
X21847180Y-11069320D02*
X21927180Y-11069320D01*
D10*
X21665356Y-9935356D02*
X21665356Y-9864644D01*
X21594644Y-9864644D01*
X21594644Y-9935356D01*
X21665356Y-9935356D01*
X21919356Y-9935356D02*
X21919356Y-9864644D01*
X21848644Y-9864644D01*
X21848644Y-9935356D01*
X21919356Y-9935356D01*
X22173356Y-9935356D02*
X22173356Y-9864644D01*
X22102644Y-9864644D01*
X22102644Y-9935356D01*
X22173356Y-9935356D01*
X22427356Y-9935356D02*
X22427356Y-9864644D01*
X22356644Y-9864644D01*
X22356644Y-9935356D01*
X22427356Y-9935356D01*
X22681356Y-9935356D02*
X22681356Y-9864644D01*
X22610644Y-9864644D01*
X22610644Y-9935356D01*
X22681356Y-9935356D01*
X22935356Y-9935356D02*
X22935356Y-9864644D01*
X22864644Y-9864644D01*
X22864644Y-9935356D01*
X22935356Y-9935356D01*
D11*
X20491957Y-15002764D02*
X20491957Y-14802764D01*
X20491957Y-14802764D02*
X20539576Y-14802764D01*
X20539576Y-14802764D02*
X20568147Y-14812288D01*
X20568147Y-14812288D02*
X20587195Y-14831335D01*
X20587195Y-14831335D02*
X20596719Y-14850383D01*
X20596719Y-14850383D02*
X20606243Y-14888478D01*
X20606243Y-14888478D02*
X20606243Y-14917049D01*
X20606243Y-14917049D02*
X20596719Y-14955145D01*
X20596719Y-14955145D02*
X20587195Y-14974192D01*
X20587195Y-14974192D02*
X20568147Y-14993240D01*
X20568147Y-14993240D02*
X20539576Y-15002764D01*
X20539576Y-15002764D02*
X20491957Y-15002764D01*
X20691957Y-15002764D02*
X20691957Y-14869430D01*
X20691957Y-14907526D02*
X20701481Y-14888478D01*
X20701481Y-14888478D02*
X20711004Y-14878954D01*
X20711004Y-14878954D02*
X20730052Y-14869430D01*
X20730052Y-14869430D02*
X20749100Y-14869430D01*
X20815766Y-15002764D02*
X20815766Y-14869430D01*
X20815766Y-14802764D02*
X20806243Y-14812288D01*
X20806243Y-14812288D02*
X20815766Y-14821811D01*
X20815766Y-14821811D02*
X20825290Y-14812288D01*
X20825290Y-14812288D02*
X20815766Y-14802764D01*
X20815766Y-14802764D02*
X20815766Y-14821811D01*
X20939576Y-15002764D02*
X20920528Y-14993240D01*
X20920528Y-14993240D02*
X20911004Y-14974192D01*
X20911004Y-14974192D02*
X20911004Y-14802764D01*
X21044338Y-15002764D02*
X21025290Y-14993240D01*
X21025290Y-14993240D02*
X21015766Y-14974192D01*
X21015766Y-14974192D02*
X21015766Y-14802764D01*
X21272909Y-15002764D02*
X21272909Y-14802764D01*
X21272909Y-14802764D02*
X21339576Y-14945621D01*
X21339576Y-14945621D02*
X21406243Y-14802764D01*
X21406243Y-14802764D02*
X21406243Y-15002764D01*
X21587195Y-15002764D02*
X21587195Y-14898002D01*
X21587195Y-14898002D02*
X21577671Y-14878954D01*
X21577671Y-14878954D02*
X21558624Y-14869430D01*
X21558624Y-14869430D02*
X21520528Y-14869430D01*
X21520528Y-14869430D02*
X21501481Y-14878954D01*
X21587195Y-14993240D02*
X21568147Y-15002764D01*
X21568147Y-15002764D02*
X21520528Y-15002764D01*
X21520528Y-15002764D02*
X21501481Y-14993240D01*
X21501481Y-14993240D02*
X21491957Y-14974192D01*
X21491957Y-14974192D02*
X21491957Y-14955145D01*
X21491957Y-14955145D02*
X21501481Y-14936097D01*
X21501481Y-14936097D02*
X21520528Y-14926573D01*
X21520528Y-14926573D02*
X21568147Y-14926573D01*
X21568147Y-14926573D02*
X21587195Y-14917049D01*
X21682433Y-14869430D02*
X21682433Y-15069430D01*
X21682433Y-14878954D02*
X21701481Y-14869430D01*
X21701481Y-14869430D02*
X21739576Y-14869430D01*
X21739576Y-14869430D02*
X21758624Y-14878954D01*
X21758624Y-14878954D02*
X21768147Y-14888478D01*
X21768147Y-14888478D02*
X21777671Y-14907526D01*
X21777671Y-14907526D02*
X21777671Y-14964668D01*
X21777671Y-14964668D02*
X21768147Y-14983716D01*
X21768147Y-14983716D02*
X21758624Y-14993240D01*
X21758624Y-14993240D02*
X21739576Y-15002764D01*
X21739576Y-15002764D02*
X21701481Y-15002764D01*
X21701481Y-15002764D02*
X21682433Y-14993240D01*
X21863385Y-14983716D02*
X21872909Y-14993240D01*
X21872909Y-14993240D02*
X21863385Y-15002764D01*
X21863385Y-15002764D02*
X21853862Y-14993240D01*
X21853862Y-14993240D02*
X21863385Y-14983716D01*
X21863385Y-14983716D02*
X21863385Y-15002764D01*
X21863385Y-14878954D02*
X21872909Y-14888478D01*
X21872909Y-14888478D02*
X21863385Y-14898002D01*
X21863385Y-14898002D02*
X21853862Y-14888478D01*
X21853862Y-14888478D02*
X21863385Y-14878954D01*
X21863385Y-14878954D02*
X21863385Y-14898002D01*
D12*
X20191180Y-15311280D02*
X20231180Y-15351280D01*
X20231180Y-15311280D02*
X20191180Y-15351280D01*
D11*
X20530052Y-15222764D02*
X20549100Y-15222764D01*
X20549100Y-15222764D02*
X20568147Y-15232288D01*
X20568147Y-15232288D02*
X20577671Y-15241811D01*
X20577671Y-15241811D02*
X20587195Y-15260859D01*
X20587195Y-15260859D02*
X20596719Y-15298954D01*
X20596719Y-15298954D02*
X20596719Y-15346573D01*
X20596719Y-15346573D02*
X20587195Y-15384668D01*
X20587195Y-15384668D02*
X20577671Y-15403716D01*
X20577671Y-15403716D02*
X20568147Y-15413240D01*
X20568147Y-15413240D02*
X20549100Y-15422764D01*
X20549100Y-15422764D02*
X20530052Y-15422764D01*
X20530052Y-15422764D02*
X20511004Y-15413240D01*
X20511004Y-15413240D02*
X20501481Y-15403716D01*
X20501481Y-15403716D02*
X20491957Y-15384668D01*
X20491957Y-15384668D02*
X20482433Y-15346573D01*
X20482433Y-15346573D02*
X20482433Y-15298954D01*
X20482433Y-15298954D02*
X20491957Y-15260859D01*
X20491957Y-15260859D02*
X20501481Y-15241811D01*
X20501481Y-15241811D02*
X20511004Y-15232288D01*
X20511004Y-15232288D02*
X20530052Y-15222764D01*
X20682433Y-15403716D02*
X20691957Y-15413240D01*
X20691957Y-15413240D02*
X20682433Y-15422764D01*
X20682433Y-15422764D02*
X20672909Y-15413240D01*
X20672909Y-15413240D02*
X20682433Y-15403716D01*
X20682433Y-15403716D02*
X20682433Y-15422764D01*
X20863385Y-15289430D02*
X20863385Y-15422764D01*
X20815766Y-15213240D02*
X20768147Y-15356097D01*
X20768147Y-15356097D02*
X20891957Y-15356097D01*
X21006243Y-15222764D02*
X21025290Y-15222764D01*
X21025290Y-15222764D02*
X21044338Y-15232288D01*
X21044338Y-15232288D02*
X21053862Y-15241811D01*
X21053862Y-15241811D02*
X21063385Y-15260859D01*
X21063385Y-15260859D02*
X21072909Y-15298954D01*
X21072909Y-15298954D02*
X21072909Y-15346573D01*
X21072909Y-15346573D02*
X21063385Y-15384668D01*
X21063385Y-15384668D02*
X21053862Y-15403716D01*
X21053862Y-15403716D02*
X21044338Y-15413240D01*
X21044338Y-15413240D02*
X21025290Y-15422764D01*
X21025290Y-15422764D02*
X21006243Y-15422764D01*
X21006243Y-15422764D02*
X20987195Y-15413240D01*
X20987195Y-15413240D02*
X20977671Y-15403716D01*
X20977671Y-15403716D02*
X20968147Y-15384668D01*
X20968147Y-15384668D02*
X20958624Y-15346573D01*
X20958624Y-15346573D02*
X20958624Y-15298954D01*
X20958624Y-15298954D02*
X20968147Y-15260859D01*
X20968147Y-15260859D02*
X20977671Y-15241811D01*
X20977671Y-15241811D02*
X20987195Y-15232288D01*
X20987195Y-15232288D02*
X21006243Y-15222764D01*
X21196719Y-15222764D02*
X21215766Y-15222764D01*
X21215766Y-15222764D02*
X21234814Y-15232288D01*
X21234814Y-15232288D02*
X21244338Y-15241811D01*
X21244338Y-15241811D02*
X21253862Y-15260859D01*
X21253862Y-15260859D02*
X21263385Y-15298954D01*
X21263385Y-15298954D02*
X21263385Y-15346573D01*
X21263385Y-15346573D02*
X21253862Y-15384668D01*
X21253862Y-15384668D02*
X21244338Y-15403716D01*
X21244338Y-15403716D02*
X21234814Y-15413240D01*
X21234814Y-15413240D02*
X21215766Y-15422764D01*
X21215766Y-15422764D02*
X21196719Y-15422764D01*
X21196719Y-15422764D02*
X21177671Y-15413240D01*
X21177671Y-15413240D02*
X21168147Y-15403716D01*
X21168147Y-15403716D02*
X21158624Y-15384668D01*
X21158624Y-15384668D02*
X21149100Y-15346573D01*
X21149100Y-15346573D02*
X21149100Y-15298954D01*
X21149100Y-15298954D02*
X21158624Y-15260859D01*
X21158624Y-15260859D02*
X21168147Y-15241811D01*
X21168147Y-15241811D02*
X21177671Y-15232288D01*
X21177671Y-15232288D02*
X21196719Y-15222764D01*
X21349100Y-15422764D02*
X21349100Y-15289430D01*
X21349100Y-15308478D02*
X21358624Y-15298954D01*
X21358624Y-15298954D02*
X21377671Y-15289430D01*
X21377671Y-15289430D02*
X21406243Y-15289430D01*
X21406243Y-15289430D02*
X21425290Y-15298954D01*
X21425290Y-15298954D02*
X21434814Y-15318002D01*
X21434814Y-15318002D02*
X21434814Y-15422764D01*
X21434814Y-15318002D02*
X21444338Y-15298954D01*
X21444338Y-15298954D02*
X21463385Y-15289430D01*
X21463385Y-15289430D02*
X21491957Y-15289430D01*
X21491957Y-15289430D02*
X21511005Y-15298954D01*
X21511005Y-15298954D02*
X21520528Y-15318002D01*
X21520528Y-15318002D02*
X21520528Y-15422764D01*
X21615766Y-15422764D02*
X21615766Y-15289430D01*
X21615766Y-15308478D02*
X21625290Y-15298954D01*
X21625290Y-15298954D02*
X21644338Y-15289430D01*
X21644338Y-15289430D02*
X21672909Y-15289430D01*
X21672909Y-15289430D02*
X21691957Y-15298954D01*
X21691957Y-15298954D02*
X21701481Y-15318002D01*
X21701481Y-15318002D02*
X21701481Y-15422764D01*
X21701481Y-15318002D02*
X21711005Y-15298954D01*
X21711005Y-15298954D02*
X21730052Y-15289430D01*
X21730052Y-15289430D02*
X21758624Y-15289430D01*
X21758624Y-15289430D02*
X21777671Y-15298954D01*
X21777671Y-15298954D02*
X21787195Y-15318002D01*
X21787195Y-15318002D02*
X21787195Y-15422764D01*
X22177671Y-15213240D02*
X22006243Y-15470383D01*
X22434814Y-15222764D02*
X22453862Y-15222764D01*
X22453862Y-15222764D02*
X22472909Y-15232288D01*
X22472909Y-15232288D02*
X22482433Y-15241811D01*
X22482433Y-15241811D02*
X22491957Y-15260859D01*
X22491957Y-15260859D02*
X22501481Y-15298954D01*
X22501481Y-15298954D02*
X22501481Y-15346573D01*
X22501481Y-15346573D02*
X22491957Y-15384668D01*
X22491957Y-15384668D02*
X22482433Y-15403716D01*
X22482433Y-15403716D02*
X22472909Y-15413240D01*
X22472909Y-15413240D02*
X22453862Y-15422764D01*
X22453862Y-15422764D02*
X22434814Y-15422764D01*
X22434814Y-15422764D02*
X22415766Y-15413240D01*
X22415766Y-15413240D02*
X22406243Y-15403716D01*
X22406243Y-15403716D02*
X22396719Y-15384668D01*
X22396719Y-15384668D02*
X22387195Y-15346573D01*
X22387195Y-15346573D02*
X22387195Y-15298954D01*
X22387195Y-15298954D02*
X22396719Y-15260859D01*
X22396719Y-15260859D02*
X22406243Y-15241811D01*
X22406243Y-15241811D02*
X22415766Y-15232288D01*
X22415766Y-15232288D02*
X22434814Y-15222764D01*
X22587195Y-15403716D02*
X22596719Y-15413240D01*
X22596719Y-15413240D02*
X22587195Y-15422764D01*
X22587195Y-15422764D02*
X22577671Y-15413240D01*
X22577671Y-15413240D02*
X22587195Y-15403716D01*
X22587195Y-15403716D02*
X22587195Y-15422764D01*
X22720528Y-15222764D02*
X22739576Y-15222764D01*
X22739576Y-15222764D02*
X22758624Y-15232288D01*
X22758624Y-15232288D02*
X22768147Y-15241811D01*
X22768147Y-15241811D02*
X22777671Y-15260859D01*
X22777671Y-15260859D02*
X22787195Y-15298954D01*
X22787195Y-15298954D02*
X22787195Y-15346573D01*
X22787195Y-15346573D02*
X22777671Y-15384668D01*
X22777671Y-15384668D02*
X22768147Y-15403716D01*
X22768147Y-15403716D02*
X22758624Y-15413240D01*
X22758624Y-15413240D02*
X22739576Y-15422764D01*
X22739576Y-15422764D02*
X22720528Y-15422764D01*
X22720528Y-15422764D02*
X22701481Y-15413240D01*
X22701481Y-15413240D02*
X22691957Y-15403716D01*
X22691957Y-15403716D02*
X22682433Y-15384668D01*
X22682433Y-15384668D02*
X22672909Y-15346573D01*
X22672909Y-15346573D02*
X22672909Y-15298954D01*
X22672909Y-15298954D02*
X22682433Y-15260859D01*
X22682433Y-15260859D02*
X22691957Y-15241811D01*
X22691957Y-15241811D02*
X22701481Y-15232288D01*
X22701481Y-15232288D02*
X22720528Y-15222764D01*
X22977671Y-15422764D02*
X22863386Y-15422764D01*
X22920528Y-15422764D02*
X22920528Y-15222764D01*
X22920528Y-15222764D02*
X22901481Y-15251335D01*
X22901481Y-15251335D02*
X22882433Y-15270383D01*
X22882433Y-15270383D02*
X22863386Y-15279907D01*
X23158624Y-15222764D02*
X23063386Y-15222764D01*
X23063386Y-15222764D02*
X23053862Y-15318002D01*
X23053862Y-15318002D02*
X23063386Y-15308478D01*
X23063386Y-15308478D02*
X23082433Y-15298954D01*
X23082433Y-15298954D02*
X23130052Y-15298954D01*
X23130052Y-15298954D02*
X23149100Y-15308478D01*
X23149100Y-15308478D02*
X23158624Y-15318002D01*
X23158624Y-15318002D02*
X23168147Y-15337049D01*
X23168147Y-15337049D02*
X23168147Y-15384668D01*
X23168147Y-15384668D02*
X23158624Y-15403716D01*
X23158624Y-15403716D02*
X23149100Y-15413240D01*
X23149100Y-15413240D02*
X23130052Y-15422764D01*
X23130052Y-15422764D02*
X23082433Y-15422764D01*
X23082433Y-15422764D02*
X23063386Y-15413240D01*
X23063386Y-15413240D02*
X23053862Y-15403716D01*
X23234814Y-15222764D02*
X23368147Y-15222764D01*
X23368147Y-15222764D02*
X23282433Y-15422764D01*
X23434814Y-15222764D02*
X23434814Y-15260859D01*
X23511005Y-15222764D02*
X23511005Y-15260859D01*
X23806243Y-15498954D02*
X23796719Y-15489430D01*
X23796719Y-15489430D02*
X23777671Y-15460859D01*
X23777671Y-15460859D02*
X23768148Y-15441811D01*
X23768148Y-15441811D02*
X23758624Y-15413240D01*
X23758624Y-15413240D02*
X23749100Y-15365621D01*
X23749100Y-15365621D02*
X23749100Y-15327526D01*
X23749100Y-15327526D02*
X23758624Y-15279907D01*
X23758624Y-15279907D02*
X23768148Y-15251335D01*
X23768148Y-15251335D02*
X23777671Y-15232288D01*
X23777671Y-15232288D02*
X23796719Y-15203716D01*
X23796719Y-15203716D02*
X23806243Y-15194192D01*
X23987195Y-15422764D02*
X23872909Y-15422764D01*
X23930052Y-15422764D02*
X23930052Y-15222764D01*
X23930052Y-15222764D02*
X23911005Y-15251335D01*
X23911005Y-15251335D02*
X23891957Y-15270383D01*
X23891957Y-15270383D02*
X23872909Y-15279907D01*
X24225290Y-15422764D02*
X24225290Y-15222764D01*
X24311005Y-15422764D02*
X24311005Y-15318002D01*
X24311005Y-15318002D02*
X24301481Y-15298954D01*
X24301481Y-15298954D02*
X24282433Y-15289430D01*
X24282433Y-15289430D02*
X24253862Y-15289430D01*
X24253862Y-15289430D02*
X24234814Y-15298954D01*
X24234814Y-15298954D02*
X24225290Y-15308478D01*
X24434814Y-15422764D02*
X24415767Y-15413240D01*
X24415767Y-15413240D02*
X24406243Y-15403716D01*
X24406243Y-15403716D02*
X24396719Y-15384668D01*
X24396719Y-15384668D02*
X24396719Y-15327526D01*
X24396719Y-15327526D02*
X24406243Y-15308478D01*
X24406243Y-15308478D02*
X24415767Y-15298954D01*
X24415767Y-15298954D02*
X24434814Y-15289430D01*
X24434814Y-15289430D02*
X24463386Y-15289430D01*
X24463386Y-15289430D02*
X24482433Y-15298954D01*
X24482433Y-15298954D02*
X24491957Y-15308478D01*
X24491957Y-15308478D02*
X24501481Y-15327526D01*
X24501481Y-15327526D02*
X24501481Y-15384668D01*
X24501481Y-15384668D02*
X24491957Y-15403716D01*
X24491957Y-15403716D02*
X24482433Y-15413240D01*
X24482433Y-15413240D02*
X24463386Y-15422764D01*
X24463386Y-15422764D02*
X24434814Y-15422764D01*
X24615767Y-15422764D02*
X24596719Y-15413240D01*
X24596719Y-15413240D02*
X24587195Y-15394192D01*
X24587195Y-15394192D02*
X24587195Y-15222764D01*
X24768148Y-15413240D02*
X24749100Y-15422764D01*
X24749100Y-15422764D02*
X24711005Y-15422764D01*
X24711005Y-15422764D02*
X24691957Y-15413240D01*
X24691957Y-15413240D02*
X24682433Y-15394192D01*
X24682433Y-15394192D02*
X24682433Y-15318002D01*
X24682433Y-15318002D02*
X24691957Y-15298954D01*
X24691957Y-15298954D02*
X24711005Y-15289430D01*
X24711005Y-15289430D02*
X24749100Y-15289430D01*
X24749100Y-15289430D02*
X24768148Y-15298954D01*
X24768148Y-15298954D02*
X24777671Y-15318002D01*
X24777671Y-15318002D02*
X24777671Y-15337049D01*
X24777671Y-15337049D02*
X24682433Y-15356097D01*
X24844338Y-15498954D02*
X24853862Y-15489430D01*
X24853862Y-15489430D02*
X24872910Y-15460859D01*
X24872910Y-15460859D02*
X24882433Y-15441811D01*
X24882433Y-15441811D02*
X24891957Y-15413240D01*
X24891957Y-15413240D02*
X24901481Y-15365621D01*
X24901481Y-15365621D02*
X24901481Y-15327526D01*
X24901481Y-15327526D02*
X24891957Y-15279907D01*
X24891957Y-15279907D02*
X24882433Y-15251335D01*
X24882433Y-15251335D02*
X24872910Y-15232288D01*
X24872910Y-15232288D02*
X24853862Y-15203716D01*
X24853862Y-15203716D02*
X24844338Y-15194192D01*
D13*
X20231180Y-15595280D02*
G75*
G03*
X20231180Y-15595280I-35000J0D01*
G01*
D11*
X20530052Y-15486764D02*
X20549100Y-15486764D01*
X20549100Y-15486764D02*
X20568147Y-15496288D01*
X20568147Y-15496288D02*
X20577671Y-15505811D01*
X20577671Y-15505811D02*
X20587195Y-15524859D01*
X20587195Y-15524859D02*
X20596719Y-15562954D01*
X20596719Y-15562954D02*
X20596719Y-15610573D01*
X20596719Y-15610573D02*
X20587195Y-15648668D01*
X20587195Y-15648668D02*
X20577671Y-15667716D01*
X20577671Y-15667716D02*
X20568147Y-15677240D01*
X20568147Y-15677240D02*
X20549100Y-15686764D01*
X20549100Y-15686764D02*
X20530052Y-15686764D01*
X20530052Y-15686764D02*
X20511004Y-15677240D01*
X20511004Y-15677240D02*
X20501481Y-15667716D01*
X20501481Y-15667716D02*
X20491957Y-15648668D01*
X20491957Y-15648668D02*
X20482433Y-15610573D01*
X20482433Y-15610573D02*
X20482433Y-15562954D01*
X20482433Y-15562954D02*
X20491957Y-15524859D01*
X20491957Y-15524859D02*
X20501481Y-15505811D01*
X20501481Y-15505811D02*
X20511004Y-15496288D01*
X20511004Y-15496288D02*
X20530052Y-15486764D01*
X20682433Y-15667716D02*
X20691957Y-15677240D01*
X20691957Y-15677240D02*
X20682433Y-15686764D01*
X20682433Y-15686764D02*
X20672909Y-15677240D01*
X20672909Y-15677240D02*
X20682433Y-15667716D01*
X20682433Y-15667716D02*
X20682433Y-15686764D01*
X20758624Y-15486764D02*
X20891957Y-15486764D01*
X20891957Y-15486764D02*
X20806243Y-15686764D01*
X21006243Y-15486764D02*
X21025290Y-15486764D01*
X21025290Y-15486764D02*
X21044338Y-15496288D01*
X21044338Y-15496288D02*
X21053862Y-15505811D01*
X21053862Y-15505811D02*
X21063385Y-15524859D01*
X21063385Y-15524859D02*
X21072909Y-15562954D01*
X21072909Y-15562954D02*
X21072909Y-15610573D01*
X21072909Y-15610573D02*
X21063385Y-15648668D01*
X21063385Y-15648668D02*
X21053862Y-15667716D01*
X21053862Y-15667716D02*
X21044338Y-15677240D01*
X21044338Y-15677240D02*
X21025290Y-15686764D01*
X21025290Y-15686764D02*
X21006243Y-15686764D01*
X21006243Y-15686764D02*
X20987195Y-15677240D01*
X20987195Y-15677240D02*
X20977671Y-15667716D01*
X20977671Y-15667716D02*
X20968147Y-15648668D01*
X20968147Y-15648668D02*
X20958624Y-15610573D01*
X20958624Y-15610573D02*
X20958624Y-15562954D01*
X20958624Y-15562954D02*
X20968147Y-15524859D01*
X20968147Y-15524859D02*
X20977671Y-15505811D01*
X20977671Y-15505811D02*
X20987195Y-15496288D01*
X20987195Y-15496288D02*
X21006243Y-15486764D01*
X21196719Y-15486764D02*
X21215766Y-15486764D01*
X21215766Y-15486764D02*
X21234814Y-15496288D01*
X21234814Y-15496288D02*
X21244338Y-15505811D01*
X21244338Y-15505811D02*
X21253862Y-15524859D01*
X21253862Y-15524859D02*
X21263385Y-15562954D01*
X21263385Y-15562954D02*
X21263385Y-15610573D01*
X21263385Y-15610573D02*
X21253862Y-15648668D01*
X21253862Y-15648668D02*
X21244338Y-15667716D01*
X21244338Y-15667716D02*
X21234814Y-15677240D01*
X21234814Y-15677240D02*
X21215766Y-15686764D01*
X21215766Y-15686764D02*
X21196719Y-15686764D01*
X21196719Y-15686764D02*
X21177671Y-15677240D01*
X21177671Y-15677240D02*
X21168147Y-15667716D01*
X21168147Y-15667716D02*
X21158624Y-15648668D01*
X21158624Y-15648668D02*
X21149100Y-15610573D01*
X21149100Y-15610573D02*
X21149100Y-15562954D01*
X21149100Y-15562954D02*
X21158624Y-15524859D01*
X21158624Y-15524859D02*
X21168147Y-15505811D01*
X21168147Y-15505811D02*
X21177671Y-15496288D01*
X21177671Y-15496288D02*
X21196719Y-15486764D01*
X21349100Y-15686764D02*
X21349100Y-15553430D01*
X21349100Y-15572478D02*
X21358624Y-15562954D01*
X21358624Y-15562954D02*
X21377671Y-15553430D01*
X21377671Y-15553430D02*
X21406243Y-15553430D01*
X21406243Y-15553430D02*
X21425290Y-15562954D01*
X21425290Y-15562954D02*
X21434814Y-15582002D01*
X21434814Y-15582002D02*
X21434814Y-15686764D01*
X21434814Y-15582002D02*
X21444338Y-15562954D01*
X21444338Y-15562954D02*
X21463385Y-15553430D01*
X21463385Y-15553430D02*
X21491957Y-15553430D01*
X21491957Y-15553430D02*
X21511005Y-15562954D01*
X21511005Y-15562954D02*
X21520528Y-15582002D01*
X21520528Y-15582002D02*
X21520528Y-15686764D01*
X21615766Y-15686764D02*
X21615766Y-15553430D01*
X21615766Y-15572478D02*
X21625290Y-15562954D01*
X21625290Y-15562954D02*
X21644338Y-15553430D01*
X21644338Y-15553430D02*
X21672909Y-15553430D01*
X21672909Y-15553430D02*
X21691957Y-15562954D01*
X21691957Y-15562954D02*
X21701481Y-15582002D01*
X21701481Y-15582002D02*
X21701481Y-15686764D01*
X21701481Y-15582002D02*
X21711005Y-15562954D01*
X21711005Y-15562954D02*
X21730052Y-15553430D01*
X21730052Y-15553430D02*
X21758624Y-15553430D01*
X21758624Y-15553430D02*
X21777671Y-15562954D01*
X21777671Y-15562954D02*
X21787195Y-15582002D01*
X21787195Y-15582002D02*
X21787195Y-15686764D01*
X22177671Y-15477240D02*
X22006243Y-15734383D01*
X22434814Y-15486764D02*
X22453862Y-15486764D01*
X22453862Y-15486764D02*
X22472909Y-15496288D01*
X22472909Y-15496288D02*
X22482433Y-15505811D01*
X22482433Y-15505811D02*
X22491957Y-15524859D01*
X22491957Y-15524859D02*
X22501481Y-15562954D01*
X22501481Y-15562954D02*
X22501481Y-15610573D01*
X22501481Y-15610573D02*
X22491957Y-15648668D01*
X22491957Y-15648668D02*
X22482433Y-15667716D01*
X22482433Y-15667716D02*
X22472909Y-15677240D01*
X22472909Y-15677240D02*
X22453862Y-15686764D01*
X22453862Y-15686764D02*
X22434814Y-15686764D01*
X22434814Y-15686764D02*
X22415766Y-15677240D01*
X22415766Y-15677240D02*
X22406243Y-15667716D01*
X22406243Y-15667716D02*
X22396719Y-15648668D01*
X22396719Y-15648668D02*
X22387195Y-15610573D01*
X22387195Y-15610573D02*
X22387195Y-15562954D01*
X22387195Y-15562954D02*
X22396719Y-15524859D01*
X22396719Y-15524859D02*
X22406243Y-15505811D01*
X22406243Y-15505811D02*
X22415766Y-15496288D01*
X22415766Y-15496288D02*
X22434814Y-15486764D01*
X22587195Y-15667716D02*
X22596719Y-15677240D01*
X22596719Y-15677240D02*
X22587195Y-15686764D01*
X22587195Y-15686764D02*
X22577671Y-15677240D01*
X22577671Y-15677240D02*
X22587195Y-15667716D01*
X22587195Y-15667716D02*
X22587195Y-15686764D01*
X22720528Y-15486764D02*
X22739576Y-15486764D01*
X22739576Y-15486764D02*
X22758624Y-15496288D01*
X22758624Y-15496288D02*
X22768147Y-15505811D01*
X22768147Y-15505811D02*
X22777671Y-15524859D01*
X22777671Y-15524859D02*
X22787195Y-15562954D01*
X22787195Y-15562954D02*
X22787195Y-15610573D01*
X22787195Y-15610573D02*
X22777671Y-15648668D01*
X22777671Y-15648668D02*
X22768147Y-15667716D01*
X22768147Y-15667716D02*
X22758624Y-15677240D01*
X22758624Y-15677240D02*
X22739576Y-15686764D01*
X22739576Y-15686764D02*
X22720528Y-15686764D01*
X22720528Y-15686764D02*
X22701481Y-15677240D01*
X22701481Y-15677240D02*
X22691957Y-15667716D01*
X22691957Y-15667716D02*
X22682433Y-15648668D01*
X22682433Y-15648668D02*
X22672909Y-15610573D01*
X22672909Y-15610573D02*
X22672909Y-15562954D01*
X22672909Y-15562954D02*
X22682433Y-15524859D01*
X22682433Y-15524859D02*
X22691957Y-15505811D01*
X22691957Y-15505811D02*
X22701481Y-15496288D01*
X22701481Y-15496288D02*
X22720528Y-15486764D01*
X22863386Y-15505811D02*
X22872909Y-15496288D01*
X22872909Y-15496288D02*
X22891957Y-15486764D01*
X22891957Y-15486764D02*
X22939576Y-15486764D01*
X22939576Y-15486764D02*
X22958624Y-15496288D01*
X22958624Y-15496288D02*
X22968147Y-15505811D01*
X22968147Y-15505811D02*
X22977671Y-15524859D01*
X22977671Y-15524859D02*
X22977671Y-15543907D01*
X22977671Y-15543907D02*
X22968147Y-15572478D01*
X22968147Y-15572478D02*
X22853862Y-15686764D01*
X22853862Y-15686764D02*
X22977671Y-15686764D01*
X23044338Y-15486764D02*
X23177671Y-15486764D01*
X23177671Y-15486764D02*
X23091957Y-15686764D01*
X23339576Y-15486764D02*
X23301481Y-15486764D01*
X23301481Y-15486764D02*
X23282433Y-15496288D01*
X23282433Y-15496288D02*
X23272909Y-15505811D01*
X23272909Y-15505811D02*
X23253862Y-15534383D01*
X23253862Y-15534383D02*
X23244338Y-15572478D01*
X23244338Y-15572478D02*
X23244338Y-15648668D01*
X23244338Y-15648668D02*
X23253862Y-15667716D01*
X23253862Y-15667716D02*
X23263386Y-15677240D01*
X23263386Y-15677240D02*
X23282433Y-15686764D01*
X23282433Y-15686764D02*
X23320528Y-15686764D01*
X23320528Y-15686764D02*
X23339576Y-15677240D01*
X23339576Y-15677240D02*
X23349100Y-15667716D01*
X23349100Y-15667716D02*
X23358624Y-15648668D01*
X23358624Y-15648668D02*
X23358624Y-15601049D01*
X23358624Y-15601049D02*
X23349100Y-15582002D01*
X23349100Y-15582002D02*
X23339576Y-15572478D01*
X23339576Y-15572478D02*
X23320528Y-15562954D01*
X23320528Y-15562954D02*
X23282433Y-15562954D01*
X23282433Y-15562954D02*
X23263386Y-15572478D01*
X23263386Y-15572478D02*
X23253862Y-15582002D01*
X23253862Y-15582002D02*
X23244338Y-15601049D01*
X23434814Y-15486764D02*
X23434814Y-15524859D01*
X23511005Y-15486764D02*
X23511005Y-15524859D01*
X23806243Y-15762954D02*
X23796719Y-15753430D01*
X23796719Y-15753430D02*
X23777671Y-15724859D01*
X23777671Y-15724859D02*
X23768148Y-15705811D01*
X23768148Y-15705811D02*
X23758624Y-15677240D01*
X23758624Y-15677240D02*
X23749100Y-15629621D01*
X23749100Y-15629621D02*
X23749100Y-15591526D01*
X23749100Y-15591526D02*
X23758624Y-15543907D01*
X23758624Y-15543907D02*
X23768148Y-15515335D01*
X23768148Y-15515335D02*
X23777671Y-15496288D01*
X23777671Y-15496288D02*
X23796719Y-15467716D01*
X23796719Y-15467716D02*
X23806243Y-15458192D01*
X23968148Y-15553430D02*
X23968148Y-15686764D01*
X23920528Y-15477240D02*
X23872909Y-15620097D01*
X23872909Y-15620097D02*
X23996719Y-15620097D01*
X24225290Y-15686764D02*
X24225290Y-15486764D01*
X24311005Y-15686764D02*
X24311005Y-15582002D01*
X24311005Y-15582002D02*
X24301481Y-15562954D01*
X24301481Y-15562954D02*
X24282433Y-15553430D01*
X24282433Y-15553430D02*
X24253862Y-15553430D01*
X24253862Y-15553430D02*
X24234814Y-15562954D01*
X24234814Y-15562954D02*
X24225290Y-15572478D01*
X24434814Y-15686764D02*
X24415767Y-15677240D01*
X24415767Y-15677240D02*
X24406243Y-15667716D01*
X24406243Y-15667716D02*
X24396719Y-15648668D01*
X24396719Y-15648668D02*
X24396719Y-15591526D01*
X24396719Y-15591526D02*
X24406243Y-15572478D01*
X24406243Y-15572478D02*
X24415767Y-15562954D01*
X24415767Y-15562954D02*
X24434814Y-15553430D01*
X24434814Y-15553430D02*
X24463386Y-15553430D01*
X24463386Y-15553430D02*
X24482433Y-15562954D01*
X24482433Y-15562954D02*
X24491957Y-15572478D01*
X24491957Y-15572478D02*
X24501481Y-15591526D01*
X24501481Y-15591526D02*
X24501481Y-15648668D01*
X24501481Y-15648668D02*
X24491957Y-15667716D01*
X24491957Y-15667716D02*
X24482433Y-15677240D01*
X24482433Y-15677240D02*
X24463386Y-15686764D01*
X24463386Y-15686764D02*
X24434814Y-15686764D01*
X24615767Y-15686764D02*
X24596719Y-15677240D01*
X24596719Y-15677240D02*
X24587195Y-15658192D01*
X24587195Y-15658192D02*
X24587195Y-15486764D01*
X24768148Y-15677240D02*
X24749100Y-15686764D01*
X24749100Y-15686764D02*
X24711005Y-15686764D01*
X24711005Y-15686764D02*
X24691957Y-15677240D01*
X24691957Y-15677240D02*
X24682433Y-15658192D01*
X24682433Y-15658192D02*
X24682433Y-15582002D01*
X24682433Y-15582002D02*
X24691957Y-15562954D01*
X24691957Y-15562954D02*
X24711005Y-15553430D01*
X24711005Y-15553430D02*
X24749100Y-15553430D01*
X24749100Y-15553430D02*
X24768148Y-15562954D01*
X24768148Y-15562954D02*
X24777671Y-15582002D01*
X24777671Y-15582002D02*
X24777671Y-15601049D01*
X24777671Y-15601049D02*
X24682433Y-15620097D01*
X24853862Y-15677240D02*
X24872910Y-15686764D01*
X24872910Y-15686764D02*
X24911005Y-15686764D01*
X24911005Y-15686764D02*
X24930052Y-15677240D01*
X24930052Y-15677240D02*
X24939576Y-15658192D01*
X24939576Y-15658192D02*
X24939576Y-15648668D01*
X24939576Y-15648668D02*
X24930052Y-15629621D01*
X24930052Y-15629621D02*
X24911005Y-15620097D01*
X24911005Y-15620097D02*
X24882433Y-15620097D01*
X24882433Y-15620097D02*
X24863386Y-15610573D01*
X24863386Y-15610573D02*
X24853862Y-15591526D01*
X24853862Y-15591526D02*
X24853862Y-15582002D01*
X24853862Y-15582002D02*
X24863386Y-15562954D01*
X24863386Y-15562954D02*
X24882433Y-15553430D01*
X24882433Y-15553430D02*
X24911005Y-15553430D01*
X24911005Y-15553430D02*
X24930052Y-15562954D01*
X25006243Y-15762954D02*
X25015767Y-15753430D01*
X25015767Y-15753430D02*
X25034814Y-15724859D01*
X25034814Y-15724859D02*
X25044338Y-15705811D01*
X25044338Y-15705811D02*
X25053862Y-15677240D01*
X25053862Y-15677240D02*
X25063386Y-15629621D01*
X25063386Y-15629621D02*
X25063386Y-15591526D01*
X25063386Y-15591526D02*
X25053862Y-15543907D01*
X25053862Y-15543907D02*
X25044338Y-15515335D01*
X25044338Y-15515335D02*
X25034814Y-15496288D01*
X25034814Y-15496288D02*
X25015767Y-15467716D01*
X25015767Y-15467716D02*
X25006243Y-15458192D01*
D14*
X20191180Y-15819280D02*
X20191180Y-15899280D01*
X20151180Y-15859280D02*
X20231180Y-15859280D01*
D11*
X20530052Y-15750764D02*
X20549100Y-15750764D01*
X20549100Y-15750764D02*
X20568147Y-15760288D01*
X20568147Y-15760288D02*
X20577671Y-15769811D01*
X20577671Y-15769811D02*
X20587195Y-15788859D01*
X20587195Y-15788859D02*
X20596719Y-15826954D01*
X20596719Y-15826954D02*
X20596719Y-15874573D01*
X20596719Y-15874573D02*
X20587195Y-15912668D01*
X20587195Y-15912668D02*
X20577671Y-15931716D01*
X20577671Y-15931716D02*
X20568147Y-15941240D01*
X20568147Y-15941240D02*
X20549100Y-15950764D01*
X20549100Y-15950764D02*
X20530052Y-15950764D01*
X20530052Y-15950764D02*
X20511004Y-15941240D01*
X20511004Y-15941240D02*
X20501481Y-15931716D01*
X20501481Y-15931716D02*
X20491957Y-15912668D01*
X20491957Y-15912668D02*
X20482433Y-15874573D01*
X20482433Y-15874573D02*
X20482433Y-15826954D01*
X20482433Y-15826954D02*
X20491957Y-15788859D01*
X20491957Y-15788859D02*
X20501481Y-15769811D01*
X20501481Y-15769811D02*
X20511004Y-15760288D01*
X20511004Y-15760288D02*
X20530052Y-15750764D01*
X20682433Y-15931716D02*
X20691957Y-15941240D01*
X20691957Y-15941240D02*
X20682433Y-15950764D01*
X20682433Y-15950764D02*
X20672909Y-15941240D01*
X20672909Y-15941240D02*
X20682433Y-15931716D01*
X20682433Y-15931716D02*
X20682433Y-15950764D01*
X20806243Y-15836478D02*
X20787195Y-15826954D01*
X20787195Y-15826954D02*
X20777671Y-15817430D01*
X20777671Y-15817430D02*
X20768147Y-15798383D01*
X20768147Y-15798383D02*
X20768147Y-15788859D01*
X20768147Y-15788859D02*
X20777671Y-15769811D01*
X20777671Y-15769811D02*
X20787195Y-15760288D01*
X20787195Y-15760288D02*
X20806243Y-15750764D01*
X20806243Y-15750764D02*
X20844338Y-15750764D01*
X20844338Y-15750764D02*
X20863385Y-15760288D01*
X20863385Y-15760288D02*
X20872909Y-15769811D01*
X20872909Y-15769811D02*
X20882433Y-15788859D01*
X20882433Y-15788859D02*
X20882433Y-15798383D01*
X20882433Y-15798383D02*
X20872909Y-15817430D01*
X20872909Y-15817430D02*
X20863385Y-15826954D01*
X20863385Y-15826954D02*
X20844338Y-15836478D01*
X20844338Y-15836478D02*
X20806243Y-15836478D01*
X20806243Y-15836478D02*
X20787195Y-15846002D01*
X20787195Y-15846002D02*
X20777671Y-15855526D01*
X20777671Y-15855526D02*
X20768147Y-15874573D01*
X20768147Y-15874573D02*
X20768147Y-15912668D01*
X20768147Y-15912668D02*
X20777671Y-15931716D01*
X20777671Y-15931716D02*
X20787195Y-15941240D01*
X20787195Y-15941240D02*
X20806243Y-15950764D01*
X20806243Y-15950764D02*
X20844338Y-15950764D01*
X20844338Y-15950764D02*
X20863385Y-15941240D01*
X20863385Y-15941240D02*
X20872909Y-15931716D01*
X20872909Y-15931716D02*
X20882433Y-15912668D01*
X20882433Y-15912668D02*
X20882433Y-15874573D01*
X20882433Y-15874573D02*
X20872909Y-15855526D01*
X20872909Y-15855526D02*
X20863385Y-15846002D01*
X20863385Y-15846002D02*
X20844338Y-15836478D01*
X21006243Y-15750764D02*
X21025290Y-15750764D01*
X21025290Y-15750764D02*
X21044338Y-15760288D01*
X21044338Y-15760288D02*
X21053862Y-15769811D01*
X21053862Y-15769811D02*
X21063385Y-15788859D01*
X21063385Y-15788859D02*
X21072909Y-15826954D01*
X21072909Y-15826954D02*
X21072909Y-15874573D01*
X21072909Y-15874573D02*
X21063385Y-15912668D01*
X21063385Y-15912668D02*
X21053862Y-15931716D01*
X21053862Y-15931716D02*
X21044338Y-15941240D01*
X21044338Y-15941240D02*
X21025290Y-15950764D01*
X21025290Y-15950764D02*
X21006243Y-15950764D01*
X21006243Y-15950764D02*
X20987195Y-15941240D01*
X20987195Y-15941240D02*
X20977671Y-15931716D01*
X20977671Y-15931716D02*
X20968147Y-15912668D01*
X20968147Y-15912668D02*
X20958624Y-15874573D01*
X20958624Y-15874573D02*
X20958624Y-15826954D01*
X20958624Y-15826954D02*
X20968147Y-15788859D01*
X20968147Y-15788859D02*
X20977671Y-15769811D01*
X20977671Y-15769811D02*
X20987195Y-15760288D01*
X20987195Y-15760288D02*
X21006243Y-15750764D01*
X21196719Y-15750764D02*
X21215766Y-15750764D01*
X21215766Y-15750764D02*
X21234814Y-15760288D01*
X21234814Y-15760288D02*
X21244338Y-15769811D01*
X21244338Y-15769811D02*
X21253862Y-15788859D01*
X21253862Y-15788859D02*
X21263385Y-15826954D01*
X21263385Y-15826954D02*
X21263385Y-15874573D01*
X21263385Y-15874573D02*
X21253862Y-15912668D01*
X21253862Y-15912668D02*
X21244338Y-15931716D01*
X21244338Y-15931716D02*
X21234814Y-15941240D01*
X21234814Y-15941240D02*
X21215766Y-15950764D01*
X21215766Y-15950764D02*
X21196719Y-15950764D01*
X21196719Y-15950764D02*
X21177671Y-15941240D01*
X21177671Y-15941240D02*
X21168147Y-15931716D01*
X21168147Y-15931716D02*
X21158624Y-15912668D01*
X21158624Y-15912668D02*
X21149100Y-15874573D01*
X21149100Y-15874573D02*
X21149100Y-15826954D01*
X21149100Y-15826954D02*
X21158624Y-15788859D01*
X21158624Y-15788859D02*
X21168147Y-15769811D01*
X21168147Y-15769811D02*
X21177671Y-15760288D01*
X21177671Y-15760288D02*
X21196719Y-15750764D01*
X21349100Y-15950764D02*
X21349100Y-15817430D01*
X21349100Y-15836478D02*
X21358624Y-15826954D01*
X21358624Y-15826954D02*
X21377671Y-15817430D01*
X21377671Y-15817430D02*
X21406243Y-15817430D01*
X21406243Y-15817430D02*
X21425290Y-15826954D01*
X21425290Y-15826954D02*
X21434814Y-15846002D01*
X21434814Y-15846002D02*
X21434814Y-15950764D01*
X21434814Y-15846002D02*
X21444338Y-15826954D01*
X21444338Y-15826954D02*
X21463385Y-15817430D01*
X21463385Y-15817430D02*
X21491957Y-15817430D01*
X21491957Y-15817430D02*
X21511005Y-15826954D01*
X21511005Y-15826954D02*
X21520528Y-15846002D01*
X21520528Y-15846002D02*
X21520528Y-15950764D01*
X21615766Y-15950764D02*
X21615766Y-15817430D01*
X21615766Y-15836478D02*
X21625290Y-15826954D01*
X21625290Y-15826954D02*
X21644338Y-15817430D01*
X21644338Y-15817430D02*
X21672909Y-15817430D01*
X21672909Y-15817430D02*
X21691957Y-15826954D01*
X21691957Y-15826954D02*
X21701481Y-15846002D01*
X21701481Y-15846002D02*
X21701481Y-15950764D01*
X21701481Y-15846002D02*
X21711005Y-15826954D01*
X21711005Y-15826954D02*
X21730052Y-15817430D01*
X21730052Y-15817430D02*
X21758624Y-15817430D01*
X21758624Y-15817430D02*
X21777671Y-15826954D01*
X21777671Y-15826954D02*
X21787195Y-15846002D01*
X21787195Y-15846002D02*
X21787195Y-15950764D01*
X22177671Y-15741240D02*
X22006243Y-15998383D01*
X22434814Y-15750764D02*
X22453862Y-15750764D01*
X22453862Y-15750764D02*
X22472909Y-15760288D01*
X22472909Y-15760288D02*
X22482433Y-15769811D01*
X22482433Y-15769811D02*
X22491957Y-15788859D01*
X22491957Y-15788859D02*
X22501481Y-15826954D01*
X22501481Y-15826954D02*
X22501481Y-15874573D01*
X22501481Y-15874573D02*
X22491957Y-15912668D01*
X22491957Y-15912668D02*
X22482433Y-15931716D01*
X22482433Y-15931716D02*
X22472909Y-15941240D01*
X22472909Y-15941240D02*
X22453862Y-15950764D01*
X22453862Y-15950764D02*
X22434814Y-15950764D01*
X22434814Y-15950764D02*
X22415766Y-15941240D01*
X22415766Y-15941240D02*
X22406243Y-15931716D01*
X22406243Y-15931716D02*
X22396719Y-15912668D01*
X22396719Y-15912668D02*
X22387195Y-15874573D01*
X22387195Y-15874573D02*
X22387195Y-15826954D01*
X22387195Y-15826954D02*
X22396719Y-15788859D01*
X22396719Y-15788859D02*
X22406243Y-15769811D01*
X22406243Y-15769811D02*
X22415766Y-15760288D01*
X22415766Y-15760288D02*
X22434814Y-15750764D01*
X22587195Y-15931716D02*
X22596719Y-15941240D01*
X22596719Y-15941240D02*
X22587195Y-15950764D01*
X22587195Y-15950764D02*
X22577671Y-15941240D01*
X22577671Y-15941240D02*
X22587195Y-15931716D01*
X22587195Y-15931716D02*
X22587195Y-15950764D01*
X22720528Y-15750764D02*
X22739576Y-15750764D01*
X22739576Y-15750764D02*
X22758624Y-15760288D01*
X22758624Y-15760288D02*
X22768147Y-15769811D01*
X22768147Y-15769811D02*
X22777671Y-15788859D01*
X22777671Y-15788859D02*
X22787195Y-15826954D01*
X22787195Y-15826954D02*
X22787195Y-15874573D01*
X22787195Y-15874573D02*
X22777671Y-15912668D01*
X22777671Y-15912668D02*
X22768147Y-15931716D01*
X22768147Y-15931716D02*
X22758624Y-15941240D01*
X22758624Y-15941240D02*
X22739576Y-15950764D01*
X22739576Y-15950764D02*
X22720528Y-15950764D01*
X22720528Y-15950764D02*
X22701481Y-15941240D01*
X22701481Y-15941240D02*
X22691957Y-15931716D01*
X22691957Y-15931716D02*
X22682433Y-15912668D01*
X22682433Y-15912668D02*
X22672909Y-15874573D01*
X22672909Y-15874573D02*
X22672909Y-15826954D01*
X22672909Y-15826954D02*
X22682433Y-15788859D01*
X22682433Y-15788859D02*
X22691957Y-15769811D01*
X22691957Y-15769811D02*
X22701481Y-15760288D01*
X22701481Y-15760288D02*
X22720528Y-15750764D01*
X22853862Y-15750764D02*
X22977671Y-15750764D01*
X22977671Y-15750764D02*
X22911005Y-15826954D01*
X22911005Y-15826954D02*
X22939576Y-15826954D01*
X22939576Y-15826954D02*
X22958624Y-15836478D01*
X22958624Y-15836478D02*
X22968147Y-15846002D01*
X22968147Y-15846002D02*
X22977671Y-15865049D01*
X22977671Y-15865049D02*
X22977671Y-15912668D01*
X22977671Y-15912668D02*
X22968147Y-15931716D01*
X22968147Y-15931716D02*
X22958624Y-15941240D01*
X22958624Y-15941240D02*
X22939576Y-15950764D01*
X22939576Y-15950764D02*
X22882433Y-15950764D01*
X22882433Y-15950764D02*
X22863386Y-15941240D01*
X22863386Y-15941240D02*
X22853862Y-15931716D01*
X23168147Y-15950764D02*
X23053862Y-15950764D01*
X23111005Y-15950764D02*
X23111005Y-15750764D01*
X23111005Y-15750764D02*
X23091957Y-15779335D01*
X23091957Y-15779335D02*
X23072909Y-15798383D01*
X23072909Y-15798383D02*
X23053862Y-15807907D01*
X23349100Y-15750764D02*
X23253862Y-15750764D01*
X23253862Y-15750764D02*
X23244338Y-15846002D01*
X23244338Y-15846002D02*
X23253862Y-15836478D01*
X23253862Y-15836478D02*
X23272909Y-15826954D01*
X23272909Y-15826954D02*
X23320528Y-15826954D01*
X23320528Y-15826954D02*
X23339576Y-15836478D01*
X23339576Y-15836478D02*
X23349100Y-15846002D01*
X23349100Y-15846002D02*
X23358624Y-15865049D01*
X23358624Y-15865049D02*
X23358624Y-15912668D01*
X23358624Y-15912668D02*
X23349100Y-15931716D01*
X23349100Y-15931716D02*
X23339576Y-15941240D01*
X23339576Y-15941240D02*
X23320528Y-15950764D01*
X23320528Y-15950764D02*
X23272909Y-15950764D01*
X23272909Y-15950764D02*
X23253862Y-15941240D01*
X23253862Y-15941240D02*
X23244338Y-15931716D01*
X23434814Y-15750764D02*
X23434814Y-15788859D01*
X23511005Y-15750764D02*
X23511005Y-15788859D01*
X23806243Y-16026954D02*
X23796719Y-16017430D01*
X23796719Y-16017430D02*
X23777671Y-15988859D01*
X23777671Y-15988859D02*
X23768148Y-15969811D01*
X23768148Y-15969811D02*
X23758624Y-15941240D01*
X23758624Y-15941240D02*
X23749100Y-15893621D01*
X23749100Y-15893621D02*
X23749100Y-15855526D01*
X23749100Y-15855526D02*
X23758624Y-15807907D01*
X23758624Y-15807907D02*
X23768148Y-15779335D01*
X23768148Y-15779335D02*
X23777671Y-15760288D01*
X23777671Y-15760288D02*
X23796719Y-15731716D01*
X23796719Y-15731716D02*
X23806243Y-15722192D01*
X23968148Y-15817430D02*
X23968148Y-15950764D01*
X23920528Y-15741240D02*
X23872909Y-15884097D01*
X23872909Y-15884097D02*
X23996719Y-15884097D01*
X24225290Y-15950764D02*
X24225290Y-15750764D01*
X24311005Y-15950764D02*
X24311005Y-15846002D01*
X24311005Y-15846002D02*
X24301481Y-15826954D01*
X24301481Y-15826954D02*
X24282433Y-15817430D01*
X24282433Y-15817430D02*
X24253862Y-15817430D01*
X24253862Y-15817430D02*
X24234814Y-15826954D01*
X24234814Y-15826954D02*
X24225290Y-15836478D01*
X24434814Y-15950764D02*
X24415767Y-15941240D01*
X24415767Y-15941240D02*
X24406243Y-15931716D01*
X24406243Y-15931716D02*
X24396719Y-15912668D01*
X24396719Y-15912668D02*
X24396719Y-15855526D01*
X24396719Y-15855526D02*
X24406243Y-15836478D01*
X24406243Y-15836478D02*
X24415767Y-15826954D01*
X24415767Y-15826954D02*
X24434814Y-15817430D01*
X24434814Y-15817430D02*
X24463386Y-15817430D01*
X24463386Y-15817430D02*
X24482433Y-15826954D01*
X24482433Y-15826954D02*
X24491957Y-15836478D01*
X24491957Y-15836478D02*
X24501481Y-15855526D01*
X24501481Y-15855526D02*
X24501481Y-15912668D01*
X24501481Y-15912668D02*
X24491957Y-15931716D01*
X24491957Y-15931716D02*
X24482433Y-15941240D01*
X24482433Y-15941240D02*
X24463386Y-15950764D01*
X24463386Y-15950764D02*
X24434814Y-15950764D01*
X24615767Y-15950764D02*
X24596719Y-15941240D01*
X24596719Y-15941240D02*
X24587195Y-15922192D01*
X24587195Y-15922192D02*
X24587195Y-15750764D01*
X24768148Y-15941240D02*
X24749100Y-15950764D01*
X24749100Y-15950764D02*
X24711005Y-15950764D01*
X24711005Y-15950764D02*
X24691957Y-15941240D01*
X24691957Y-15941240D02*
X24682433Y-15922192D01*
X24682433Y-15922192D02*
X24682433Y-15846002D01*
X24682433Y-15846002D02*
X24691957Y-15826954D01*
X24691957Y-15826954D02*
X24711005Y-15817430D01*
X24711005Y-15817430D02*
X24749100Y-15817430D01*
X24749100Y-15817430D02*
X24768148Y-15826954D01*
X24768148Y-15826954D02*
X24777671Y-15846002D01*
X24777671Y-15846002D02*
X24777671Y-15865049D01*
X24777671Y-15865049D02*
X24682433Y-15884097D01*
X24853862Y-15941240D02*
X24872910Y-15950764D01*
X24872910Y-15950764D02*
X24911005Y-15950764D01*
X24911005Y-15950764D02*
X24930052Y-15941240D01*
X24930052Y-15941240D02*
X24939576Y-15922192D01*
X24939576Y-15922192D02*
X24939576Y-15912668D01*
X24939576Y-15912668D02*
X24930052Y-15893621D01*
X24930052Y-15893621D02*
X24911005Y-15884097D01*
X24911005Y-15884097D02*
X24882433Y-15884097D01*
X24882433Y-15884097D02*
X24863386Y-15874573D01*
X24863386Y-15874573D02*
X24853862Y-15855526D01*
X24853862Y-15855526D02*
X24853862Y-15846002D01*
X24853862Y-15846002D02*
X24863386Y-15826954D01*
X24863386Y-15826954D02*
X24882433Y-15817430D01*
X24882433Y-15817430D02*
X24911005Y-15817430D01*
X24911005Y-15817430D02*
X24930052Y-15826954D01*
X25006243Y-16026954D02*
X25015767Y-16017430D01*
X25015767Y-16017430D02*
X25034814Y-15988859D01*
X25034814Y-15988859D02*
X25044338Y-15969811D01*
X25044338Y-15969811D02*
X25053862Y-15941240D01*
X25053862Y-15941240D02*
X25063386Y-15893621D01*
X25063386Y-15893621D02*
X25063386Y-15855526D01*
X25063386Y-15855526D02*
X25053862Y-15807907D01*
X25053862Y-15807907D02*
X25044338Y-15779335D01*
X25044338Y-15779335D02*
X25034814Y-15760288D01*
X25034814Y-15760288D02*
X25015767Y-15731716D01*
X25015767Y-15731716D02*
X25006243Y-15722192D01*
D10*
X20216536Y-16158636D02*
X20216536Y-16087924D01*
X20145824Y-16087924D01*
X20145824Y-16158636D01*
X20216536Y-16158636D01*
D11*
X20596719Y-16214764D02*
X20482433Y-16214764D01*
X20539576Y-16214764D02*
X20539576Y-16014764D01*
X20539576Y-16014764D02*
X20520528Y-16043335D01*
X20520528Y-16043335D02*
X20501481Y-16062383D01*
X20501481Y-16062383D02*
X20482433Y-16071907D01*
X20682433Y-16195716D02*
X20691957Y-16205240D01*
X20691957Y-16205240D02*
X20682433Y-16214764D01*
X20682433Y-16214764D02*
X20672909Y-16205240D01*
X20672909Y-16205240D02*
X20682433Y-16195716D01*
X20682433Y-16195716D02*
X20682433Y-16214764D01*
X20815766Y-16014764D02*
X20834814Y-16014764D01*
X20834814Y-16014764D02*
X20853862Y-16024288D01*
X20853862Y-16024288D02*
X20863385Y-16033811D01*
X20863385Y-16033811D02*
X20872909Y-16052859D01*
X20872909Y-16052859D02*
X20882433Y-16090954D01*
X20882433Y-16090954D02*
X20882433Y-16138573D01*
X20882433Y-16138573D02*
X20872909Y-16176668D01*
X20872909Y-16176668D02*
X20863385Y-16195716D01*
X20863385Y-16195716D02*
X20853862Y-16205240D01*
X20853862Y-16205240D02*
X20834814Y-16214764D01*
X20834814Y-16214764D02*
X20815766Y-16214764D01*
X20815766Y-16214764D02*
X20796719Y-16205240D01*
X20796719Y-16205240D02*
X20787195Y-16195716D01*
X20787195Y-16195716D02*
X20777671Y-16176668D01*
X20777671Y-16176668D02*
X20768147Y-16138573D01*
X20768147Y-16138573D02*
X20768147Y-16090954D01*
X20768147Y-16090954D02*
X20777671Y-16052859D01*
X20777671Y-16052859D02*
X20787195Y-16033811D01*
X20787195Y-16033811D02*
X20796719Y-16024288D01*
X20796719Y-16024288D02*
X20815766Y-16014764D01*
X21006243Y-16014764D02*
X21025290Y-16014764D01*
X21025290Y-16014764D02*
X21044338Y-16024288D01*
X21044338Y-16024288D02*
X21053862Y-16033811D01*
X21053862Y-16033811D02*
X21063385Y-16052859D01*
X21063385Y-16052859D02*
X21072909Y-16090954D01*
X21072909Y-16090954D02*
X21072909Y-16138573D01*
X21072909Y-16138573D02*
X21063385Y-16176668D01*
X21063385Y-16176668D02*
X21053862Y-16195716D01*
X21053862Y-16195716D02*
X21044338Y-16205240D01*
X21044338Y-16205240D02*
X21025290Y-16214764D01*
X21025290Y-16214764D02*
X21006243Y-16214764D01*
X21006243Y-16214764D02*
X20987195Y-16205240D01*
X20987195Y-16205240D02*
X20977671Y-16195716D01*
X20977671Y-16195716D02*
X20968147Y-16176668D01*
X20968147Y-16176668D02*
X20958624Y-16138573D01*
X20958624Y-16138573D02*
X20958624Y-16090954D01*
X20958624Y-16090954D02*
X20968147Y-16052859D01*
X20968147Y-16052859D02*
X20977671Y-16033811D01*
X20977671Y-16033811D02*
X20987195Y-16024288D01*
X20987195Y-16024288D02*
X21006243Y-16014764D01*
X21196719Y-16014764D02*
X21215766Y-16014764D01*
X21215766Y-16014764D02*
X21234814Y-16024288D01*
X21234814Y-16024288D02*
X21244338Y-16033811D01*
X21244338Y-16033811D02*
X21253862Y-16052859D01*
X21253862Y-16052859D02*
X21263385Y-16090954D01*
X21263385Y-16090954D02*
X21263385Y-16138573D01*
X21263385Y-16138573D02*
X21253862Y-16176668D01*
X21253862Y-16176668D02*
X21244338Y-16195716D01*
X21244338Y-16195716D02*
X21234814Y-16205240D01*
X21234814Y-16205240D02*
X21215766Y-16214764D01*
X21215766Y-16214764D02*
X21196719Y-16214764D01*
X21196719Y-16214764D02*
X21177671Y-16205240D01*
X21177671Y-16205240D02*
X21168147Y-16195716D01*
X21168147Y-16195716D02*
X21158624Y-16176668D01*
X21158624Y-16176668D02*
X21149100Y-16138573D01*
X21149100Y-16138573D02*
X21149100Y-16090954D01*
X21149100Y-16090954D02*
X21158624Y-16052859D01*
X21158624Y-16052859D02*
X21168147Y-16033811D01*
X21168147Y-16033811D02*
X21177671Y-16024288D01*
X21177671Y-16024288D02*
X21196719Y-16014764D01*
X21349100Y-16214764D02*
X21349100Y-16081430D01*
X21349100Y-16100478D02*
X21358624Y-16090954D01*
X21358624Y-16090954D02*
X21377671Y-16081430D01*
X21377671Y-16081430D02*
X21406243Y-16081430D01*
X21406243Y-16081430D02*
X21425290Y-16090954D01*
X21425290Y-16090954D02*
X21434814Y-16110002D01*
X21434814Y-16110002D02*
X21434814Y-16214764D01*
X21434814Y-16110002D02*
X21444338Y-16090954D01*
X21444338Y-16090954D02*
X21463385Y-16081430D01*
X21463385Y-16081430D02*
X21491957Y-16081430D01*
X21491957Y-16081430D02*
X21511005Y-16090954D01*
X21511005Y-16090954D02*
X21520528Y-16110002D01*
X21520528Y-16110002D02*
X21520528Y-16214764D01*
X21615766Y-16214764D02*
X21615766Y-16081430D01*
X21615766Y-16100478D02*
X21625290Y-16090954D01*
X21625290Y-16090954D02*
X21644338Y-16081430D01*
X21644338Y-16081430D02*
X21672909Y-16081430D01*
X21672909Y-16081430D02*
X21691957Y-16090954D01*
X21691957Y-16090954D02*
X21701481Y-16110002D01*
X21701481Y-16110002D02*
X21701481Y-16214764D01*
X21701481Y-16110002D02*
X21711005Y-16090954D01*
X21711005Y-16090954D02*
X21730052Y-16081430D01*
X21730052Y-16081430D02*
X21758624Y-16081430D01*
X21758624Y-16081430D02*
X21777671Y-16090954D01*
X21777671Y-16090954D02*
X21787195Y-16110002D01*
X21787195Y-16110002D02*
X21787195Y-16214764D01*
X22177671Y-16005240D02*
X22006243Y-16262383D01*
X22434814Y-16014764D02*
X22453862Y-16014764D01*
X22453862Y-16014764D02*
X22472909Y-16024288D01*
X22472909Y-16024288D02*
X22482433Y-16033811D01*
X22482433Y-16033811D02*
X22491957Y-16052859D01*
X22491957Y-16052859D02*
X22501481Y-16090954D01*
X22501481Y-16090954D02*
X22501481Y-16138573D01*
X22501481Y-16138573D02*
X22491957Y-16176668D01*
X22491957Y-16176668D02*
X22482433Y-16195716D01*
X22482433Y-16195716D02*
X22472909Y-16205240D01*
X22472909Y-16205240D02*
X22453862Y-16214764D01*
X22453862Y-16214764D02*
X22434814Y-16214764D01*
X22434814Y-16214764D02*
X22415766Y-16205240D01*
X22415766Y-16205240D02*
X22406243Y-16195716D01*
X22406243Y-16195716D02*
X22396719Y-16176668D01*
X22396719Y-16176668D02*
X22387195Y-16138573D01*
X22387195Y-16138573D02*
X22387195Y-16090954D01*
X22387195Y-16090954D02*
X22396719Y-16052859D01*
X22396719Y-16052859D02*
X22406243Y-16033811D01*
X22406243Y-16033811D02*
X22415766Y-16024288D01*
X22415766Y-16024288D02*
X22434814Y-16014764D01*
X22587195Y-16195716D02*
X22596719Y-16205240D01*
X22596719Y-16205240D02*
X22587195Y-16214764D01*
X22587195Y-16214764D02*
X22577671Y-16205240D01*
X22577671Y-16205240D02*
X22587195Y-16195716D01*
X22587195Y-16195716D02*
X22587195Y-16214764D01*
X22720528Y-16014764D02*
X22739576Y-16014764D01*
X22739576Y-16014764D02*
X22758624Y-16024288D01*
X22758624Y-16024288D02*
X22768147Y-16033811D01*
X22768147Y-16033811D02*
X22777671Y-16052859D01*
X22777671Y-16052859D02*
X22787195Y-16090954D01*
X22787195Y-16090954D02*
X22787195Y-16138573D01*
X22787195Y-16138573D02*
X22777671Y-16176668D01*
X22777671Y-16176668D02*
X22768147Y-16195716D01*
X22768147Y-16195716D02*
X22758624Y-16205240D01*
X22758624Y-16205240D02*
X22739576Y-16214764D01*
X22739576Y-16214764D02*
X22720528Y-16214764D01*
X22720528Y-16214764D02*
X22701481Y-16205240D01*
X22701481Y-16205240D02*
X22691957Y-16195716D01*
X22691957Y-16195716D02*
X22682433Y-16176668D01*
X22682433Y-16176668D02*
X22672909Y-16138573D01*
X22672909Y-16138573D02*
X22672909Y-16090954D01*
X22672909Y-16090954D02*
X22682433Y-16052859D01*
X22682433Y-16052859D02*
X22691957Y-16033811D01*
X22691957Y-16033811D02*
X22701481Y-16024288D01*
X22701481Y-16024288D02*
X22720528Y-16014764D01*
X22853862Y-16014764D02*
X22977671Y-16014764D01*
X22977671Y-16014764D02*
X22911005Y-16090954D01*
X22911005Y-16090954D02*
X22939576Y-16090954D01*
X22939576Y-16090954D02*
X22958624Y-16100478D01*
X22958624Y-16100478D02*
X22968147Y-16110002D01*
X22968147Y-16110002D02*
X22977671Y-16129049D01*
X22977671Y-16129049D02*
X22977671Y-16176668D01*
X22977671Y-16176668D02*
X22968147Y-16195716D01*
X22968147Y-16195716D02*
X22958624Y-16205240D01*
X22958624Y-16205240D02*
X22939576Y-16214764D01*
X22939576Y-16214764D02*
X22882433Y-16214764D01*
X22882433Y-16214764D02*
X22863386Y-16205240D01*
X22863386Y-16205240D02*
X22853862Y-16195716D01*
X23072909Y-16214764D02*
X23111005Y-16214764D01*
X23111005Y-16214764D02*
X23130052Y-16205240D01*
X23130052Y-16205240D02*
X23139576Y-16195716D01*
X23139576Y-16195716D02*
X23158624Y-16167145D01*
X23158624Y-16167145D02*
X23168147Y-16129049D01*
X23168147Y-16129049D02*
X23168147Y-16052859D01*
X23168147Y-16052859D02*
X23158624Y-16033811D01*
X23158624Y-16033811D02*
X23149100Y-16024288D01*
X23149100Y-16024288D02*
X23130052Y-16014764D01*
X23130052Y-16014764D02*
X23091957Y-16014764D01*
X23091957Y-16014764D02*
X23072909Y-16024288D01*
X23072909Y-16024288D02*
X23063386Y-16033811D01*
X23063386Y-16033811D02*
X23053862Y-16052859D01*
X23053862Y-16052859D02*
X23053862Y-16100478D01*
X23053862Y-16100478D02*
X23063386Y-16119526D01*
X23063386Y-16119526D02*
X23072909Y-16129049D01*
X23072909Y-16129049D02*
X23091957Y-16138573D01*
X23091957Y-16138573D02*
X23130052Y-16138573D01*
X23130052Y-16138573D02*
X23149100Y-16129049D01*
X23149100Y-16129049D02*
X23158624Y-16119526D01*
X23158624Y-16119526D02*
X23168147Y-16100478D01*
X23339576Y-16081430D02*
X23339576Y-16214764D01*
X23291957Y-16005240D02*
X23244338Y-16148097D01*
X23244338Y-16148097D02*
X23368147Y-16148097D01*
X23434814Y-16014764D02*
X23434814Y-16052859D01*
X23511005Y-16014764D02*
X23511005Y-16052859D01*
X23806243Y-16290954D02*
X23796719Y-16281430D01*
X23796719Y-16281430D02*
X23777671Y-16252859D01*
X23777671Y-16252859D02*
X23768148Y-16233811D01*
X23768148Y-16233811D02*
X23758624Y-16205240D01*
X23758624Y-16205240D02*
X23749100Y-16157621D01*
X23749100Y-16157621D02*
X23749100Y-16119526D01*
X23749100Y-16119526D02*
X23758624Y-16071907D01*
X23758624Y-16071907D02*
X23768148Y-16043335D01*
X23768148Y-16043335D02*
X23777671Y-16024288D01*
X23777671Y-16024288D02*
X23796719Y-15995716D01*
X23796719Y-15995716D02*
X23806243Y-15986192D01*
X23968148Y-16014764D02*
X23930052Y-16014764D01*
X23930052Y-16014764D02*
X23911005Y-16024288D01*
X23911005Y-16024288D02*
X23901481Y-16033811D01*
X23901481Y-16033811D02*
X23882433Y-16062383D01*
X23882433Y-16062383D02*
X23872909Y-16100478D01*
X23872909Y-16100478D02*
X23872909Y-16176668D01*
X23872909Y-16176668D02*
X23882433Y-16195716D01*
X23882433Y-16195716D02*
X23891957Y-16205240D01*
X23891957Y-16205240D02*
X23911005Y-16214764D01*
X23911005Y-16214764D02*
X23949100Y-16214764D01*
X23949100Y-16214764D02*
X23968148Y-16205240D01*
X23968148Y-16205240D02*
X23977671Y-16195716D01*
X23977671Y-16195716D02*
X23987195Y-16176668D01*
X23987195Y-16176668D02*
X23987195Y-16129049D01*
X23987195Y-16129049D02*
X23977671Y-16110002D01*
X23977671Y-16110002D02*
X23968148Y-16100478D01*
X23968148Y-16100478D02*
X23949100Y-16090954D01*
X23949100Y-16090954D02*
X23911005Y-16090954D01*
X23911005Y-16090954D02*
X23891957Y-16100478D01*
X23891957Y-16100478D02*
X23882433Y-16110002D01*
X23882433Y-16110002D02*
X23872909Y-16129049D01*
X24225290Y-16214764D02*
X24225290Y-16014764D01*
X24311005Y-16214764D02*
X24311005Y-16110002D01*
X24311005Y-16110002D02*
X24301481Y-16090954D01*
X24301481Y-16090954D02*
X24282433Y-16081430D01*
X24282433Y-16081430D02*
X24253862Y-16081430D01*
X24253862Y-16081430D02*
X24234814Y-16090954D01*
X24234814Y-16090954D02*
X24225290Y-16100478D01*
X24434814Y-16214764D02*
X24415767Y-16205240D01*
X24415767Y-16205240D02*
X24406243Y-16195716D01*
X24406243Y-16195716D02*
X24396719Y-16176668D01*
X24396719Y-16176668D02*
X24396719Y-16119526D01*
X24396719Y-16119526D02*
X24406243Y-16100478D01*
X24406243Y-16100478D02*
X24415767Y-16090954D01*
X24415767Y-16090954D02*
X24434814Y-16081430D01*
X24434814Y-16081430D02*
X24463386Y-16081430D01*
X24463386Y-16081430D02*
X24482433Y-16090954D01*
X24482433Y-16090954D02*
X24491957Y-16100478D01*
X24491957Y-16100478D02*
X24501481Y-16119526D01*
X24501481Y-16119526D02*
X24501481Y-16176668D01*
X24501481Y-16176668D02*
X24491957Y-16195716D01*
X24491957Y-16195716D02*
X24482433Y-16205240D01*
X24482433Y-16205240D02*
X24463386Y-16214764D01*
X24463386Y-16214764D02*
X24434814Y-16214764D01*
X24615767Y-16214764D02*
X24596719Y-16205240D01*
X24596719Y-16205240D02*
X24587195Y-16186192D01*
X24587195Y-16186192D02*
X24587195Y-16014764D01*
X24768148Y-16205240D02*
X24749100Y-16214764D01*
X24749100Y-16214764D02*
X24711005Y-16214764D01*
X24711005Y-16214764D02*
X24691957Y-16205240D01*
X24691957Y-16205240D02*
X24682433Y-16186192D01*
X24682433Y-16186192D02*
X24682433Y-16110002D01*
X24682433Y-16110002D02*
X24691957Y-16090954D01*
X24691957Y-16090954D02*
X24711005Y-16081430D01*
X24711005Y-16081430D02*
X24749100Y-16081430D01*
X24749100Y-16081430D02*
X24768148Y-16090954D01*
X24768148Y-16090954D02*
X24777671Y-16110002D01*
X24777671Y-16110002D02*
X24777671Y-16129049D01*
X24777671Y-16129049D02*
X24682433Y-16148097D01*
X24853862Y-16205240D02*
X24872910Y-16214764D01*
X24872910Y-16214764D02*
X24911005Y-16214764D01*
X24911005Y-16214764D02*
X24930052Y-16205240D01*
X24930052Y-16205240D02*
X24939576Y-16186192D01*
X24939576Y-16186192D02*
X24939576Y-16176668D01*
X24939576Y-16176668D02*
X24930052Y-16157621D01*
X24930052Y-16157621D02*
X24911005Y-16148097D01*
X24911005Y-16148097D02*
X24882433Y-16148097D01*
X24882433Y-16148097D02*
X24863386Y-16138573D01*
X24863386Y-16138573D02*
X24853862Y-16119526D01*
X24853862Y-16119526D02*
X24853862Y-16110002D01*
X24853862Y-16110002D02*
X24863386Y-16090954D01*
X24863386Y-16090954D02*
X24882433Y-16081430D01*
X24882433Y-16081430D02*
X24911005Y-16081430D01*
X24911005Y-16081430D02*
X24930052Y-16090954D01*
X25006243Y-16290954D02*
X25015767Y-16281430D01*
X25015767Y-16281430D02*
X25034814Y-16252859D01*
X25034814Y-16252859D02*
X25044338Y-16233811D01*
X25044338Y-16233811D02*
X25053862Y-16205240D01*
X25053862Y-16205240D02*
X25063386Y-16157621D01*
X25063386Y-16157621D02*
X25063386Y-16119526D01*
X25063386Y-16119526D02*
X25053862Y-16071907D01*
X25053862Y-16071907D02*
X25044338Y-16043335D01*
X25044338Y-16043335D02*
X25034814Y-16024288D01*
X25034814Y-16024288D02*
X25015767Y-15995716D01*
X25015767Y-15995716D02*
X25006243Y-15986192D01*
M02*
