G04 #@! TF.GenerationSoftware,KiCad,Pcbnew,7.0.8*
G04 #@! TF.CreationDate,2023-12-01T23:48:08-08:00*
G04 #@! TF.ProjectId,COMiX-Edge-Adapter-Slim,434f4d69-582d-4456-9467-652d41646170,rev?*
G04 #@! TF.SameCoordinates,Original*
G04 #@! TF.FileFunction,Legend,Bot*
G04 #@! TF.FilePolarity,Positive*
%FSLAX46Y46*%
G04 Gerber Fmt 4.6, Leading zero omitted, Abs format (unit mm)*
G04 Created by KiCad (PCBNEW 7.0.8) date 2023-12-01 23:48:08*
%MOMM*%
%LPD*%
G01*
G04 APERTURE LIST*
%ADD10C,0.150000*%
%ADD11C,1.400000*%
%ADD12O,1.400000X1.400000*%
%ADD13R,1.600000X1.600000*%
%ADD14O,1.600000X1.600000*%
%ADD15R,1.700000X1.700000*%
%ADD16O,1.700000X1.700000*%
%ADD17R,8.890000X1.397000*%
G04 APERTURE END LIST*
D10*
X228148992Y-133968580D02*
X228196611Y-134016200D01*
X228196611Y-134016200D02*
X228339468Y-134063819D01*
X228339468Y-134063819D02*
X228434706Y-134063819D01*
X228434706Y-134063819D02*
X228577563Y-134016200D01*
X228577563Y-134016200D02*
X228672801Y-133920961D01*
X228672801Y-133920961D02*
X228720420Y-133825723D01*
X228720420Y-133825723D02*
X228768039Y-133635247D01*
X228768039Y-133635247D02*
X228768039Y-133492390D01*
X228768039Y-133492390D02*
X228720420Y-133301914D01*
X228720420Y-133301914D02*
X228672801Y-133206676D01*
X228672801Y-133206676D02*
X228577563Y-133111438D01*
X228577563Y-133111438D02*
X228434706Y-133063819D01*
X228434706Y-133063819D02*
X228339468Y-133063819D01*
X228339468Y-133063819D02*
X228196611Y-133111438D01*
X228196611Y-133111438D02*
X228148992Y-133159057D01*
X227529944Y-133063819D02*
X227339468Y-133063819D01*
X227339468Y-133063819D02*
X227244230Y-133111438D01*
X227244230Y-133111438D02*
X227148992Y-133206676D01*
X227148992Y-133206676D02*
X227101373Y-133397152D01*
X227101373Y-133397152D02*
X227101373Y-133730485D01*
X227101373Y-133730485D02*
X227148992Y-133920961D01*
X227148992Y-133920961D02*
X227244230Y-134016200D01*
X227244230Y-134016200D02*
X227339468Y-134063819D01*
X227339468Y-134063819D02*
X227529944Y-134063819D01*
X227529944Y-134063819D02*
X227625182Y-134016200D01*
X227625182Y-134016200D02*
X227720420Y-133920961D01*
X227720420Y-133920961D02*
X227768039Y-133730485D01*
X227768039Y-133730485D02*
X227768039Y-133397152D01*
X227768039Y-133397152D02*
X227720420Y-133206676D01*
X227720420Y-133206676D02*
X227625182Y-133111438D01*
X227625182Y-133111438D02*
X227529944Y-133063819D01*
X226672801Y-134063819D02*
X226672801Y-133063819D01*
X226672801Y-133063819D02*
X226339468Y-133778104D01*
X226339468Y-133778104D02*
X226006135Y-133063819D01*
X226006135Y-133063819D02*
X226006135Y-134063819D01*
X225529944Y-134063819D02*
X225529944Y-133397152D01*
X225529944Y-133063819D02*
X225577563Y-133111438D01*
X225577563Y-133111438D02*
X225529944Y-133159057D01*
X225529944Y-133159057D02*
X225482325Y-133111438D01*
X225482325Y-133111438D02*
X225529944Y-133063819D01*
X225529944Y-133063819D02*
X225529944Y-133159057D01*
X225148992Y-133063819D02*
X224482326Y-134063819D01*
X224482326Y-133063819D02*
X225148992Y-134063819D01*
X223339468Y-134063819D02*
X223339468Y-133063819D01*
X223339468Y-133540009D02*
X222768040Y-133540009D01*
X222768040Y-134063819D02*
X222768040Y-133063819D01*
X222291849Y-134063819D02*
X222291849Y-133397152D01*
X222291849Y-133063819D02*
X222339468Y-133111438D01*
X222339468Y-133111438D02*
X222291849Y-133159057D01*
X222291849Y-133159057D02*
X222244230Y-133111438D01*
X222244230Y-133111438D02*
X222291849Y-133063819D01*
X222291849Y-133063819D02*
X222291849Y-133159057D01*
X221387088Y-133397152D02*
X221387088Y-134206676D01*
X221387088Y-134206676D02*
X221434707Y-134301914D01*
X221434707Y-134301914D02*
X221482326Y-134349533D01*
X221482326Y-134349533D02*
X221577564Y-134397152D01*
X221577564Y-134397152D02*
X221720421Y-134397152D01*
X221720421Y-134397152D02*
X221815659Y-134349533D01*
X221387088Y-134016200D02*
X221482326Y-134063819D01*
X221482326Y-134063819D02*
X221672802Y-134063819D01*
X221672802Y-134063819D02*
X221768040Y-134016200D01*
X221768040Y-134016200D02*
X221815659Y-133968580D01*
X221815659Y-133968580D02*
X221863278Y-133873342D01*
X221863278Y-133873342D02*
X221863278Y-133587628D01*
X221863278Y-133587628D02*
X221815659Y-133492390D01*
X221815659Y-133492390D02*
X221768040Y-133444771D01*
X221768040Y-133444771D02*
X221672802Y-133397152D01*
X221672802Y-133397152D02*
X221482326Y-133397152D01*
X221482326Y-133397152D02*
X221387088Y-133444771D01*
X220910897Y-134063819D02*
X220910897Y-133063819D01*
X220482326Y-134063819D02*
X220482326Y-133540009D01*
X220482326Y-133540009D02*
X220529945Y-133444771D01*
X220529945Y-133444771D02*
X220625183Y-133397152D01*
X220625183Y-133397152D02*
X220768040Y-133397152D01*
X220768040Y-133397152D02*
X220863278Y-133444771D01*
X220863278Y-133444771D02*
X220910897Y-133492390D01*
X228768039Y-135626200D02*
X228625182Y-135673819D01*
X228625182Y-135673819D02*
X228387087Y-135673819D01*
X228387087Y-135673819D02*
X228291849Y-135626200D01*
X228291849Y-135626200D02*
X228244230Y-135578580D01*
X228244230Y-135578580D02*
X228196611Y-135483342D01*
X228196611Y-135483342D02*
X228196611Y-135388104D01*
X228196611Y-135388104D02*
X228244230Y-135292866D01*
X228244230Y-135292866D02*
X228291849Y-135245247D01*
X228291849Y-135245247D02*
X228387087Y-135197628D01*
X228387087Y-135197628D02*
X228577563Y-135150009D01*
X228577563Y-135150009D02*
X228672801Y-135102390D01*
X228672801Y-135102390D02*
X228720420Y-135054771D01*
X228720420Y-135054771D02*
X228768039Y-134959533D01*
X228768039Y-134959533D02*
X228768039Y-134864295D01*
X228768039Y-134864295D02*
X228720420Y-134769057D01*
X228720420Y-134769057D02*
X228672801Y-134721438D01*
X228672801Y-134721438D02*
X228577563Y-134673819D01*
X228577563Y-134673819D02*
X228339468Y-134673819D01*
X228339468Y-134673819D02*
X228196611Y-134721438D01*
X227768039Y-135007152D02*
X227768039Y-136007152D01*
X227768039Y-135054771D02*
X227672801Y-135007152D01*
X227672801Y-135007152D02*
X227482325Y-135007152D01*
X227482325Y-135007152D02*
X227387087Y-135054771D01*
X227387087Y-135054771D02*
X227339468Y-135102390D01*
X227339468Y-135102390D02*
X227291849Y-135197628D01*
X227291849Y-135197628D02*
X227291849Y-135483342D01*
X227291849Y-135483342D02*
X227339468Y-135578580D01*
X227339468Y-135578580D02*
X227387087Y-135626200D01*
X227387087Y-135626200D02*
X227482325Y-135673819D01*
X227482325Y-135673819D02*
X227672801Y-135673819D01*
X227672801Y-135673819D02*
X227768039Y-135626200D01*
X226482325Y-135626200D02*
X226577563Y-135673819D01*
X226577563Y-135673819D02*
X226768039Y-135673819D01*
X226768039Y-135673819D02*
X226863277Y-135626200D01*
X226863277Y-135626200D02*
X226910896Y-135530961D01*
X226910896Y-135530961D02*
X226910896Y-135150009D01*
X226910896Y-135150009D02*
X226863277Y-135054771D01*
X226863277Y-135054771D02*
X226768039Y-135007152D01*
X226768039Y-135007152D02*
X226577563Y-135007152D01*
X226577563Y-135007152D02*
X226482325Y-135054771D01*
X226482325Y-135054771D02*
X226434706Y-135150009D01*
X226434706Y-135150009D02*
X226434706Y-135245247D01*
X226434706Y-135245247D02*
X226910896Y-135340485D01*
X225625182Y-135626200D02*
X225720420Y-135673819D01*
X225720420Y-135673819D02*
X225910896Y-135673819D01*
X225910896Y-135673819D02*
X226006134Y-135626200D01*
X226006134Y-135626200D02*
X226053753Y-135530961D01*
X226053753Y-135530961D02*
X226053753Y-135150009D01*
X226053753Y-135150009D02*
X226006134Y-135054771D01*
X226006134Y-135054771D02*
X225910896Y-135007152D01*
X225910896Y-135007152D02*
X225720420Y-135007152D01*
X225720420Y-135007152D02*
X225625182Y-135054771D01*
X225625182Y-135054771D02*
X225577563Y-135150009D01*
X225577563Y-135150009D02*
X225577563Y-135245247D01*
X225577563Y-135245247D02*
X226053753Y-135340485D01*
X224720420Y-135673819D02*
X224720420Y-134673819D01*
X224720420Y-135626200D02*
X224815658Y-135673819D01*
X224815658Y-135673819D02*
X225006134Y-135673819D01*
X225006134Y-135673819D02*
X225101372Y-135626200D01*
X225101372Y-135626200D02*
X225148991Y-135578580D01*
X225148991Y-135578580D02*
X225196610Y-135483342D01*
X225196610Y-135483342D02*
X225196610Y-135197628D01*
X225196610Y-135197628D02*
X225148991Y-135102390D01*
X225148991Y-135102390D02*
X225101372Y-135054771D01*
X225101372Y-135054771D02*
X225006134Y-135007152D01*
X225006134Y-135007152D02*
X224815658Y-135007152D01*
X224815658Y-135007152D02*
X224720420Y-135054771D01*
X223482324Y-135673819D02*
X223482324Y-134673819D01*
X223482324Y-134673819D02*
X223244229Y-134673819D01*
X223244229Y-134673819D02*
X223101372Y-134721438D01*
X223101372Y-134721438D02*
X223006134Y-134816676D01*
X223006134Y-134816676D02*
X222958515Y-134911914D01*
X222958515Y-134911914D02*
X222910896Y-135102390D01*
X222910896Y-135102390D02*
X222910896Y-135245247D01*
X222910896Y-135245247D02*
X222958515Y-135435723D01*
X222958515Y-135435723D02*
X223006134Y-135530961D01*
X223006134Y-135530961D02*
X223101372Y-135626200D01*
X223101372Y-135626200D02*
X223244229Y-135673819D01*
X223244229Y-135673819D02*
X223482324Y-135673819D01*
X222482324Y-135673819D02*
X222482324Y-135007152D01*
X222482324Y-134673819D02*
X222529943Y-134721438D01*
X222529943Y-134721438D02*
X222482324Y-134769057D01*
X222482324Y-134769057D02*
X222434705Y-134721438D01*
X222434705Y-134721438D02*
X222482324Y-134673819D01*
X222482324Y-134673819D02*
X222482324Y-134769057D01*
X222006134Y-135673819D02*
X222006134Y-135007152D01*
X222006134Y-135197628D02*
X221958515Y-135102390D01*
X221958515Y-135102390D02*
X221910896Y-135054771D01*
X221910896Y-135054771D02*
X221815658Y-135007152D01*
X221815658Y-135007152D02*
X221720420Y-135007152D01*
X221006134Y-135626200D02*
X221101372Y-135673819D01*
X221101372Y-135673819D02*
X221291848Y-135673819D01*
X221291848Y-135673819D02*
X221387086Y-135626200D01*
X221387086Y-135626200D02*
X221434705Y-135530961D01*
X221434705Y-135530961D02*
X221434705Y-135150009D01*
X221434705Y-135150009D02*
X221387086Y-135054771D01*
X221387086Y-135054771D02*
X221291848Y-135007152D01*
X221291848Y-135007152D02*
X221101372Y-135007152D01*
X221101372Y-135007152D02*
X221006134Y-135054771D01*
X221006134Y-135054771D02*
X220958515Y-135150009D01*
X220958515Y-135150009D02*
X220958515Y-135245247D01*
X220958515Y-135245247D02*
X221434705Y-135340485D01*
X220101372Y-135626200D02*
X220196610Y-135673819D01*
X220196610Y-135673819D02*
X220387086Y-135673819D01*
X220387086Y-135673819D02*
X220482324Y-135626200D01*
X220482324Y-135626200D02*
X220529943Y-135578580D01*
X220529943Y-135578580D02*
X220577562Y-135483342D01*
X220577562Y-135483342D02*
X220577562Y-135197628D01*
X220577562Y-135197628D02*
X220529943Y-135102390D01*
X220529943Y-135102390D02*
X220482324Y-135054771D01*
X220482324Y-135054771D02*
X220387086Y-135007152D01*
X220387086Y-135007152D02*
X220196610Y-135007152D01*
X220196610Y-135007152D02*
X220101372Y-135054771D01*
X219815657Y-135007152D02*
X219434705Y-135007152D01*
X219672800Y-134673819D02*
X219672800Y-135530961D01*
X219672800Y-135530961D02*
X219625181Y-135626200D01*
X219625181Y-135626200D02*
X219529943Y-135673819D01*
X219529943Y-135673819D02*
X219434705Y-135673819D01*
X228148992Y-137188580D02*
X228196611Y-137236200D01*
X228196611Y-137236200D02*
X228339468Y-137283819D01*
X228339468Y-137283819D02*
X228434706Y-137283819D01*
X228434706Y-137283819D02*
X228577563Y-137236200D01*
X228577563Y-137236200D02*
X228672801Y-137140961D01*
X228672801Y-137140961D02*
X228720420Y-137045723D01*
X228720420Y-137045723D02*
X228768039Y-136855247D01*
X228768039Y-136855247D02*
X228768039Y-136712390D01*
X228768039Y-136712390D02*
X228720420Y-136521914D01*
X228720420Y-136521914D02*
X228672801Y-136426676D01*
X228672801Y-136426676D02*
X228577563Y-136331438D01*
X228577563Y-136331438D02*
X228434706Y-136283819D01*
X228434706Y-136283819D02*
X228339468Y-136283819D01*
X228339468Y-136283819D02*
X228196611Y-136331438D01*
X228196611Y-136331438D02*
X228148992Y-136379057D01*
X227577563Y-137283819D02*
X227672801Y-137236200D01*
X227672801Y-137236200D02*
X227720420Y-137188580D01*
X227720420Y-137188580D02*
X227768039Y-137093342D01*
X227768039Y-137093342D02*
X227768039Y-136807628D01*
X227768039Y-136807628D02*
X227720420Y-136712390D01*
X227720420Y-136712390D02*
X227672801Y-136664771D01*
X227672801Y-136664771D02*
X227577563Y-136617152D01*
X227577563Y-136617152D02*
X227434706Y-136617152D01*
X227434706Y-136617152D02*
X227339468Y-136664771D01*
X227339468Y-136664771D02*
X227291849Y-136712390D01*
X227291849Y-136712390D02*
X227244230Y-136807628D01*
X227244230Y-136807628D02*
X227244230Y-137093342D01*
X227244230Y-137093342D02*
X227291849Y-137188580D01*
X227291849Y-137188580D02*
X227339468Y-137236200D01*
X227339468Y-137236200D02*
X227434706Y-137283819D01*
X227434706Y-137283819D02*
X227577563Y-137283819D01*
X226815658Y-136617152D02*
X226815658Y-137283819D01*
X226815658Y-136712390D02*
X226768039Y-136664771D01*
X226768039Y-136664771D02*
X226672801Y-136617152D01*
X226672801Y-136617152D02*
X226529944Y-136617152D01*
X226529944Y-136617152D02*
X226434706Y-136664771D01*
X226434706Y-136664771D02*
X226387087Y-136760009D01*
X226387087Y-136760009D02*
X226387087Y-137283819D01*
X225910896Y-136617152D02*
X225910896Y-137283819D01*
X225910896Y-136712390D02*
X225863277Y-136664771D01*
X225863277Y-136664771D02*
X225768039Y-136617152D01*
X225768039Y-136617152D02*
X225625182Y-136617152D01*
X225625182Y-136617152D02*
X225529944Y-136664771D01*
X225529944Y-136664771D02*
X225482325Y-136760009D01*
X225482325Y-136760009D02*
X225482325Y-137283819D01*
X224625182Y-137236200D02*
X224720420Y-137283819D01*
X224720420Y-137283819D02*
X224910896Y-137283819D01*
X224910896Y-137283819D02*
X225006134Y-137236200D01*
X225006134Y-137236200D02*
X225053753Y-137140961D01*
X225053753Y-137140961D02*
X225053753Y-136760009D01*
X225053753Y-136760009D02*
X225006134Y-136664771D01*
X225006134Y-136664771D02*
X224910896Y-136617152D01*
X224910896Y-136617152D02*
X224720420Y-136617152D01*
X224720420Y-136617152D02*
X224625182Y-136664771D01*
X224625182Y-136664771D02*
X224577563Y-136760009D01*
X224577563Y-136760009D02*
X224577563Y-136855247D01*
X224577563Y-136855247D02*
X225053753Y-136950485D01*
X223720420Y-137236200D02*
X223815658Y-137283819D01*
X223815658Y-137283819D02*
X224006134Y-137283819D01*
X224006134Y-137283819D02*
X224101372Y-137236200D01*
X224101372Y-137236200D02*
X224148991Y-137188580D01*
X224148991Y-137188580D02*
X224196610Y-137093342D01*
X224196610Y-137093342D02*
X224196610Y-136807628D01*
X224196610Y-136807628D02*
X224148991Y-136712390D01*
X224148991Y-136712390D02*
X224101372Y-136664771D01*
X224101372Y-136664771D02*
X224006134Y-136617152D01*
X224006134Y-136617152D02*
X223815658Y-136617152D01*
X223815658Y-136617152D02*
X223720420Y-136664771D01*
X223434705Y-136617152D02*
X223053753Y-136617152D01*
X223291848Y-136283819D02*
X223291848Y-137140961D01*
X223291848Y-137140961D02*
X223244229Y-137236200D01*
X223244229Y-137236200D02*
X223148991Y-137283819D01*
X223148991Y-137283819D02*
X223053753Y-137283819D01*
X222720419Y-137283819D02*
X222720419Y-136617152D01*
X222720419Y-136283819D02*
X222768038Y-136331438D01*
X222768038Y-136331438D02*
X222720419Y-136379057D01*
X222720419Y-136379057D02*
X222672800Y-136331438D01*
X222672800Y-136331438D02*
X222720419Y-136283819D01*
X222720419Y-136283819D02*
X222720419Y-136379057D01*
X222101372Y-137283819D02*
X222196610Y-137236200D01*
X222196610Y-137236200D02*
X222244229Y-137188580D01*
X222244229Y-137188580D02*
X222291848Y-137093342D01*
X222291848Y-137093342D02*
X222291848Y-136807628D01*
X222291848Y-136807628D02*
X222244229Y-136712390D01*
X222244229Y-136712390D02*
X222196610Y-136664771D01*
X222196610Y-136664771D02*
X222101372Y-136617152D01*
X222101372Y-136617152D02*
X221958515Y-136617152D01*
X221958515Y-136617152D02*
X221863277Y-136664771D01*
X221863277Y-136664771D02*
X221815658Y-136712390D01*
X221815658Y-136712390D02*
X221768039Y-136807628D01*
X221768039Y-136807628D02*
X221768039Y-137093342D01*
X221768039Y-137093342D02*
X221815658Y-137188580D01*
X221815658Y-137188580D02*
X221863277Y-137236200D01*
X221863277Y-137236200D02*
X221958515Y-137283819D01*
X221958515Y-137283819D02*
X222101372Y-137283819D01*
X221339467Y-136617152D02*
X221339467Y-137283819D01*
X221339467Y-136712390D02*
X221291848Y-136664771D01*
X221291848Y-136664771D02*
X221196610Y-136617152D01*
X221196610Y-136617152D02*
X221053753Y-136617152D01*
X221053753Y-136617152D02*
X220958515Y-136664771D01*
X220958515Y-136664771D02*
X220910896Y-136760009D01*
X220910896Y-136760009D02*
X220910896Y-137283819D01*
X219720419Y-136998104D02*
X219244229Y-136998104D01*
X219815657Y-137283819D02*
X219482324Y-136283819D01*
X219482324Y-136283819D02*
X219148991Y-137283819D01*
X218387086Y-137283819D02*
X218387086Y-136283819D01*
X218387086Y-137236200D02*
X218482324Y-137283819D01*
X218482324Y-137283819D02*
X218672800Y-137283819D01*
X218672800Y-137283819D02*
X218768038Y-137236200D01*
X218768038Y-137236200D02*
X218815657Y-137188580D01*
X218815657Y-137188580D02*
X218863276Y-137093342D01*
X218863276Y-137093342D02*
X218863276Y-136807628D01*
X218863276Y-136807628D02*
X218815657Y-136712390D01*
X218815657Y-136712390D02*
X218768038Y-136664771D01*
X218768038Y-136664771D02*
X218672800Y-136617152D01*
X218672800Y-136617152D02*
X218482324Y-136617152D01*
X218482324Y-136617152D02*
X218387086Y-136664771D01*
X217482324Y-137283819D02*
X217482324Y-136760009D01*
X217482324Y-136760009D02*
X217529943Y-136664771D01*
X217529943Y-136664771D02*
X217625181Y-136617152D01*
X217625181Y-136617152D02*
X217815657Y-136617152D01*
X217815657Y-136617152D02*
X217910895Y-136664771D01*
X217482324Y-137236200D02*
X217577562Y-137283819D01*
X217577562Y-137283819D02*
X217815657Y-137283819D01*
X217815657Y-137283819D02*
X217910895Y-137236200D01*
X217910895Y-137236200D02*
X217958514Y-137140961D01*
X217958514Y-137140961D02*
X217958514Y-137045723D01*
X217958514Y-137045723D02*
X217910895Y-136950485D01*
X217910895Y-136950485D02*
X217815657Y-136902866D01*
X217815657Y-136902866D02*
X217577562Y-136902866D01*
X217577562Y-136902866D02*
X217482324Y-136855247D01*
X217006133Y-136617152D02*
X217006133Y-137617152D01*
X217006133Y-136664771D02*
X216910895Y-136617152D01*
X216910895Y-136617152D02*
X216720419Y-136617152D01*
X216720419Y-136617152D02*
X216625181Y-136664771D01*
X216625181Y-136664771D02*
X216577562Y-136712390D01*
X216577562Y-136712390D02*
X216529943Y-136807628D01*
X216529943Y-136807628D02*
X216529943Y-137093342D01*
X216529943Y-137093342D02*
X216577562Y-137188580D01*
X216577562Y-137188580D02*
X216625181Y-137236200D01*
X216625181Y-137236200D02*
X216720419Y-137283819D01*
X216720419Y-137283819D02*
X216910895Y-137283819D01*
X216910895Y-137283819D02*
X217006133Y-137236200D01*
X216244228Y-136617152D02*
X215863276Y-136617152D01*
X216101371Y-136283819D02*
X216101371Y-137140961D01*
X216101371Y-137140961D02*
X216053752Y-137236200D01*
X216053752Y-137236200D02*
X215958514Y-137283819D01*
X215958514Y-137283819D02*
X215863276Y-137283819D01*
X215148990Y-137236200D02*
X215244228Y-137283819D01*
X215244228Y-137283819D02*
X215434704Y-137283819D01*
X215434704Y-137283819D02*
X215529942Y-137236200D01*
X215529942Y-137236200D02*
X215577561Y-137140961D01*
X215577561Y-137140961D02*
X215577561Y-136760009D01*
X215577561Y-136760009D02*
X215529942Y-136664771D01*
X215529942Y-136664771D02*
X215434704Y-136617152D01*
X215434704Y-136617152D02*
X215244228Y-136617152D01*
X215244228Y-136617152D02*
X215148990Y-136664771D01*
X215148990Y-136664771D02*
X215101371Y-136760009D01*
X215101371Y-136760009D02*
X215101371Y-136855247D01*
X215101371Y-136855247D02*
X215577561Y-136950485D01*
X214672799Y-137283819D02*
X214672799Y-136617152D01*
X214672799Y-136807628D02*
X214625180Y-136712390D01*
X214625180Y-136712390D02*
X214577561Y-136664771D01*
X214577561Y-136664771D02*
X214482323Y-136617152D01*
X214482323Y-136617152D02*
X214387085Y-136617152D01*
X228793439Y-138949904D02*
X228317249Y-138949904D01*
X228888677Y-139235619D02*
X228555344Y-138235619D01*
X228555344Y-138235619D02*
X228222011Y-139235619D01*
X227888677Y-138568952D02*
X227888677Y-139235619D01*
X227888677Y-138664190D02*
X227841058Y-138616571D01*
X227841058Y-138616571D02*
X227745820Y-138568952D01*
X227745820Y-138568952D02*
X227602963Y-138568952D01*
X227602963Y-138568952D02*
X227507725Y-138616571D01*
X227507725Y-138616571D02*
X227460106Y-138711809D01*
X227460106Y-138711809D02*
X227460106Y-139235619D01*
X226555344Y-139235619D02*
X226555344Y-138235619D01*
X226555344Y-139188000D02*
X226650582Y-139235619D01*
X226650582Y-139235619D02*
X226841058Y-139235619D01*
X226841058Y-139235619D02*
X226936296Y-139188000D01*
X226936296Y-139188000D02*
X226983915Y-139140380D01*
X226983915Y-139140380D02*
X227031534Y-139045142D01*
X227031534Y-139045142D02*
X227031534Y-138759428D01*
X227031534Y-138759428D02*
X226983915Y-138664190D01*
X226983915Y-138664190D02*
X226936296Y-138616571D01*
X226936296Y-138616571D02*
X226841058Y-138568952D01*
X226841058Y-138568952D02*
X226650582Y-138568952D01*
X226650582Y-138568952D02*
X226555344Y-138616571D01*
X226079153Y-139235619D02*
X226079153Y-138568952D01*
X226079153Y-138759428D02*
X226031534Y-138664190D01*
X226031534Y-138664190D02*
X225983915Y-138616571D01*
X225983915Y-138616571D02*
X225888677Y-138568952D01*
X225888677Y-138568952D02*
X225793439Y-138568952D01*
X225079153Y-139188000D02*
X225174391Y-139235619D01*
X225174391Y-139235619D02*
X225364867Y-139235619D01*
X225364867Y-139235619D02*
X225460105Y-139188000D01*
X225460105Y-139188000D02*
X225507724Y-139092761D01*
X225507724Y-139092761D02*
X225507724Y-138711809D01*
X225507724Y-138711809D02*
X225460105Y-138616571D01*
X225460105Y-138616571D02*
X225364867Y-138568952D01*
X225364867Y-138568952D02*
X225174391Y-138568952D01*
X225174391Y-138568952D02*
X225079153Y-138616571D01*
X225079153Y-138616571D02*
X225031534Y-138711809D01*
X225031534Y-138711809D02*
X225031534Y-138807047D01*
X225031534Y-138807047D02*
X225507724Y-138902285D01*
X224698200Y-138568952D02*
X224507724Y-139235619D01*
X224507724Y-139235619D02*
X224317248Y-138759428D01*
X224317248Y-138759428D02*
X224126772Y-139235619D01*
X224126772Y-139235619D02*
X223936296Y-138568952D01*
X222888676Y-138235619D02*
X222650581Y-139235619D01*
X222650581Y-139235619D02*
X222460105Y-138521333D01*
X222460105Y-138521333D02*
X222269629Y-139235619D01*
X222269629Y-139235619D02*
X222031534Y-138235619D01*
X221222010Y-139235619D02*
X221222010Y-138711809D01*
X221222010Y-138711809D02*
X221269629Y-138616571D01*
X221269629Y-138616571D02*
X221364867Y-138568952D01*
X221364867Y-138568952D02*
X221555343Y-138568952D01*
X221555343Y-138568952D02*
X221650581Y-138616571D01*
X221222010Y-139188000D02*
X221317248Y-139235619D01*
X221317248Y-139235619D02*
X221555343Y-139235619D01*
X221555343Y-139235619D02*
X221650581Y-139188000D01*
X221650581Y-139188000D02*
X221698200Y-139092761D01*
X221698200Y-139092761D02*
X221698200Y-138997523D01*
X221698200Y-138997523D02*
X221650581Y-138902285D01*
X221650581Y-138902285D02*
X221555343Y-138854666D01*
X221555343Y-138854666D02*
X221317248Y-138854666D01*
X221317248Y-138854666D02*
X221222010Y-138807047D01*
X220793438Y-139188000D02*
X220698200Y-139235619D01*
X220698200Y-139235619D02*
X220507724Y-139235619D01*
X220507724Y-139235619D02*
X220412486Y-139188000D01*
X220412486Y-139188000D02*
X220364867Y-139092761D01*
X220364867Y-139092761D02*
X220364867Y-139045142D01*
X220364867Y-139045142D02*
X220412486Y-138949904D01*
X220412486Y-138949904D02*
X220507724Y-138902285D01*
X220507724Y-138902285D02*
X220650581Y-138902285D01*
X220650581Y-138902285D02*
X220745819Y-138854666D01*
X220745819Y-138854666D02*
X220793438Y-138759428D01*
X220793438Y-138759428D02*
X220793438Y-138711809D01*
X220793438Y-138711809D02*
X220745819Y-138616571D01*
X220745819Y-138616571D02*
X220650581Y-138568952D01*
X220650581Y-138568952D02*
X220507724Y-138568952D01*
X220507724Y-138568952D02*
X220412486Y-138616571D01*
X219983914Y-139188000D02*
X219888676Y-139235619D01*
X219888676Y-139235619D02*
X219698200Y-139235619D01*
X219698200Y-139235619D02*
X219602962Y-139188000D01*
X219602962Y-139188000D02*
X219555343Y-139092761D01*
X219555343Y-139092761D02*
X219555343Y-139045142D01*
X219555343Y-139045142D02*
X219602962Y-138949904D01*
X219602962Y-138949904D02*
X219698200Y-138902285D01*
X219698200Y-138902285D02*
X219841057Y-138902285D01*
X219841057Y-138902285D02*
X219936295Y-138854666D01*
X219936295Y-138854666D02*
X219983914Y-138759428D01*
X219983914Y-138759428D02*
X219983914Y-138711809D01*
X219983914Y-138711809D02*
X219936295Y-138616571D01*
X219936295Y-138616571D02*
X219841057Y-138568952D01*
X219841057Y-138568952D02*
X219698200Y-138568952D01*
X219698200Y-138568952D02*
X219602962Y-138616571D01*
X218983914Y-139235619D02*
X219079152Y-139188000D01*
X219079152Y-139188000D02*
X219126771Y-139140380D01*
X219126771Y-139140380D02*
X219174390Y-139045142D01*
X219174390Y-139045142D02*
X219174390Y-138759428D01*
X219174390Y-138759428D02*
X219126771Y-138664190D01*
X219126771Y-138664190D02*
X219079152Y-138616571D01*
X219079152Y-138616571D02*
X218983914Y-138568952D01*
X218983914Y-138568952D02*
X218841057Y-138568952D01*
X218841057Y-138568952D02*
X218745819Y-138616571D01*
X218745819Y-138616571D02*
X218698200Y-138664190D01*
X218698200Y-138664190D02*
X218650581Y-138759428D01*
X218650581Y-138759428D02*
X218650581Y-139045142D01*
X218650581Y-139045142D02*
X218698200Y-139140380D01*
X218698200Y-139140380D02*
X218745819Y-139188000D01*
X218745819Y-139188000D02*
X218841057Y-139235619D01*
X218841057Y-139235619D02*
X218983914Y-139235619D01*
X218222009Y-138568952D02*
X218222009Y-139235619D01*
X218222009Y-138664190D02*
X218174390Y-138616571D01*
X218174390Y-138616571D02*
X218079152Y-138568952D01*
X218079152Y-138568952D02*
X217936295Y-138568952D01*
X217936295Y-138568952D02*
X217841057Y-138616571D01*
X217841057Y-138616571D02*
X217793438Y-138711809D01*
X217793438Y-138711809D02*
X217793438Y-139235619D01*
X228745820Y-140845619D02*
X228745820Y-139845619D01*
X228745820Y-139845619D02*
X228412487Y-140559904D01*
X228412487Y-140559904D02*
X228079154Y-139845619D01*
X228079154Y-139845619D02*
X228079154Y-140845619D01*
X227174392Y-140845619D02*
X227174392Y-140321809D01*
X227174392Y-140321809D02*
X227222011Y-140226571D01*
X227222011Y-140226571D02*
X227317249Y-140178952D01*
X227317249Y-140178952D02*
X227507725Y-140178952D01*
X227507725Y-140178952D02*
X227602963Y-140226571D01*
X227174392Y-140798000D02*
X227269630Y-140845619D01*
X227269630Y-140845619D02*
X227507725Y-140845619D01*
X227507725Y-140845619D02*
X227602963Y-140798000D01*
X227602963Y-140798000D02*
X227650582Y-140702761D01*
X227650582Y-140702761D02*
X227650582Y-140607523D01*
X227650582Y-140607523D02*
X227602963Y-140512285D01*
X227602963Y-140512285D02*
X227507725Y-140464666D01*
X227507725Y-140464666D02*
X227269630Y-140464666D01*
X227269630Y-140464666D02*
X227174392Y-140417047D01*
X226698201Y-140845619D02*
X226698201Y-140178952D01*
X226698201Y-140369428D02*
X226650582Y-140274190D01*
X226650582Y-140274190D02*
X226602963Y-140226571D01*
X226602963Y-140226571D02*
X226507725Y-140178952D01*
X226507725Y-140178952D02*
X226412487Y-140178952D01*
X225650582Y-140798000D02*
X225745820Y-140845619D01*
X225745820Y-140845619D02*
X225936296Y-140845619D01*
X225936296Y-140845619D02*
X226031534Y-140798000D01*
X226031534Y-140798000D02*
X226079153Y-140750380D01*
X226079153Y-140750380D02*
X226126772Y-140655142D01*
X226126772Y-140655142D02*
X226126772Y-140369428D01*
X226126772Y-140369428D02*
X226079153Y-140274190D01*
X226079153Y-140274190D02*
X226031534Y-140226571D01*
X226031534Y-140226571D02*
X225936296Y-140178952D01*
X225936296Y-140178952D02*
X225745820Y-140178952D01*
X225745820Y-140178952D02*
X225650582Y-140226571D01*
X224841058Y-140798000D02*
X224936296Y-140845619D01*
X224936296Y-140845619D02*
X225126772Y-140845619D01*
X225126772Y-140845619D02*
X225222010Y-140798000D01*
X225222010Y-140798000D02*
X225269629Y-140702761D01*
X225269629Y-140702761D02*
X225269629Y-140321809D01*
X225269629Y-140321809D02*
X225222010Y-140226571D01*
X225222010Y-140226571D02*
X225126772Y-140178952D01*
X225126772Y-140178952D02*
X224936296Y-140178952D01*
X224936296Y-140178952D02*
X224841058Y-140226571D01*
X224841058Y-140226571D02*
X224793439Y-140321809D01*
X224793439Y-140321809D02*
X224793439Y-140417047D01*
X224793439Y-140417047D02*
X225269629Y-140512285D01*
X224222010Y-140845619D02*
X224317248Y-140798000D01*
X224317248Y-140798000D02*
X224364867Y-140702761D01*
X224364867Y-140702761D02*
X224364867Y-139845619D01*
X223222009Y-139845619D02*
X222888676Y-140845619D01*
X222888676Y-140845619D02*
X222555343Y-139845619D01*
X221793438Y-140845619D02*
X221793438Y-140321809D01*
X221793438Y-140321809D02*
X221841057Y-140226571D01*
X221841057Y-140226571D02*
X221936295Y-140178952D01*
X221936295Y-140178952D02*
X222126771Y-140178952D01*
X222126771Y-140178952D02*
X222222009Y-140226571D01*
X221793438Y-140798000D02*
X221888676Y-140845619D01*
X221888676Y-140845619D02*
X222126771Y-140845619D01*
X222126771Y-140845619D02*
X222222009Y-140798000D01*
X222222009Y-140798000D02*
X222269628Y-140702761D01*
X222269628Y-140702761D02*
X222269628Y-140607523D01*
X222269628Y-140607523D02*
X222222009Y-140512285D01*
X222222009Y-140512285D02*
X222126771Y-140464666D01*
X222126771Y-140464666D02*
X221888676Y-140464666D01*
X221888676Y-140464666D02*
X221793438Y-140417047D01*
X221317247Y-140178952D02*
X221317247Y-140845619D01*
X221317247Y-140274190D02*
X221269628Y-140226571D01*
X221269628Y-140226571D02*
X221174390Y-140178952D01*
X221174390Y-140178952D02*
X221031533Y-140178952D01*
X221031533Y-140178952D02*
X220936295Y-140226571D01*
X220936295Y-140226571D02*
X220888676Y-140321809D01*
X220888676Y-140321809D02*
X220888676Y-140845619D01*
X219793437Y-139845619D02*
X219222009Y-139845619D01*
X219507723Y-140845619D02*
X219507723Y-139845619D01*
X218745818Y-140845619D02*
X218841056Y-140798000D01*
X218841056Y-140798000D02*
X218888675Y-140750380D01*
X218888675Y-140750380D02*
X218936294Y-140655142D01*
X218936294Y-140655142D02*
X218936294Y-140369428D01*
X218936294Y-140369428D02*
X218888675Y-140274190D01*
X218888675Y-140274190D02*
X218841056Y-140226571D01*
X218841056Y-140226571D02*
X218745818Y-140178952D01*
X218745818Y-140178952D02*
X218602961Y-140178952D01*
X218602961Y-140178952D02*
X218507723Y-140226571D01*
X218507723Y-140226571D02*
X218460104Y-140274190D01*
X218460104Y-140274190D02*
X218412485Y-140369428D01*
X218412485Y-140369428D02*
X218412485Y-140655142D01*
X218412485Y-140655142D02*
X218460104Y-140750380D01*
X218460104Y-140750380D02*
X218507723Y-140798000D01*
X218507723Y-140798000D02*
X218602961Y-140845619D01*
X218602961Y-140845619D02*
X218745818Y-140845619D01*
X217983913Y-140178952D02*
X217983913Y-140845619D01*
X217983913Y-140274190D02*
X217936294Y-140226571D01*
X217936294Y-140226571D02*
X217841056Y-140178952D01*
X217841056Y-140178952D02*
X217698199Y-140178952D01*
X217698199Y-140178952D02*
X217602961Y-140226571D01*
X217602961Y-140226571D02*
X217555342Y-140321809D01*
X217555342Y-140321809D02*
X217555342Y-140845619D01*
X216650580Y-140178952D02*
X216650580Y-140988476D01*
X216650580Y-140988476D02*
X216698199Y-141083714D01*
X216698199Y-141083714D02*
X216745818Y-141131333D01*
X216745818Y-141131333D02*
X216841056Y-141178952D01*
X216841056Y-141178952D02*
X216983913Y-141178952D01*
X216983913Y-141178952D02*
X217079151Y-141131333D01*
X216650580Y-140798000D02*
X216745818Y-140845619D01*
X216745818Y-140845619D02*
X216936294Y-140845619D01*
X216936294Y-140845619D02*
X217031532Y-140798000D01*
X217031532Y-140798000D02*
X217079151Y-140750380D01*
X217079151Y-140750380D02*
X217126770Y-140655142D01*
X217126770Y-140655142D02*
X217126770Y-140369428D01*
X217126770Y-140369428D02*
X217079151Y-140274190D01*
X217079151Y-140274190D02*
X217031532Y-140226571D01*
X217031532Y-140226571D02*
X216936294Y-140178952D01*
X216936294Y-140178952D02*
X216745818Y-140178952D01*
X216745818Y-140178952D02*
X216650580Y-140226571D01*
X215793437Y-140798000D02*
X215888675Y-140845619D01*
X215888675Y-140845619D02*
X216079151Y-140845619D01*
X216079151Y-140845619D02*
X216174389Y-140798000D01*
X216174389Y-140798000D02*
X216222008Y-140702761D01*
X216222008Y-140702761D02*
X216222008Y-140321809D01*
X216222008Y-140321809D02*
X216174389Y-140226571D01*
X216174389Y-140226571D02*
X216079151Y-140178952D01*
X216079151Y-140178952D02*
X215888675Y-140178952D01*
X215888675Y-140178952D02*
X215793437Y-140226571D01*
X215793437Y-140226571D02*
X215745818Y-140321809D01*
X215745818Y-140321809D02*
X215745818Y-140417047D01*
X215745818Y-140417047D02*
X216222008Y-140512285D01*
X215317246Y-140845619D02*
X215317246Y-140178952D01*
X215317246Y-140369428D02*
X215269627Y-140274190D01*
X215269627Y-140274190D02*
X215222008Y-140226571D01*
X215222008Y-140226571D02*
X215126770Y-140178952D01*
X215126770Y-140178952D02*
X215031532Y-140178952D01*
X214317246Y-140798000D02*
X214412484Y-140845619D01*
X214412484Y-140845619D02*
X214602960Y-140845619D01*
X214602960Y-140845619D02*
X214698198Y-140798000D01*
X214698198Y-140798000D02*
X214745817Y-140702761D01*
X214745817Y-140702761D02*
X214745817Y-140321809D01*
X214745817Y-140321809D02*
X214698198Y-140226571D01*
X214698198Y-140226571D02*
X214602960Y-140178952D01*
X214602960Y-140178952D02*
X214412484Y-140178952D01*
X214412484Y-140178952D02*
X214317246Y-140226571D01*
X214317246Y-140226571D02*
X214269627Y-140321809D01*
X214269627Y-140321809D02*
X214269627Y-140417047D01*
X214269627Y-140417047D02*
X214745817Y-140512285D01*
X213841055Y-140178952D02*
X213841055Y-140845619D01*
X213841055Y-140274190D02*
X213793436Y-140226571D01*
X213793436Y-140226571D02*
X213698198Y-140178952D01*
X213698198Y-140178952D02*
X213555341Y-140178952D01*
X213555341Y-140178952D02*
X213460103Y-140226571D01*
X213460103Y-140226571D02*
X213412484Y-140321809D01*
X213412484Y-140321809D02*
X213412484Y-140845619D01*
X228745820Y-142455619D02*
X228745820Y-141455619D01*
X228745820Y-141931809D02*
X228174392Y-141931809D01*
X228174392Y-142455619D02*
X228174392Y-141455619D01*
X227269630Y-142455619D02*
X227269630Y-141931809D01*
X227269630Y-141931809D02*
X227317249Y-141836571D01*
X227317249Y-141836571D02*
X227412487Y-141788952D01*
X227412487Y-141788952D02*
X227602963Y-141788952D01*
X227602963Y-141788952D02*
X227698201Y-141836571D01*
X227269630Y-142408000D02*
X227364868Y-142455619D01*
X227364868Y-142455619D02*
X227602963Y-142455619D01*
X227602963Y-142455619D02*
X227698201Y-142408000D01*
X227698201Y-142408000D02*
X227745820Y-142312761D01*
X227745820Y-142312761D02*
X227745820Y-142217523D01*
X227745820Y-142217523D02*
X227698201Y-142122285D01*
X227698201Y-142122285D02*
X227602963Y-142074666D01*
X227602963Y-142074666D02*
X227364868Y-142074666D01*
X227364868Y-142074666D02*
X227269630Y-142027047D01*
X226793439Y-141788952D02*
X226793439Y-142455619D01*
X226793439Y-141884190D02*
X226745820Y-141836571D01*
X226745820Y-141836571D02*
X226650582Y-141788952D01*
X226650582Y-141788952D02*
X226507725Y-141788952D01*
X226507725Y-141788952D02*
X226412487Y-141836571D01*
X226412487Y-141836571D02*
X226364868Y-141931809D01*
X226364868Y-141931809D02*
X226364868Y-142455619D01*
X225888677Y-142455619D02*
X225888677Y-141455619D01*
X225793439Y-142074666D02*
X225507725Y-142455619D01*
X225507725Y-141788952D02*
X225888677Y-142169904D01*
X223745820Y-142455619D02*
X224079153Y-141979428D01*
X224317248Y-142455619D02*
X224317248Y-141455619D01*
X224317248Y-141455619D02*
X223936296Y-141455619D01*
X223936296Y-141455619D02*
X223841058Y-141503238D01*
X223841058Y-141503238D02*
X223793439Y-141550857D01*
X223793439Y-141550857D02*
X223745820Y-141646095D01*
X223745820Y-141646095D02*
X223745820Y-141788952D01*
X223745820Y-141788952D02*
X223793439Y-141884190D01*
X223793439Y-141884190D02*
X223841058Y-141931809D01*
X223841058Y-141931809D02*
X223936296Y-141979428D01*
X223936296Y-141979428D02*
X224317248Y-141979428D01*
X223317248Y-142455619D02*
X223317248Y-141788952D01*
X223317248Y-141455619D02*
X223364867Y-141503238D01*
X223364867Y-141503238D02*
X223317248Y-141550857D01*
X223317248Y-141550857D02*
X223269629Y-141503238D01*
X223269629Y-141503238D02*
X223317248Y-141455619D01*
X223317248Y-141455619D02*
X223317248Y-141550857D01*
X222698201Y-142455619D02*
X222793439Y-142408000D01*
X222793439Y-142408000D02*
X222841058Y-142312761D01*
X222841058Y-142312761D02*
X222841058Y-141455619D01*
X221936296Y-142408000D02*
X222031534Y-142455619D01*
X222031534Y-142455619D02*
X222222010Y-142455619D01*
X222222010Y-142455619D02*
X222317248Y-142408000D01*
X222317248Y-142408000D02*
X222364867Y-142312761D01*
X222364867Y-142312761D02*
X222364867Y-141931809D01*
X222364867Y-141931809D02*
X222317248Y-141836571D01*
X222317248Y-141836571D02*
X222222010Y-141788952D01*
X222222010Y-141788952D02*
X222031534Y-141788952D01*
X222031534Y-141788952D02*
X221936296Y-141836571D01*
X221936296Y-141836571D02*
X221888677Y-141931809D01*
X221888677Y-141931809D02*
X221888677Y-142027047D01*
X221888677Y-142027047D02*
X222364867Y-142122285D01*
X221555343Y-141788952D02*
X221317248Y-142455619D01*
X221079153Y-141788952D02*
X221317248Y-142455619D01*
X221317248Y-142455619D02*
X221412486Y-142693714D01*
X221412486Y-142693714D02*
X221460105Y-142741333D01*
X221460105Y-142741333D02*
X221555343Y-142788952D01*
X228745820Y-144065619D02*
X228745820Y-143065619D01*
X228745820Y-143065619D02*
X228174392Y-144065619D01*
X228174392Y-144065619D02*
X228174392Y-143065619D01*
X227555344Y-144065619D02*
X227650582Y-144018000D01*
X227650582Y-144018000D02*
X227698201Y-143970380D01*
X227698201Y-143970380D02*
X227745820Y-143875142D01*
X227745820Y-143875142D02*
X227745820Y-143589428D01*
X227745820Y-143589428D02*
X227698201Y-143494190D01*
X227698201Y-143494190D02*
X227650582Y-143446571D01*
X227650582Y-143446571D02*
X227555344Y-143398952D01*
X227555344Y-143398952D02*
X227412487Y-143398952D01*
X227412487Y-143398952D02*
X227317249Y-143446571D01*
X227317249Y-143446571D02*
X227269630Y-143494190D01*
X227269630Y-143494190D02*
X227222011Y-143589428D01*
X227222011Y-143589428D02*
X227222011Y-143875142D01*
X227222011Y-143875142D02*
X227269630Y-143970380D01*
X227269630Y-143970380D02*
X227317249Y-144018000D01*
X227317249Y-144018000D02*
X227412487Y-144065619D01*
X227412487Y-144065619D02*
X227555344Y-144065619D01*
X226888677Y-143398952D02*
X226650582Y-144065619D01*
X226650582Y-144065619D02*
X226412487Y-143398952D01*
X225650582Y-144018000D02*
X225745820Y-144065619D01*
X225745820Y-144065619D02*
X225936296Y-144065619D01*
X225936296Y-144065619D02*
X226031534Y-144018000D01*
X226031534Y-144018000D02*
X226079153Y-143922761D01*
X226079153Y-143922761D02*
X226079153Y-143541809D01*
X226079153Y-143541809D02*
X226031534Y-143446571D01*
X226031534Y-143446571D02*
X225936296Y-143398952D01*
X225936296Y-143398952D02*
X225745820Y-143398952D01*
X225745820Y-143398952D02*
X225650582Y-143446571D01*
X225650582Y-143446571D02*
X225602963Y-143541809D01*
X225602963Y-143541809D02*
X225602963Y-143637047D01*
X225602963Y-143637047D02*
X226079153Y-143732285D01*
X225174391Y-144065619D02*
X225174391Y-143398952D01*
X225174391Y-143494190D02*
X225126772Y-143446571D01*
X225126772Y-143446571D02*
X225031534Y-143398952D01*
X225031534Y-143398952D02*
X224888677Y-143398952D01*
X224888677Y-143398952D02*
X224793439Y-143446571D01*
X224793439Y-143446571D02*
X224745820Y-143541809D01*
X224745820Y-143541809D02*
X224745820Y-144065619D01*
X224745820Y-143541809D02*
X224698201Y-143446571D01*
X224698201Y-143446571D02*
X224602963Y-143398952D01*
X224602963Y-143398952D02*
X224460106Y-143398952D01*
X224460106Y-143398952D02*
X224364867Y-143446571D01*
X224364867Y-143446571D02*
X224317248Y-143541809D01*
X224317248Y-143541809D02*
X224317248Y-144065619D01*
X223841058Y-144065619D02*
X223841058Y-143065619D01*
X223841058Y-143446571D02*
X223745820Y-143398952D01*
X223745820Y-143398952D02*
X223555344Y-143398952D01*
X223555344Y-143398952D02*
X223460106Y-143446571D01*
X223460106Y-143446571D02*
X223412487Y-143494190D01*
X223412487Y-143494190D02*
X223364868Y-143589428D01*
X223364868Y-143589428D02*
X223364868Y-143875142D01*
X223364868Y-143875142D02*
X223412487Y-143970380D01*
X223412487Y-143970380D02*
X223460106Y-144018000D01*
X223460106Y-144018000D02*
X223555344Y-144065619D01*
X223555344Y-144065619D02*
X223745820Y-144065619D01*
X223745820Y-144065619D02*
X223841058Y-144018000D01*
X222555344Y-144018000D02*
X222650582Y-144065619D01*
X222650582Y-144065619D02*
X222841058Y-144065619D01*
X222841058Y-144065619D02*
X222936296Y-144018000D01*
X222936296Y-144018000D02*
X222983915Y-143922761D01*
X222983915Y-143922761D02*
X222983915Y-143541809D01*
X222983915Y-143541809D02*
X222936296Y-143446571D01*
X222936296Y-143446571D02*
X222841058Y-143398952D01*
X222841058Y-143398952D02*
X222650582Y-143398952D01*
X222650582Y-143398952D02*
X222555344Y-143446571D01*
X222555344Y-143446571D02*
X222507725Y-143541809D01*
X222507725Y-143541809D02*
X222507725Y-143637047D01*
X222507725Y-143637047D02*
X222983915Y-143732285D01*
X222079153Y-144065619D02*
X222079153Y-143398952D01*
X222079153Y-143589428D02*
X222031534Y-143494190D01*
X222031534Y-143494190D02*
X221983915Y-143446571D01*
X221983915Y-143446571D02*
X221888677Y-143398952D01*
X221888677Y-143398952D02*
X221793439Y-143398952D01*
X220174391Y-144065619D02*
X220745819Y-144065619D01*
X220460105Y-144065619D02*
X220460105Y-143065619D01*
X220460105Y-143065619D02*
X220555343Y-143208476D01*
X220555343Y-143208476D02*
X220650581Y-143303714D01*
X220650581Y-143303714D02*
X220745819Y-143351333D01*
X219555343Y-143065619D02*
X219460105Y-143065619D01*
X219460105Y-143065619D02*
X219364867Y-143113238D01*
X219364867Y-143113238D02*
X219317248Y-143160857D01*
X219317248Y-143160857D02*
X219269629Y-143256095D01*
X219269629Y-143256095D02*
X219222010Y-143446571D01*
X219222010Y-143446571D02*
X219222010Y-143684666D01*
X219222010Y-143684666D02*
X219269629Y-143875142D01*
X219269629Y-143875142D02*
X219317248Y-143970380D01*
X219317248Y-143970380D02*
X219364867Y-144018000D01*
X219364867Y-144018000D02*
X219460105Y-144065619D01*
X219460105Y-144065619D02*
X219555343Y-144065619D01*
X219555343Y-144065619D02*
X219650581Y-144018000D01*
X219650581Y-144018000D02*
X219698200Y-143970380D01*
X219698200Y-143970380D02*
X219745819Y-143875142D01*
X219745819Y-143875142D02*
X219793438Y-143684666D01*
X219793438Y-143684666D02*
X219793438Y-143446571D01*
X219793438Y-143446571D02*
X219745819Y-143256095D01*
X219745819Y-143256095D02*
X219698200Y-143160857D01*
X219698200Y-143160857D02*
X219650581Y-143113238D01*
X219650581Y-143113238D02*
X219555343Y-143065619D01*
X218745819Y-144018000D02*
X218745819Y-144065619D01*
X218745819Y-144065619D02*
X218793438Y-144160857D01*
X218793438Y-144160857D02*
X218841057Y-144208476D01*
X217602962Y-143160857D02*
X217555343Y-143113238D01*
X217555343Y-143113238D02*
X217460105Y-143065619D01*
X217460105Y-143065619D02*
X217222010Y-143065619D01*
X217222010Y-143065619D02*
X217126772Y-143113238D01*
X217126772Y-143113238D02*
X217079153Y-143160857D01*
X217079153Y-143160857D02*
X217031534Y-143256095D01*
X217031534Y-143256095D02*
X217031534Y-143351333D01*
X217031534Y-143351333D02*
X217079153Y-143494190D01*
X217079153Y-143494190D02*
X217650581Y-144065619D01*
X217650581Y-144065619D02*
X217031534Y-144065619D01*
X216412486Y-143065619D02*
X216317248Y-143065619D01*
X216317248Y-143065619D02*
X216222010Y-143113238D01*
X216222010Y-143113238D02*
X216174391Y-143160857D01*
X216174391Y-143160857D02*
X216126772Y-143256095D01*
X216126772Y-143256095D02*
X216079153Y-143446571D01*
X216079153Y-143446571D02*
X216079153Y-143684666D01*
X216079153Y-143684666D02*
X216126772Y-143875142D01*
X216126772Y-143875142D02*
X216174391Y-143970380D01*
X216174391Y-143970380D02*
X216222010Y-144018000D01*
X216222010Y-144018000D02*
X216317248Y-144065619D01*
X216317248Y-144065619D02*
X216412486Y-144065619D01*
X216412486Y-144065619D02*
X216507724Y-144018000D01*
X216507724Y-144018000D02*
X216555343Y-143970380D01*
X216555343Y-143970380D02*
X216602962Y-143875142D01*
X216602962Y-143875142D02*
X216650581Y-143684666D01*
X216650581Y-143684666D02*
X216650581Y-143446571D01*
X216650581Y-143446571D02*
X216602962Y-143256095D01*
X216602962Y-143256095D02*
X216555343Y-143160857D01*
X216555343Y-143160857D02*
X216507724Y-143113238D01*
X216507724Y-143113238D02*
X216412486Y-143065619D01*
X215698200Y-143160857D02*
X215650581Y-143113238D01*
X215650581Y-143113238D02*
X215555343Y-143065619D01*
X215555343Y-143065619D02*
X215317248Y-143065619D01*
X215317248Y-143065619D02*
X215222010Y-143113238D01*
X215222010Y-143113238D02*
X215174391Y-143160857D01*
X215174391Y-143160857D02*
X215126772Y-143256095D01*
X215126772Y-143256095D02*
X215126772Y-143351333D01*
X215126772Y-143351333D02*
X215174391Y-143494190D01*
X215174391Y-143494190D02*
X215745819Y-144065619D01*
X215745819Y-144065619D02*
X215126772Y-144065619D01*
X214793438Y-143065619D02*
X214174391Y-143065619D01*
X214174391Y-143065619D02*
X214507724Y-143446571D01*
X214507724Y-143446571D02*
X214364867Y-143446571D01*
X214364867Y-143446571D02*
X214269629Y-143494190D01*
X214269629Y-143494190D02*
X214222010Y-143541809D01*
X214222010Y-143541809D02*
X214174391Y-143637047D01*
X214174391Y-143637047D02*
X214174391Y-143875142D01*
X214174391Y-143875142D02*
X214222010Y-143970380D01*
X214222010Y-143970380D02*
X214269629Y-144018000D01*
X214269629Y-144018000D02*
X214364867Y-144065619D01*
X214364867Y-144065619D02*
X214650581Y-144065619D01*
X214650581Y-144065619D02*
X214745819Y-144018000D01*
X214745819Y-144018000D02*
X214793438Y-143970380D01*
%LPC*%
D11*
X216357200Y-123139200D03*
D12*
X216357200Y-115519200D03*
D11*
X218846400Y-123164600D03*
D12*
X218846400Y-115544600D03*
D13*
X218871800Y-110693200D03*
D14*
X218871800Y-103073200D03*
D15*
X216300000Y-99000000D03*
D16*
X218840000Y-99000000D03*
X221380000Y-99000000D03*
X223920000Y-99000000D03*
X226460000Y-99000000D03*
X229000000Y-99000000D03*
D13*
X216331800Y-103073200D03*
D14*
X216331800Y-110693200D03*
D17*
X206883000Y-91186000D03*
X206883000Y-93726000D03*
X206883000Y-96266000D03*
X206883000Y-98806000D03*
X206883000Y-101346000D03*
X206883000Y-103886000D03*
X206883000Y-106426000D03*
X206883000Y-108966000D03*
X206883000Y-111506000D03*
X206883000Y-114046000D03*
X206883000Y-116586000D03*
X206883000Y-119126000D03*
X206883000Y-121666000D03*
X206883000Y-124206000D03*
X206883000Y-126746000D03*
X206883000Y-129286000D03*
X206883000Y-131826000D03*
X206883000Y-134366000D03*
X206883000Y-136906000D03*
X206883000Y-139446000D03*
X206883000Y-141986000D03*
X206883000Y-144526000D03*
%LPD*%
M02*
