%TF.GenerationSoftware,KiCad,Pcbnew,7.0.8*%
%TF.CreationDate,2023-12-01T23:48:12-08:00*%
%TF.ProjectId,COMiX-Edge-Adapter-Slim,434f4d69-582d-4456-9467-652d41646170,rev?*%
%TF.SameCoordinates,Original*%
%TF.FileFunction,Drillmap*%
%TF.FilePolarity,Positive*%
%FSLAX45Y45*%
G04 Gerber Fmt 4.5, Leading zero omitted, Abs format (unit mm)*
G04 Created by KiCad (PCBNEW 7.0.8) date 2023-12-01 23:48:12*
%MOMM*%
%LPD*%
G01*
G04 APERTURE LIST*
%ADD10C,0.100000*%
%ADD11C,0.200000*%
G04 APERTURE END LIST*
D10*
X22679660Y-12536170D02*
X22679660Y-11014710D01*
X22598380Y-11014710D02*
X22679660Y-11014710D01*
X22598380Y-12536170D02*
X22679660Y-12536170D01*
X22598380Y-11014710D02*
X22598380Y-12536170D01*
X22860000Y-11014710D02*
X22941280Y-11014710D01*
X22941280Y-12536170D02*
X22941280Y-11014710D01*
X22860000Y-12536170D02*
X22941280Y-12536170D01*
X22860000Y-11014710D02*
X22860000Y-12536170D01*
X23327649Y-14585180D02*
X23327360Y-8978900D01*
X20236180Y-14686280D02*
X23227649Y-14685180D01*
X23227649Y-14685179D02*
G75*
G03*
X23327649Y-14585180I1J99999D01*
G01*
X23327360Y-8978900D02*
G75*
G03*
X23227360Y-8878900I-100000J0D01*
G01*
X20236180Y-8879840D02*
X23227360Y-8878900D01*
X20236180Y-8879840D02*
X20236180Y-14686280D01*
D11*
X20491957Y-15002764D02*
X20491957Y-14802764D01*
X20491957Y-14802764D02*
X20539576Y-14802764D01*
X20539576Y-14802764D02*
X20568147Y-14812288D01*
X20568147Y-14812288D02*
X20587195Y-14831335D01*
X20587195Y-14831335D02*
X20596719Y-14850383D01*
X20596719Y-14850383D02*
X20606243Y-14888478D01*
X20606243Y-14888478D02*
X20606243Y-14917049D01*
X20606243Y-14917049D02*
X20596719Y-14955145D01*
X20596719Y-14955145D02*
X20587195Y-14974192D01*
X20587195Y-14974192D02*
X20568147Y-14993240D01*
X20568147Y-14993240D02*
X20539576Y-15002764D01*
X20539576Y-15002764D02*
X20491957Y-15002764D01*
X20691957Y-15002764D02*
X20691957Y-14869430D01*
X20691957Y-14907526D02*
X20701481Y-14888478D01*
X20701481Y-14888478D02*
X20711004Y-14878954D01*
X20711004Y-14878954D02*
X20730052Y-14869430D01*
X20730052Y-14869430D02*
X20749100Y-14869430D01*
X20815766Y-15002764D02*
X20815766Y-14869430D01*
X20815766Y-14802764D02*
X20806243Y-14812288D01*
X20806243Y-14812288D02*
X20815766Y-14821811D01*
X20815766Y-14821811D02*
X20825290Y-14812288D01*
X20825290Y-14812288D02*
X20815766Y-14802764D01*
X20815766Y-14802764D02*
X20815766Y-14821811D01*
X20939576Y-15002764D02*
X20920528Y-14993240D01*
X20920528Y-14993240D02*
X20911004Y-14974192D01*
X20911004Y-14974192D02*
X20911004Y-14802764D01*
X21044338Y-15002764D02*
X21025290Y-14993240D01*
X21025290Y-14993240D02*
X21015766Y-14974192D01*
X21015766Y-14974192D02*
X21015766Y-14802764D01*
X21272909Y-15002764D02*
X21272909Y-14802764D01*
X21272909Y-14802764D02*
X21339576Y-14945621D01*
X21339576Y-14945621D02*
X21406243Y-14802764D01*
X21406243Y-14802764D02*
X21406243Y-15002764D01*
X21587195Y-15002764D02*
X21587195Y-14898002D01*
X21587195Y-14898002D02*
X21577671Y-14878954D01*
X21577671Y-14878954D02*
X21558624Y-14869430D01*
X21558624Y-14869430D02*
X21520528Y-14869430D01*
X21520528Y-14869430D02*
X21501481Y-14878954D01*
X21587195Y-14993240D02*
X21568147Y-15002764D01*
X21568147Y-15002764D02*
X21520528Y-15002764D01*
X21520528Y-15002764D02*
X21501481Y-14993240D01*
X21501481Y-14993240D02*
X21491957Y-14974192D01*
X21491957Y-14974192D02*
X21491957Y-14955145D01*
X21491957Y-14955145D02*
X21501481Y-14936097D01*
X21501481Y-14936097D02*
X21520528Y-14926573D01*
X21520528Y-14926573D02*
X21568147Y-14926573D01*
X21568147Y-14926573D02*
X21587195Y-14917049D01*
X21682433Y-14869430D02*
X21682433Y-15069430D01*
X21682433Y-14878954D02*
X21701481Y-14869430D01*
X21701481Y-14869430D02*
X21739576Y-14869430D01*
X21739576Y-14869430D02*
X21758624Y-14878954D01*
X21758624Y-14878954D02*
X21768147Y-14888478D01*
X21768147Y-14888478D02*
X21777671Y-14907526D01*
X21777671Y-14907526D02*
X21777671Y-14964668D01*
X21777671Y-14964668D02*
X21768147Y-14983716D01*
X21768147Y-14983716D02*
X21758624Y-14993240D01*
X21758624Y-14993240D02*
X21739576Y-15002764D01*
X21739576Y-15002764D02*
X21701481Y-15002764D01*
X21701481Y-15002764D02*
X21682433Y-14993240D01*
X21863385Y-14983716D02*
X21872909Y-14993240D01*
X21872909Y-14993240D02*
X21863385Y-15002764D01*
X21863385Y-15002764D02*
X21853862Y-14993240D01*
X21853862Y-14993240D02*
X21863385Y-14983716D01*
X21863385Y-14983716D02*
X21863385Y-15002764D01*
X21863385Y-14878954D02*
X21872909Y-14888478D01*
X21872909Y-14888478D02*
X21863385Y-14898002D01*
X21863385Y-14898002D02*
X21853862Y-14888478D01*
X21853862Y-14888478D02*
X21863385Y-14878954D01*
X21863385Y-14878954D02*
X21863385Y-14898002D01*
M02*
