G04 #@! TF.GenerationSoftware,KiCad,Pcbnew,7.0.8*
G04 #@! TF.CreationDate,2023-12-01T23:48:08-08:00*
G04 #@! TF.ProjectId,COMiX-Edge-Adapter-Slim,434f4d69-582d-4456-9467-652d41646170,rev?*
G04 #@! TF.SameCoordinates,Original*
G04 #@! TF.FileFunction,Legend,Top*
G04 #@! TF.FilePolarity,Positive*
%FSLAX46Y46*%
G04 Gerber Fmt 4.6, Leading zero omitted, Abs format (unit mm)*
G04 Created by KiCad (PCBNEW 7.0.8) date 2023-12-01 23:48:08*
%MOMM*%
%LPD*%
G01*
G04 APERTURE LIST*
%ADD10C,0.150000*%
%ADD11C,0.304800*%
%ADD12C,0.108000*%
%ADD13C,0.120000*%
%ADD14C,0.100000*%
%ADD15C,1.400000*%
%ADD16O,1.400000X1.400000*%
%ADD17R,1.600000X1.600000*%
%ADD18O,1.600000X1.600000*%
%ADD19R,1.700000X1.700000*%
%ADD20O,1.700000X1.700000*%
%ADD21R,8.890000X1.397000*%
G04 APERTURE END LIST*
D10*
X223719664Y-96869819D02*
X223448731Y-96393628D01*
X223255207Y-96869819D02*
X223255207Y-95869819D01*
X223255207Y-95869819D02*
X223564845Y-95869819D01*
X223564845Y-95869819D02*
X223642255Y-95917438D01*
X223642255Y-95917438D02*
X223680960Y-95965057D01*
X223680960Y-95965057D02*
X223719664Y-96060295D01*
X223719664Y-96060295D02*
X223719664Y-96203152D01*
X223719664Y-96203152D02*
X223680960Y-96298390D01*
X223680960Y-96298390D02*
X223642255Y-96346009D01*
X223642255Y-96346009D02*
X223564845Y-96393628D01*
X223564845Y-96393628D02*
X223255207Y-96393628D01*
X223990598Y-96869819D02*
X224416350Y-96203152D01*
X223990598Y-96203152D02*
X224416350Y-96869819D01*
X215616460Y-95917438D02*
X215539050Y-95869819D01*
X215539050Y-95869819D02*
X215422936Y-95869819D01*
X215422936Y-95869819D02*
X215306822Y-95917438D01*
X215306822Y-95917438D02*
X215229412Y-96012676D01*
X215229412Y-96012676D02*
X215190707Y-96107914D01*
X215190707Y-96107914D02*
X215152003Y-96298390D01*
X215152003Y-96298390D02*
X215152003Y-96441247D01*
X215152003Y-96441247D02*
X215190707Y-96631723D01*
X215190707Y-96631723D02*
X215229412Y-96726961D01*
X215229412Y-96726961D02*
X215306822Y-96822200D01*
X215306822Y-96822200D02*
X215422936Y-96869819D01*
X215422936Y-96869819D02*
X215500345Y-96869819D01*
X215500345Y-96869819D02*
X215616460Y-96822200D01*
X215616460Y-96822200D02*
X215655164Y-96774580D01*
X215655164Y-96774580D02*
X215655164Y-96441247D01*
X215655164Y-96441247D02*
X215500345Y-96441247D01*
X216003507Y-96869819D02*
X216003507Y-95869819D01*
X216003507Y-95869819D02*
X216467964Y-96869819D01*
X216467964Y-96869819D02*
X216467964Y-95869819D01*
X216855012Y-96869819D02*
X216855012Y-95869819D01*
X216855012Y-95869819D02*
X217048536Y-95869819D01*
X217048536Y-95869819D02*
X217164650Y-95917438D01*
X217164650Y-95917438D02*
X217242060Y-96012676D01*
X217242060Y-96012676D02*
X217280765Y-96107914D01*
X217280765Y-96107914D02*
X217319469Y-96298390D01*
X217319469Y-96298390D02*
X217319469Y-96441247D01*
X217319469Y-96441247D02*
X217280765Y-96631723D01*
X217280765Y-96631723D02*
X217242060Y-96726961D01*
X217242060Y-96726961D02*
X217164650Y-96822200D01*
X217164650Y-96822200D02*
X217048536Y-96869819D01*
X217048536Y-96869819D02*
X216855012Y-96869819D01*
X225806093Y-95869819D02*
X226270550Y-95869819D01*
X226038322Y-96869819D02*
X226038322Y-95869819D01*
X226464074Y-96869819D02*
X226889826Y-96203152D01*
X226464074Y-96203152D02*
X226889826Y-96869819D01*
D11*
X215561078Y-130727868D02*
X215464316Y-130824630D01*
X215464316Y-130824630D02*
X215174030Y-130921391D01*
X215174030Y-130921391D02*
X214980506Y-130921391D01*
X214980506Y-130921391D02*
X214690221Y-130824630D01*
X214690221Y-130824630D02*
X214496697Y-130631106D01*
X214496697Y-130631106D02*
X214399935Y-130437582D01*
X214399935Y-130437582D02*
X214303173Y-130050534D01*
X214303173Y-130050534D02*
X214303173Y-129760249D01*
X214303173Y-129760249D02*
X214399935Y-129373201D01*
X214399935Y-129373201D02*
X214496697Y-129179677D01*
X214496697Y-129179677D02*
X214690221Y-128986153D01*
X214690221Y-128986153D02*
X214980506Y-128889391D01*
X214980506Y-128889391D02*
X215174030Y-128889391D01*
X215174030Y-128889391D02*
X215464316Y-128986153D01*
X215464316Y-128986153D02*
X215561078Y-129082915D01*
X216818983Y-128889391D02*
X217206030Y-128889391D01*
X217206030Y-128889391D02*
X217399554Y-128986153D01*
X217399554Y-128986153D02*
X217593078Y-129179677D01*
X217593078Y-129179677D02*
X217689840Y-129566725D01*
X217689840Y-129566725D02*
X217689840Y-130244058D01*
X217689840Y-130244058D02*
X217593078Y-130631106D01*
X217593078Y-130631106D02*
X217399554Y-130824630D01*
X217399554Y-130824630D02*
X217206030Y-130921391D01*
X217206030Y-130921391D02*
X216818983Y-130921391D01*
X216818983Y-130921391D02*
X216625459Y-130824630D01*
X216625459Y-130824630D02*
X216431935Y-130631106D01*
X216431935Y-130631106D02*
X216335173Y-130244058D01*
X216335173Y-130244058D02*
X216335173Y-129566725D01*
X216335173Y-129566725D02*
X216431935Y-129179677D01*
X216431935Y-129179677D02*
X216625459Y-128986153D01*
X216625459Y-128986153D02*
X216818983Y-128889391D01*
X218560697Y-130921391D02*
X218560697Y-128889391D01*
X218560697Y-128889391D02*
X219238030Y-130340820D01*
X219238030Y-130340820D02*
X219915364Y-128889391D01*
X219915364Y-128889391D02*
X219915364Y-130921391D01*
X220882983Y-130921391D02*
X220882983Y-129566725D01*
X220882983Y-128889391D02*
X220786221Y-128986153D01*
X220786221Y-128986153D02*
X220882983Y-129082915D01*
X220882983Y-129082915D02*
X220979745Y-128986153D01*
X220979745Y-128986153D02*
X220882983Y-128889391D01*
X220882983Y-128889391D02*
X220882983Y-129082915D01*
X221657078Y-128889391D02*
X223011745Y-130921391D01*
X223011745Y-128889391D02*
X221657078Y-130921391D01*
X223785840Y-130147296D02*
X225334031Y-130147296D01*
X226108126Y-128889391D02*
X227366031Y-128889391D01*
X227366031Y-128889391D02*
X226688698Y-129663487D01*
X226688698Y-129663487D02*
X226978983Y-129663487D01*
X226978983Y-129663487D02*
X227172507Y-129760249D01*
X227172507Y-129760249D02*
X227269269Y-129857010D01*
X227269269Y-129857010D02*
X227366031Y-130050534D01*
X227366031Y-130050534D02*
X227366031Y-130534344D01*
X227366031Y-130534344D02*
X227269269Y-130727868D01*
X227269269Y-130727868D02*
X227172507Y-130824630D01*
X227172507Y-130824630D02*
X226978983Y-130921391D01*
X226978983Y-130921391D02*
X226398412Y-130921391D01*
X226398412Y-130921391D02*
X226204888Y-130824630D01*
X226204888Y-130824630D02*
X226108126Y-130727868D01*
X229204507Y-128889391D02*
X228236888Y-128889391D01*
X228236888Y-128889391D02*
X228140126Y-129857010D01*
X228140126Y-129857010D02*
X228236888Y-129760249D01*
X228236888Y-129760249D02*
X228430412Y-129663487D01*
X228430412Y-129663487D02*
X228914221Y-129663487D01*
X228914221Y-129663487D02*
X229107745Y-129760249D01*
X229107745Y-129760249D02*
X229204507Y-129857010D01*
X229204507Y-129857010D02*
X229301269Y-130050534D01*
X229301269Y-130050534D02*
X229301269Y-130534344D01*
X229301269Y-130534344D02*
X229204507Y-130727868D01*
X229204507Y-130727868D02*
X229107745Y-130824630D01*
X229107745Y-130824630D02*
X228914221Y-130921391D01*
X228914221Y-130921391D02*
X228430412Y-130921391D01*
X228430412Y-130921391D02*
X228236888Y-130824630D01*
X228236888Y-130824630D02*
X228140126Y-130727868D01*
X214399935Y-134192911D02*
X214399935Y-132160911D01*
X214399935Y-133128530D02*
X215561078Y-133128530D01*
X215561078Y-134192911D02*
X215561078Y-132160911D01*
X216528697Y-134192911D02*
X216528697Y-132838245D01*
X216528697Y-132160911D02*
X216431935Y-132257673D01*
X216431935Y-132257673D02*
X216528697Y-132354435D01*
X216528697Y-132354435D02*
X216625459Y-132257673D01*
X216625459Y-132257673D02*
X216528697Y-132160911D01*
X216528697Y-132160911D02*
X216528697Y-132354435D01*
X218367173Y-132838245D02*
X218367173Y-134483197D01*
X218367173Y-134483197D02*
X218270411Y-134676721D01*
X218270411Y-134676721D02*
X218173649Y-134773483D01*
X218173649Y-134773483D02*
X217980126Y-134870245D01*
X217980126Y-134870245D02*
X217689840Y-134870245D01*
X217689840Y-134870245D02*
X217496316Y-134773483D01*
X218367173Y-134096150D02*
X218173649Y-134192911D01*
X218173649Y-134192911D02*
X217786602Y-134192911D01*
X217786602Y-134192911D02*
X217593078Y-134096150D01*
X217593078Y-134096150D02*
X217496316Y-133999388D01*
X217496316Y-133999388D02*
X217399554Y-133805864D01*
X217399554Y-133805864D02*
X217399554Y-133225292D01*
X217399554Y-133225292D02*
X217496316Y-133031769D01*
X217496316Y-133031769D02*
X217593078Y-132935007D01*
X217593078Y-132935007D02*
X217786602Y-132838245D01*
X217786602Y-132838245D02*
X218173649Y-132838245D01*
X218173649Y-132838245D02*
X218367173Y-132935007D01*
X219334792Y-134192911D02*
X219334792Y-132160911D01*
X220205649Y-134192911D02*
X220205649Y-133128530D01*
X220205649Y-133128530D02*
X220108887Y-132935007D01*
X220108887Y-132935007D02*
X219915363Y-132838245D01*
X219915363Y-132838245D02*
X219625078Y-132838245D01*
X219625078Y-132838245D02*
X219431554Y-132935007D01*
X219431554Y-132935007D02*
X219334792Y-133031769D01*
X222624696Y-134096150D02*
X222914982Y-134192911D01*
X222914982Y-134192911D02*
X223398791Y-134192911D01*
X223398791Y-134192911D02*
X223592315Y-134096150D01*
X223592315Y-134096150D02*
X223689077Y-133999388D01*
X223689077Y-133999388D02*
X223785839Y-133805864D01*
X223785839Y-133805864D02*
X223785839Y-133612340D01*
X223785839Y-133612340D02*
X223689077Y-133418816D01*
X223689077Y-133418816D02*
X223592315Y-133322054D01*
X223592315Y-133322054D02*
X223398791Y-133225292D01*
X223398791Y-133225292D02*
X223011744Y-133128530D01*
X223011744Y-133128530D02*
X222818220Y-133031769D01*
X222818220Y-133031769D02*
X222721458Y-132935007D01*
X222721458Y-132935007D02*
X222624696Y-132741483D01*
X222624696Y-132741483D02*
X222624696Y-132547959D01*
X222624696Y-132547959D02*
X222721458Y-132354435D01*
X222721458Y-132354435D02*
X222818220Y-132257673D01*
X222818220Y-132257673D02*
X223011744Y-132160911D01*
X223011744Y-132160911D02*
X223495553Y-132160911D01*
X223495553Y-132160911D02*
X223785839Y-132257673D01*
X224656696Y-132838245D02*
X224656696Y-134870245D01*
X224656696Y-132935007D02*
X224850220Y-132838245D01*
X224850220Y-132838245D02*
X225237267Y-132838245D01*
X225237267Y-132838245D02*
X225430791Y-132935007D01*
X225430791Y-132935007D02*
X225527553Y-133031769D01*
X225527553Y-133031769D02*
X225624315Y-133225292D01*
X225624315Y-133225292D02*
X225624315Y-133805864D01*
X225624315Y-133805864D02*
X225527553Y-133999388D01*
X225527553Y-133999388D02*
X225430791Y-134096150D01*
X225430791Y-134096150D02*
X225237267Y-134192911D01*
X225237267Y-134192911D02*
X224850220Y-134192911D01*
X224850220Y-134192911D02*
X224656696Y-134096150D01*
X227269267Y-134096150D02*
X227075743Y-134192911D01*
X227075743Y-134192911D02*
X226688696Y-134192911D01*
X226688696Y-134192911D02*
X226495172Y-134096150D01*
X226495172Y-134096150D02*
X226398410Y-133902626D01*
X226398410Y-133902626D02*
X226398410Y-133128530D01*
X226398410Y-133128530D02*
X226495172Y-132935007D01*
X226495172Y-132935007D02*
X226688696Y-132838245D01*
X226688696Y-132838245D02*
X227075743Y-132838245D01*
X227075743Y-132838245D02*
X227269267Y-132935007D01*
X227269267Y-132935007D02*
X227366029Y-133128530D01*
X227366029Y-133128530D02*
X227366029Y-133322054D01*
X227366029Y-133322054D02*
X226398410Y-133515578D01*
X229010981Y-134096150D02*
X228817457Y-134192911D01*
X228817457Y-134192911D02*
X228430410Y-134192911D01*
X228430410Y-134192911D02*
X228236886Y-134096150D01*
X228236886Y-134096150D02*
X228140124Y-133902626D01*
X228140124Y-133902626D02*
X228140124Y-133128530D01*
X228140124Y-133128530D02*
X228236886Y-132935007D01*
X228236886Y-132935007D02*
X228430410Y-132838245D01*
X228430410Y-132838245D02*
X228817457Y-132838245D01*
X228817457Y-132838245D02*
X229010981Y-132935007D01*
X229010981Y-132935007D02*
X229107743Y-133128530D01*
X229107743Y-133128530D02*
X229107743Y-133322054D01*
X229107743Y-133322054D02*
X228140124Y-133515578D01*
X230849457Y-134192911D02*
X230849457Y-132160911D01*
X230849457Y-134096150D02*
X230655933Y-134192911D01*
X230655933Y-134192911D02*
X230268886Y-134192911D01*
X230268886Y-134192911D02*
X230075362Y-134096150D01*
X230075362Y-134096150D02*
X229978600Y-133999388D01*
X229978600Y-133999388D02*
X229881838Y-133805864D01*
X229881838Y-133805864D02*
X229881838Y-133225292D01*
X229881838Y-133225292D02*
X229978600Y-133031769D01*
X229978600Y-133031769D02*
X230075362Y-132935007D01*
X230075362Y-132935007D02*
X230268886Y-132838245D01*
X230268886Y-132838245D02*
X230655933Y-132838245D01*
X230655933Y-132838245D02*
X230849457Y-132935007D01*
X214399935Y-137464431D02*
X214399935Y-135432431D01*
X214399935Y-135432431D02*
X214883745Y-135432431D01*
X214883745Y-135432431D02*
X215174030Y-135529193D01*
X215174030Y-135529193D02*
X215367554Y-135722717D01*
X215367554Y-135722717D02*
X215464316Y-135916241D01*
X215464316Y-135916241D02*
X215561078Y-136303289D01*
X215561078Y-136303289D02*
X215561078Y-136593574D01*
X215561078Y-136593574D02*
X215464316Y-136980622D01*
X215464316Y-136980622D02*
X215367554Y-137174146D01*
X215367554Y-137174146D02*
X215174030Y-137367670D01*
X215174030Y-137367670D02*
X214883745Y-137464431D01*
X214883745Y-137464431D02*
X214399935Y-137464431D01*
X216431935Y-137464431D02*
X216431935Y-136109765D01*
X216431935Y-135432431D02*
X216335173Y-135529193D01*
X216335173Y-135529193D02*
X216431935Y-135625955D01*
X216431935Y-135625955D02*
X216528697Y-135529193D01*
X216528697Y-135529193D02*
X216431935Y-135432431D01*
X216431935Y-135432431D02*
X216431935Y-135625955D01*
X217399554Y-137464431D02*
X217399554Y-136109765D01*
X217399554Y-136496812D02*
X217496316Y-136303289D01*
X217496316Y-136303289D02*
X217593078Y-136206527D01*
X217593078Y-136206527D02*
X217786602Y-136109765D01*
X217786602Y-136109765D02*
X217980125Y-136109765D01*
X219431554Y-137367670D02*
X219238030Y-137464431D01*
X219238030Y-137464431D02*
X218850983Y-137464431D01*
X218850983Y-137464431D02*
X218657459Y-137367670D01*
X218657459Y-137367670D02*
X218560697Y-137174146D01*
X218560697Y-137174146D02*
X218560697Y-136400050D01*
X218560697Y-136400050D02*
X218657459Y-136206527D01*
X218657459Y-136206527D02*
X218850983Y-136109765D01*
X218850983Y-136109765D02*
X219238030Y-136109765D01*
X219238030Y-136109765D02*
X219431554Y-136206527D01*
X219431554Y-136206527D02*
X219528316Y-136400050D01*
X219528316Y-136400050D02*
X219528316Y-136593574D01*
X219528316Y-136593574D02*
X218560697Y-136787098D01*
X221270030Y-137367670D02*
X221076506Y-137464431D01*
X221076506Y-137464431D02*
X220689459Y-137464431D01*
X220689459Y-137464431D02*
X220495935Y-137367670D01*
X220495935Y-137367670D02*
X220399173Y-137270908D01*
X220399173Y-137270908D02*
X220302411Y-137077384D01*
X220302411Y-137077384D02*
X220302411Y-136496812D01*
X220302411Y-136496812D02*
X220399173Y-136303289D01*
X220399173Y-136303289D02*
X220495935Y-136206527D01*
X220495935Y-136206527D02*
X220689459Y-136109765D01*
X220689459Y-136109765D02*
X221076506Y-136109765D01*
X221076506Y-136109765D02*
X221270030Y-136206527D01*
X221850601Y-136109765D02*
X222624697Y-136109765D01*
X222140887Y-135432431D02*
X222140887Y-137174146D01*
X222140887Y-137174146D02*
X222237649Y-137367670D01*
X222237649Y-137367670D02*
X222431173Y-137464431D01*
X222431173Y-137464431D02*
X222624697Y-137464431D01*
X215561078Y-140542428D02*
X215464316Y-140639190D01*
X215464316Y-140639190D02*
X215174030Y-140735951D01*
X215174030Y-140735951D02*
X214980506Y-140735951D01*
X214980506Y-140735951D02*
X214690221Y-140639190D01*
X214690221Y-140639190D02*
X214496697Y-140445666D01*
X214496697Y-140445666D02*
X214399935Y-140252142D01*
X214399935Y-140252142D02*
X214303173Y-139865094D01*
X214303173Y-139865094D02*
X214303173Y-139574809D01*
X214303173Y-139574809D02*
X214399935Y-139187761D01*
X214399935Y-139187761D02*
X214496697Y-138994237D01*
X214496697Y-138994237D02*
X214690221Y-138800713D01*
X214690221Y-138800713D02*
X214980506Y-138703951D01*
X214980506Y-138703951D02*
X215174030Y-138703951D01*
X215174030Y-138703951D02*
X215464316Y-138800713D01*
X215464316Y-138800713D02*
X215561078Y-138897475D01*
X216722221Y-140735951D02*
X216528697Y-140639190D01*
X216528697Y-140639190D02*
X216431935Y-140542428D01*
X216431935Y-140542428D02*
X216335173Y-140348904D01*
X216335173Y-140348904D02*
X216335173Y-139768332D01*
X216335173Y-139768332D02*
X216431935Y-139574809D01*
X216431935Y-139574809D02*
X216528697Y-139478047D01*
X216528697Y-139478047D02*
X216722221Y-139381285D01*
X216722221Y-139381285D02*
X217012506Y-139381285D01*
X217012506Y-139381285D02*
X217206030Y-139478047D01*
X217206030Y-139478047D02*
X217302792Y-139574809D01*
X217302792Y-139574809D02*
X217399554Y-139768332D01*
X217399554Y-139768332D02*
X217399554Y-140348904D01*
X217399554Y-140348904D02*
X217302792Y-140542428D01*
X217302792Y-140542428D02*
X217206030Y-140639190D01*
X217206030Y-140639190D02*
X217012506Y-140735951D01*
X217012506Y-140735951D02*
X216722221Y-140735951D01*
X218270411Y-139381285D02*
X218270411Y-140735951D01*
X218270411Y-139574809D02*
X218367173Y-139478047D01*
X218367173Y-139478047D02*
X218560697Y-139381285D01*
X218560697Y-139381285D02*
X218850982Y-139381285D01*
X218850982Y-139381285D02*
X219044506Y-139478047D01*
X219044506Y-139478047D02*
X219141268Y-139671570D01*
X219141268Y-139671570D02*
X219141268Y-140735951D01*
X220108887Y-139381285D02*
X220108887Y-140735951D01*
X220108887Y-139574809D02*
X220205649Y-139478047D01*
X220205649Y-139478047D02*
X220399173Y-139381285D01*
X220399173Y-139381285D02*
X220689458Y-139381285D01*
X220689458Y-139381285D02*
X220882982Y-139478047D01*
X220882982Y-139478047D02*
X220979744Y-139671570D01*
X220979744Y-139671570D02*
X220979744Y-140735951D01*
X222721458Y-140639190D02*
X222527934Y-140735951D01*
X222527934Y-140735951D02*
X222140887Y-140735951D01*
X222140887Y-140735951D02*
X221947363Y-140639190D01*
X221947363Y-140639190D02*
X221850601Y-140445666D01*
X221850601Y-140445666D02*
X221850601Y-139671570D01*
X221850601Y-139671570D02*
X221947363Y-139478047D01*
X221947363Y-139478047D02*
X222140887Y-139381285D01*
X222140887Y-139381285D02*
X222527934Y-139381285D01*
X222527934Y-139381285D02*
X222721458Y-139478047D01*
X222721458Y-139478047D02*
X222818220Y-139671570D01*
X222818220Y-139671570D02*
X222818220Y-139865094D01*
X222818220Y-139865094D02*
X221850601Y-140058618D01*
X224559934Y-140639190D02*
X224366410Y-140735951D01*
X224366410Y-140735951D02*
X223979363Y-140735951D01*
X223979363Y-140735951D02*
X223785839Y-140639190D01*
X223785839Y-140639190D02*
X223689077Y-140542428D01*
X223689077Y-140542428D02*
X223592315Y-140348904D01*
X223592315Y-140348904D02*
X223592315Y-139768332D01*
X223592315Y-139768332D02*
X223689077Y-139574809D01*
X223689077Y-139574809D02*
X223785839Y-139478047D01*
X223785839Y-139478047D02*
X223979363Y-139381285D01*
X223979363Y-139381285D02*
X224366410Y-139381285D01*
X224366410Y-139381285D02*
X224559934Y-139478047D01*
X225140505Y-139381285D02*
X225914601Y-139381285D01*
X225430791Y-138703951D02*
X225430791Y-140445666D01*
X225430791Y-140445666D02*
X225527553Y-140639190D01*
X225527553Y-140639190D02*
X225721077Y-140735951D01*
X225721077Y-140735951D02*
X225914601Y-140735951D01*
X214303173Y-143426900D02*
X215270792Y-143426900D01*
X214109649Y-144007471D02*
X214786983Y-141975471D01*
X214786983Y-141975471D02*
X215464316Y-144007471D01*
X217012506Y-144007471D02*
X217012506Y-141975471D01*
X217012506Y-143910710D02*
X216818982Y-144007471D01*
X216818982Y-144007471D02*
X216431935Y-144007471D01*
X216431935Y-144007471D02*
X216238411Y-143910710D01*
X216238411Y-143910710D02*
X216141649Y-143813948D01*
X216141649Y-143813948D02*
X216044887Y-143620424D01*
X216044887Y-143620424D02*
X216044887Y-143039852D01*
X216044887Y-143039852D02*
X216141649Y-142846329D01*
X216141649Y-142846329D02*
X216238411Y-142749567D01*
X216238411Y-142749567D02*
X216431935Y-142652805D01*
X216431935Y-142652805D02*
X216818982Y-142652805D01*
X216818982Y-142652805D02*
X217012506Y-142749567D01*
X218850982Y-144007471D02*
X218850982Y-142943090D01*
X218850982Y-142943090D02*
X218754220Y-142749567D01*
X218754220Y-142749567D02*
X218560696Y-142652805D01*
X218560696Y-142652805D02*
X218173649Y-142652805D01*
X218173649Y-142652805D02*
X217980125Y-142749567D01*
X218850982Y-143910710D02*
X218657458Y-144007471D01*
X218657458Y-144007471D02*
X218173649Y-144007471D01*
X218173649Y-144007471D02*
X217980125Y-143910710D01*
X217980125Y-143910710D02*
X217883363Y-143717186D01*
X217883363Y-143717186D02*
X217883363Y-143523662D01*
X217883363Y-143523662D02*
X217980125Y-143330138D01*
X217980125Y-143330138D02*
X218173649Y-143233376D01*
X218173649Y-143233376D02*
X218657458Y-143233376D01*
X218657458Y-143233376D02*
X218850982Y-143136614D01*
X219818601Y-142652805D02*
X219818601Y-144684805D01*
X219818601Y-142749567D02*
X220012125Y-142652805D01*
X220012125Y-142652805D02*
X220399172Y-142652805D01*
X220399172Y-142652805D02*
X220592696Y-142749567D01*
X220592696Y-142749567D02*
X220689458Y-142846329D01*
X220689458Y-142846329D02*
X220786220Y-143039852D01*
X220786220Y-143039852D02*
X220786220Y-143620424D01*
X220786220Y-143620424D02*
X220689458Y-143813948D01*
X220689458Y-143813948D02*
X220592696Y-143910710D01*
X220592696Y-143910710D02*
X220399172Y-144007471D01*
X220399172Y-144007471D02*
X220012125Y-144007471D01*
X220012125Y-144007471D02*
X219818601Y-143910710D01*
X221366791Y-142652805D02*
X222140887Y-142652805D01*
X221657077Y-141975471D02*
X221657077Y-143717186D01*
X221657077Y-143717186D02*
X221753839Y-143910710D01*
X221753839Y-143910710D02*
X221947363Y-144007471D01*
X221947363Y-144007471D02*
X222140887Y-144007471D01*
X223592315Y-143910710D02*
X223398791Y-144007471D01*
X223398791Y-144007471D02*
X223011744Y-144007471D01*
X223011744Y-144007471D02*
X222818220Y-143910710D01*
X222818220Y-143910710D02*
X222721458Y-143717186D01*
X222721458Y-143717186D02*
X222721458Y-142943090D01*
X222721458Y-142943090D02*
X222818220Y-142749567D01*
X222818220Y-142749567D02*
X223011744Y-142652805D01*
X223011744Y-142652805D02*
X223398791Y-142652805D01*
X223398791Y-142652805D02*
X223592315Y-142749567D01*
X223592315Y-142749567D02*
X223689077Y-142943090D01*
X223689077Y-142943090D02*
X223689077Y-143136614D01*
X223689077Y-143136614D02*
X222721458Y-143330138D01*
X224559934Y-144007471D02*
X224559934Y-142652805D01*
X224559934Y-143039852D02*
X224656696Y-142846329D01*
X224656696Y-142846329D02*
X224753458Y-142749567D01*
X224753458Y-142749567D02*
X224946982Y-142652805D01*
X224946982Y-142652805D02*
X225140505Y-142652805D01*
D10*
X214780019Y-120491095D02*
X214780019Y-121062523D01*
X214780019Y-120776809D02*
X213780019Y-120776809D01*
X213780019Y-120776809D02*
X213922876Y-120872047D01*
X213922876Y-120872047D02*
X214018114Y-120967285D01*
X214018114Y-120967285D02*
X214065733Y-121062523D01*
X213780019Y-119872047D02*
X213780019Y-119776809D01*
X213780019Y-119776809D02*
X213827638Y-119681571D01*
X213827638Y-119681571D02*
X213875257Y-119633952D01*
X213875257Y-119633952D02*
X213970495Y-119586333D01*
X213970495Y-119586333D02*
X214160971Y-119538714D01*
X214160971Y-119538714D02*
X214399066Y-119538714D01*
X214399066Y-119538714D02*
X214589542Y-119586333D01*
X214589542Y-119586333D02*
X214684780Y-119633952D01*
X214684780Y-119633952D02*
X214732400Y-119681571D01*
X214732400Y-119681571D02*
X214780019Y-119776809D01*
X214780019Y-119776809D02*
X214780019Y-119872047D01*
X214780019Y-119872047D02*
X214732400Y-119967285D01*
X214732400Y-119967285D02*
X214684780Y-120014904D01*
X214684780Y-120014904D02*
X214589542Y-120062523D01*
X214589542Y-120062523D02*
X214399066Y-120110142D01*
X214399066Y-120110142D02*
X214160971Y-120110142D01*
X214160971Y-120110142D02*
X213970495Y-120062523D01*
X213970495Y-120062523D02*
X213875257Y-120014904D01*
X213875257Y-120014904D02*
X213827638Y-119967285D01*
X213827638Y-119967285D02*
X213780019Y-119872047D01*
X213780019Y-118919666D02*
X213780019Y-118824428D01*
X213780019Y-118824428D02*
X213827638Y-118729190D01*
X213827638Y-118729190D02*
X213875257Y-118681571D01*
X213875257Y-118681571D02*
X213970495Y-118633952D01*
X213970495Y-118633952D02*
X214160971Y-118586333D01*
X214160971Y-118586333D02*
X214399066Y-118586333D01*
X214399066Y-118586333D02*
X214589542Y-118633952D01*
X214589542Y-118633952D02*
X214684780Y-118681571D01*
X214684780Y-118681571D02*
X214732400Y-118729190D01*
X214732400Y-118729190D02*
X214780019Y-118824428D01*
X214780019Y-118824428D02*
X214780019Y-118919666D01*
X214780019Y-118919666D02*
X214732400Y-119014904D01*
X214732400Y-119014904D02*
X214684780Y-119062523D01*
X214684780Y-119062523D02*
X214589542Y-119110142D01*
X214589542Y-119110142D02*
X214399066Y-119157761D01*
X214399066Y-119157761D02*
X214160971Y-119157761D01*
X214160971Y-119157761D02*
X213970495Y-119110142D01*
X213970495Y-119110142D02*
X213875257Y-119062523D01*
X213875257Y-119062523D02*
X213827638Y-119014904D01*
X213827638Y-119014904D02*
X213780019Y-118919666D01*
X214780019Y-118205380D02*
X214780019Y-117967285D01*
X214780019Y-117967285D02*
X214589542Y-117967285D01*
X214589542Y-117967285D02*
X214541923Y-118062523D01*
X214541923Y-118062523D02*
X214446685Y-118157761D01*
X214446685Y-118157761D02*
X214303828Y-118205380D01*
X214303828Y-118205380D02*
X214065733Y-118205380D01*
X214065733Y-118205380D02*
X213922876Y-118157761D01*
X213922876Y-118157761D02*
X213827638Y-118062523D01*
X213827638Y-118062523D02*
X213780019Y-117919666D01*
X213780019Y-117919666D02*
X213780019Y-117729190D01*
X213780019Y-117729190D02*
X213827638Y-117586333D01*
X213827638Y-117586333D02*
X213922876Y-117491095D01*
X213922876Y-117491095D02*
X214065733Y-117443476D01*
X214065733Y-117443476D02*
X214303828Y-117443476D01*
X214303828Y-117443476D02*
X214446685Y-117491095D01*
X214446685Y-117491095D02*
X214541923Y-117586333D01*
X214541923Y-117586333D02*
X214589542Y-117681571D01*
X214589542Y-117681571D02*
X214780019Y-117681571D01*
X214780019Y-117681571D02*
X214780019Y-117443476D01*
D12*
X216684669Y-119449199D02*
X216341812Y-119689199D01*
X216684669Y-119860628D02*
X215964669Y-119860628D01*
X215964669Y-119860628D02*
X215964669Y-119586342D01*
X215964669Y-119586342D02*
X215998955Y-119517771D01*
X215998955Y-119517771D02*
X216033241Y-119483485D01*
X216033241Y-119483485D02*
X216101812Y-119449199D01*
X216101812Y-119449199D02*
X216204669Y-119449199D01*
X216204669Y-119449199D02*
X216273241Y-119483485D01*
X216273241Y-119483485D02*
X216307526Y-119517771D01*
X216307526Y-119517771D02*
X216341812Y-119586342D01*
X216341812Y-119586342D02*
X216341812Y-119860628D01*
X216033241Y-119174914D02*
X215998955Y-119140628D01*
X215998955Y-119140628D02*
X215964669Y-119072057D01*
X215964669Y-119072057D02*
X215964669Y-118900628D01*
X215964669Y-118900628D02*
X215998955Y-118832057D01*
X215998955Y-118832057D02*
X216033241Y-118797771D01*
X216033241Y-118797771D02*
X216101812Y-118763485D01*
X216101812Y-118763485D02*
X216170384Y-118763485D01*
X216170384Y-118763485D02*
X216273241Y-118797771D01*
X216273241Y-118797771D02*
X216684669Y-119209199D01*
X216684669Y-119209199D02*
X216684669Y-118763485D01*
D10*
X221221219Y-120592695D02*
X221221219Y-121164123D01*
X221221219Y-120878409D02*
X220221219Y-120878409D01*
X220221219Y-120878409D02*
X220364076Y-120973647D01*
X220364076Y-120973647D02*
X220459314Y-121068885D01*
X220459314Y-121068885D02*
X220506933Y-121164123D01*
X220221219Y-119973647D02*
X220221219Y-119878409D01*
X220221219Y-119878409D02*
X220268838Y-119783171D01*
X220268838Y-119783171D02*
X220316457Y-119735552D01*
X220316457Y-119735552D02*
X220411695Y-119687933D01*
X220411695Y-119687933D02*
X220602171Y-119640314D01*
X220602171Y-119640314D02*
X220840266Y-119640314D01*
X220840266Y-119640314D02*
X221030742Y-119687933D01*
X221030742Y-119687933D02*
X221125980Y-119735552D01*
X221125980Y-119735552D02*
X221173600Y-119783171D01*
X221173600Y-119783171D02*
X221221219Y-119878409D01*
X221221219Y-119878409D02*
X221221219Y-119973647D01*
X221221219Y-119973647D02*
X221173600Y-120068885D01*
X221173600Y-120068885D02*
X221125980Y-120116504D01*
X221125980Y-120116504D02*
X221030742Y-120164123D01*
X221030742Y-120164123D02*
X220840266Y-120211742D01*
X220840266Y-120211742D02*
X220602171Y-120211742D01*
X220602171Y-120211742D02*
X220411695Y-120164123D01*
X220411695Y-120164123D02*
X220316457Y-120116504D01*
X220316457Y-120116504D02*
X220268838Y-120068885D01*
X220268838Y-120068885D02*
X220221219Y-119973647D01*
X220221219Y-119021266D02*
X220221219Y-118926028D01*
X220221219Y-118926028D02*
X220268838Y-118830790D01*
X220268838Y-118830790D02*
X220316457Y-118783171D01*
X220316457Y-118783171D02*
X220411695Y-118735552D01*
X220411695Y-118735552D02*
X220602171Y-118687933D01*
X220602171Y-118687933D02*
X220840266Y-118687933D01*
X220840266Y-118687933D02*
X221030742Y-118735552D01*
X221030742Y-118735552D02*
X221125980Y-118783171D01*
X221125980Y-118783171D02*
X221173600Y-118830790D01*
X221173600Y-118830790D02*
X221221219Y-118926028D01*
X221221219Y-118926028D02*
X221221219Y-119021266D01*
X221221219Y-119021266D02*
X221173600Y-119116504D01*
X221173600Y-119116504D02*
X221125980Y-119164123D01*
X221125980Y-119164123D02*
X221030742Y-119211742D01*
X221030742Y-119211742D02*
X220840266Y-119259361D01*
X220840266Y-119259361D02*
X220602171Y-119259361D01*
X220602171Y-119259361D02*
X220411695Y-119211742D01*
X220411695Y-119211742D02*
X220316457Y-119164123D01*
X220316457Y-119164123D02*
X220268838Y-119116504D01*
X220268838Y-119116504D02*
X220221219Y-119021266D01*
X221221219Y-118306980D02*
X221221219Y-118068885D01*
X221221219Y-118068885D02*
X221030742Y-118068885D01*
X221030742Y-118068885D02*
X220983123Y-118164123D01*
X220983123Y-118164123D02*
X220887885Y-118259361D01*
X220887885Y-118259361D02*
X220745028Y-118306980D01*
X220745028Y-118306980D02*
X220506933Y-118306980D01*
X220506933Y-118306980D02*
X220364076Y-118259361D01*
X220364076Y-118259361D02*
X220268838Y-118164123D01*
X220268838Y-118164123D02*
X220221219Y-118021266D01*
X220221219Y-118021266D02*
X220221219Y-117830790D01*
X220221219Y-117830790D02*
X220268838Y-117687933D01*
X220268838Y-117687933D02*
X220364076Y-117592695D01*
X220364076Y-117592695D02*
X220506933Y-117545076D01*
X220506933Y-117545076D02*
X220745028Y-117545076D01*
X220745028Y-117545076D02*
X220887885Y-117592695D01*
X220887885Y-117592695D02*
X220983123Y-117687933D01*
X220983123Y-117687933D02*
X221030742Y-117783171D01*
X221030742Y-117783171D02*
X221221219Y-117783171D01*
X221221219Y-117783171D02*
X221221219Y-117545076D01*
D12*
X219173869Y-119474599D02*
X218831012Y-119714599D01*
X219173869Y-119886028D02*
X218453869Y-119886028D01*
X218453869Y-119886028D02*
X218453869Y-119611742D01*
X218453869Y-119611742D02*
X218488155Y-119543171D01*
X218488155Y-119543171D02*
X218522441Y-119508885D01*
X218522441Y-119508885D02*
X218591012Y-119474599D01*
X218591012Y-119474599D02*
X218693869Y-119474599D01*
X218693869Y-119474599D02*
X218762441Y-119508885D01*
X218762441Y-119508885D02*
X218796726Y-119543171D01*
X218796726Y-119543171D02*
X218831012Y-119611742D01*
X218831012Y-119611742D02*
X218831012Y-119886028D01*
X219173869Y-118788885D02*
X219173869Y-119200314D01*
X219173869Y-118994599D02*
X218453869Y-118994599D01*
X218453869Y-118994599D02*
X218556726Y-119063171D01*
X218556726Y-119063171D02*
X218625298Y-119131742D01*
X218625298Y-119131742D02*
X218659584Y-119200314D01*
D10*
X221612619Y-108803866D02*
X221612619Y-109375294D01*
X221612619Y-109089580D02*
X220612619Y-109089580D01*
X220612619Y-109089580D02*
X220755476Y-109184818D01*
X220755476Y-109184818D02*
X220850714Y-109280056D01*
X220850714Y-109280056D02*
X220898333Y-109375294D01*
X221612619Y-108375294D02*
X220612619Y-108375294D01*
X220612619Y-108375294D02*
X221612619Y-107803866D01*
X221612619Y-107803866D02*
X220612619Y-107803866D01*
X221612619Y-107280056D02*
X221612619Y-107089580D01*
X221612619Y-107089580D02*
X221565000Y-106994342D01*
X221565000Y-106994342D02*
X221517380Y-106946723D01*
X221517380Y-106946723D02*
X221374523Y-106851485D01*
X221374523Y-106851485D02*
X221184047Y-106803866D01*
X221184047Y-106803866D02*
X220803095Y-106803866D01*
X220803095Y-106803866D02*
X220707857Y-106851485D01*
X220707857Y-106851485D02*
X220660238Y-106899104D01*
X220660238Y-106899104D02*
X220612619Y-106994342D01*
X220612619Y-106994342D02*
X220612619Y-107184818D01*
X220612619Y-107184818D02*
X220660238Y-107280056D01*
X220660238Y-107280056D02*
X220707857Y-107327675D01*
X220707857Y-107327675D02*
X220803095Y-107375294D01*
X220803095Y-107375294D02*
X221041190Y-107375294D01*
X221041190Y-107375294D02*
X221136428Y-107327675D01*
X221136428Y-107327675D02*
X221184047Y-107280056D01*
X221184047Y-107280056D02*
X221231666Y-107184818D01*
X221231666Y-107184818D02*
X221231666Y-106994342D01*
X221231666Y-106994342D02*
X221184047Y-106899104D01*
X221184047Y-106899104D02*
X221136428Y-106851485D01*
X221136428Y-106851485D02*
X221041190Y-106803866D01*
X221612619Y-105851485D02*
X221612619Y-106422913D01*
X221612619Y-106137199D02*
X220612619Y-106137199D01*
X220612619Y-106137199D02*
X220755476Y-106232437D01*
X220755476Y-106232437D02*
X220850714Y-106327675D01*
X220850714Y-106327675D02*
X220898333Y-106422913D01*
X220945952Y-104994342D02*
X221612619Y-104994342D01*
X220565000Y-105232437D02*
X221279285Y-105470532D01*
X221279285Y-105470532D02*
X221279285Y-104851485D01*
D13*
X219235655Y-107173675D02*
X218435655Y-107173675D01*
X218435655Y-107173675D02*
X218435655Y-106983199D01*
X218435655Y-106983199D02*
X218473750Y-106868913D01*
X218473750Y-106868913D02*
X218549940Y-106792723D01*
X218549940Y-106792723D02*
X218626131Y-106754628D01*
X218626131Y-106754628D02*
X218778512Y-106716532D01*
X218778512Y-106716532D02*
X218892798Y-106716532D01*
X218892798Y-106716532D02*
X219045179Y-106754628D01*
X219045179Y-106754628D02*
X219121369Y-106792723D01*
X219121369Y-106792723D02*
X219197560Y-106868913D01*
X219197560Y-106868913D02*
X219235655Y-106983199D01*
X219235655Y-106983199D02*
X219235655Y-107173675D01*
X219235655Y-105954628D02*
X219235655Y-106411771D01*
X219235655Y-106183199D02*
X218435655Y-106183199D01*
X218435655Y-106183199D02*
X218549940Y-106259390D01*
X218549940Y-106259390D02*
X218626131Y-106335580D01*
X218626131Y-106335580D02*
X218664226Y-106411771D01*
D10*
X214297419Y-108676866D02*
X214297419Y-109248294D01*
X214297419Y-108962580D02*
X213297419Y-108962580D01*
X213297419Y-108962580D02*
X213440276Y-109057818D01*
X213440276Y-109057818D02*
X213535514Y-109153056D01*
X213535514Y-109153056D02*
X213583133Y-109248294D01*
X214297419Y-108248294D02*
X213297419Y-108248294D01*
X213297419Y-108248294D02*
X214297419Y-107676866D01*
X214297419Y-107676866D02*
X213297419Y-107676866D01*
X214297419Y-107153056D02*
X214297419Y-106962580D01*
X214297419Y-106962580D02*
X214249800Y-106867342D01*
X214249800Y-106867342D02*
X214202180Y-106819723D01*
X214202180Y-106819723D02*
X214059323Y-106724485D01*
X214059323Y-106724485D02*
X213868847Y-106676866D01*
X213868847Y-106676866D02*
X213487895Y-106676866D01*
X213487895Y-106676866D02*
X213392657Y-106724485D01*
X213392657Y-106724485D02*
X213345038Y-106772104D01*
X213345038Y-106772104D02*
X213297419Y-106867342D01*
X213297419Y-106867342D02*
X213297419Y-107057818D01*
X213297419Y-107057818D02*
X213345038Y-107153056D01*
X213345038Y-107153056D02*
X213392657Y-107200675D01*
X213392657Y-107200675D02*
X213487895Y-107248294D01*
X213487895Y-107248294D02*
X213725990Y-107248294D01*
X213725990Y-107248294D02*
X213821228Y-107200675D01*
X213821228Y-107200675D02*
X213868847Y-107153056D01*
X213868847Y-107153056D02*
X213916466Y-107057818D01*
X213916466Y-107057818D02*
X213916466Y-106867342D01*
X213916466Y-106867342D02*
X213868847Y-106772104D01*
X213868847Y-106772104D02*
X213821228Y-106724485D01*
X213821228Y-106724485D02*
X213725990Y-106676866D01*
X214297419Y-105724485D02*
X214297419Y-106295913D01*
X214297419Y-106010199D02*
X213297419Y-106010199D01*
X213297419Y-106010199D02*
X213440276Y-106105437D01*
X213440276Y-106105437D02*
X213535514Y-106200675D01*
X213535514Y-106200675D02*
X213583133Y-106295913D01*
X213630752Y-104867342D02*
X214297419Y-104867342D01*
X213249800Y-105105437D02*
X213964085Y-105343532D01*
X213964085Y-105343532D02*
X213964085Y-104724485D01*
D13*
X216695655Y-107773675D02*
X215895655Y-107773675D01*
X215895655Y-107773675D02*
X215895655Y-107583199D01*
X215895655Y-107583199D02*
X215933750Y-107468913D01*
X215933750Y-107468913D02*
X216009940Y-107392723D01*
X216009940Y-107392723D02*
X216086131Y-107354628D01*
X216086131Y-107354628D02*
X216238512Y-107316532D01*
X216238512Y-107316532D02*
X216352798Y-107316532D01*
X216352798Y-107316532D02*
X216505179Y-107354628D01*
X216505179Y-107354628D02*
X216581369Y-107392723D01*
X216581369Y-107392723D02*
X216657560Y-107468913D01*
X216657560Y-107468913D02*
X216695655Y-107583199D01*
X216695655Y-107583199D02*
X216695655Y-107773675D01*
X215971845Y-107011771D02*
X215933750Y-106973675D01*
X215933750Y-106973675D02*
X215895655Y-106897485D01*
X215895655Y-106897485D02*
X215895655Y-106707009D01*
X215895655Y-106707009D02*
X215933750Y-106630818D01*
X215933750Y-106630818D02*
X215971845Y-106592723D01*
X215971845Y-106592723D02*
X216048036Y-106554628D01*
X216048036Y-106554628D02*
X216124226Y-106554628D01*
X216124226Y-106554628D02*
X216238512Y-106592723D01*
X216238512Y-106592723D02*
X216695655Y-107049866D01*
X216695655Y-107049866D02*
X216695655Y-106554628D01*
X217277200Y-117409200D02*
X215437200Y-117409200D01*
X215437200Y-117409200D02*
X215437200Y-121249200D01*
X217277200Y-121249200D02*
X217277200Y-117409200D01*
X216357200Y-116459200D02*
X216357200Y-117409200D01*
X215437200Y-121249200D02*
X217277200Y-121249200D01*
X216357200Y-122199200D02*
X216357200Y-121249200D01*
X219766400Y-117434600D02*
X217926400Y-117434600D01*
X217926400Y-117434600D02*
X217926400Y-121274600D01*
X219766400Y-121274600D02*
X219766400Y-117434600D01*
X218846400Y-116484600D02*
X218846400Y-117434600D01*
X217926400Y-121274600D02*
X219766400Y-121274600D01*
X218846400Y-122224600D02*
X218846400Y-121274600D01*
X218871800Y-109653200D02*
X218871800Y-109003200D01*
X217751800Y-109003200D02*
X219991800Y-109003200D01*
X219991800Y-109003200D02*
X219991800Y-104763200D01*
X217751800Y-108403200D02*
X219991800Y-108403200D01*
X217751800Y-108283200D02*
X219991800Y-108283200D01*
X217751800Y-108163200D02*
X219991800Y-108163200D01*
X217751800Y-104763200D02*
X217751800Y-109003200D01*
X219991800Y-104763200D02*
X217751800Y-104763200D01*
X218871800Y-104113200D02*
X218871800Y-104763200D01*
X215030000Y-100270000D02*
X215030000Y-99000000D01*
X216300000Y-100270000D02*
X215030000Y-100270000D01*
X218460000Y-97957071D02*
X218460000Y-97560000D01*
X219220000Y-97957071D02*
X219220000Y-97560000D01*
X221000000Y-97957071D02*
X221000000Y-97560000D01*
X221760000Y-97957071D02*
X221760000Y-97560000D01*
X223540000Y-97957071D02*
X223540000Y-97560000D01*
X224300000Y-97957071D02*
X224300000Y-97560000D01*
X226080000Y-97957071D02*
X226080000Y-97560000D01*
X226840000Y-97957071D02*
X226840000Y-97560000D01*
X228620000Y-97957071D02*
X228620000Y-97560000D01*
X229380000Y-97957071D02*
X229380000Y-97560000D01*
X215920000Y-97890000D02*
X215920000Y-97560000D01*
X216680000Y-97890000D02*
X216680000Y-97560000D01*
X214970000Y-97560000D02*
X230330000Y-97560000D01*
X217570000Y-97560000D02*
X217570000Y-94900000D01*
X220110000Y-97560000D02*
X220110000Y-94900000D01*
X222650000Y-97560000D02*
X222650000Y-94900000D01*
X225190000Y-97560000D02*
X225190000Y-94900000D01*
X227730000Y-97560000D02*
X227730000Y-94900000D01*
X230330000Y-97560000D02*
X230330000Y-94900000D01*
X214970000Y-94900000D02*
X214970000Y-97560000D01*
X215920000Y-94900000D02*
X215920000Y-88900000D01*
X215980000Y-94900000D02*
X215980000Y-88900000D01*
X216100000Y-94900000D02*
X216100000Y-88900000D01*
X216220000Y-94900000D02*
X216220000Y-88900000D01*
X216340000Y-94900000D02*
X216340000Y-88900000D01*
X216460000Y-94900000D02*
X216460000Y-88900000D01*
X216580000Y-94900000D02*
X216580000Y-88900000D01*
X218460000Y-94900000D02*
X218460000Y-88900000D01*
X221000000Y-94900000D02*
X221000000Y-88900000D01*
X223540000Y-94900000D02*
X223540000Y-88900000D01*
X226080000Y-94900000D02*
X226080000Y-88900000D01*
X228620000Y-94900000D02*
X228620000Y-88900000D01*
X230330000Y-94900000D02*
X214970000Y-94900000D01*
X215920000Y-88900000D02*
X216680000Y-88900000D01*
X216680000Y-88900000D02*
X216680000Y-94900000D01*
X218460000Y-88900000D02*
X219220000Y-88900000D01*
X219220000Y-88900000D02*
X219220000Y-94900000D01*
X221000000Y-88900000D02*
X221760000Y-88900000D01*
X221760000Y-88900000D02*
X221760000Y-94900000D01*
X223540000Y-88900000D02*
X224300000Y-88900000D01*
X224300000Y-88900000D02*
X224300000Y-94900000D01*
X226080000Y-88900000D02*
X226840000Y-88900000D01*
X226840000Y-88900000D02*
X226840000Y-94900000D01*
X228620000Y-88900000D02*
X229380000Y-88900000D01*
X229380000Y-88900000D02*
X229380000Y-94900000D01*
X216331800Y-104113200D02*
X216331800Y-104763200D01*
X217451800Y-104763200D02*
X215211800Y-104763200D01*
X215211800Y-104763200D02*
X215211800Y-109003200D01*
X217451800Y-105363200D02*
X215211800Y-105363200D01*
X217451800Y-105483200D02*
X215211800Y-105483200D01*
X217451800Y-105603200D02*
X215211800Y-105603200D01*
X217451800Y-109003200D02*
X217451800Y-104763200D01*
X215211800Y-109003200D02*
X217451800Y-109003200D01*
X216331800Y-109653200D02*
X216331800Y-109003200D01*
D14*
X202412600Y-146862800D02*
X211302600Y-146862800D01*
X211302600Y-146862800D02*
X211302600Y-88849200D01*
X211302600Y-88849200D02*
X202412600Y-88849200D01*
X202412600Y-88849200D02*
X202412600Y-146862800D01*
%LPC*%
D15*
X216357200Y-123139200D03*
D16*
X216357200Y-115519200D03*
D15*
X218846400Y-123164600D03*
D16*
X218846400Y-115544600D03*
D17*
X218871800Y-110693200D03*
D18*
X218871800Y-103073200D03*
D19*
X216300000Y-99000000D03*
D20*
X218840000Y-99000000D03*
X221380000Y-99000000D03*
X223920000Y-99000000D03*
X226460000Y-99000000D03*
X229000000Y-99000000D03*
D17*
X216331800Y-103073200D03*
D18*
X216331800Y-110693200D03*
D21*
X206883000Y-91186000D03*
X206883000Y-93726000D03*
X206883000Y-96266000D03*
X206883000Y-98806000D03*
X206883000Y-101346000D03*
X206883000Y-103886000D03*
X206883000Y-106426000D03*
X206883000Y-108966000D03*
X206883000Y-111506000D03*
X206883000Y-114046000D03*
X206883000Y-116586000D03*
X206883000Y-119126000D03*
X206883000Y-121666000D03*
X206883000Y-124206000D03*
X206883000Y-126746000D03*
X206883000Y-129286000D03*
X206883000Y-131826000D03*
X206883000Y-134366000D03*
X206883000Y-136906000D03*
X206883000Y-139446000D03*
X206883000Y-141986000D03*
X206883000Y-144526000D03*
%LPD*%
M02*
