G04 #@! TF.GenerationSoftware,KiCad,Pcbnew,7.0.8*
G04 #@! TF.CreationDate,2023-11-17T23:06:40-08:00*
G04 #@! TF.ProjectId,COMiX-FTDI-Adapter,434f4d69-582d-4465-9444-492d41646170,rev?*
G04 #@! TF.SameCoordinates,Original*
G04 #@! TF.FileFunction,Legend,Top*
G04 #@! TF.FilePolarity,Positive*
%FSLAX46Y46*%
G04 Gerber Fmt 4.6, Leading zero omitted, Abs format (unit mm)*
G04 Created by KiCad (PCBNEW 7.0.8) date 2023-11-17 23:06:40*
%MOMM*%
%LPD*%
G01*
G04 APERTURE LIST*
%ADD10C,0.150000*%
%ADD11C,0.304800*%
%ADD12C,0.120000*%
%ADD13C,0.100000*%
%ADD14R,1.600000X1.600000*%
%ADD15O,1.600000X1.600000*%
%ADD16R,1.700000X1.700000*%
%ADD17O,1.700000X1.700000*%
%ADD18C,1.600000*%
%ADD19R,8.890000X1.397000*%
G04 APERTURE END LIST*
D10*
X244596664Y-97659819D02*
X244325731Y-97183628D01*
X244132207Y-97659819D02*
X244132207Y-96659819D01*
X244132207Y-96659819D02*
X244441845Y-96659819D01*
X244441845Y-96659819D02*
X244519255Y-96707438D01*
X244519255Y-96707438D02*
X244557960Y-96755057D01*
X244557960Y-96755057D02*
X244596664Y-96850295D01*
X244596664Y-96850295D02*
X244596664Y-96993152D01*
X244596664Y-96993152D02*
X244557960Y-97088390D01*
X244557960Y-97088390D02*
X244519255Y-97136009D01*
X244519255Y-97136009D02*
X244441845Y-97183628D01*
X244441845Y-97183628D02*
X244132207Y-97183628D01*
X244867598Y-97659819D02*
X245293350Y-96993152D01*
X244867598Y-96993152D02*
X245293350Y-97659819D01*
X236493460Y-96707438D02*
X236416050Y-96659819D01*
X236416050Y-96659819D02*
X236299936Y-96659819D01*
X236299936Y-96659819D02*
X236183822Y-96707438D01*
X236183822Y-96707438D02*
X236106412Y-96802676D01*
X236106412Y-96802676D02*
X236067707Y-96897914D01*
X236067707Y-96897914D02*
X236029003Y-97088390D01*
X236029003Y-97088390D02*
X236029003Y-97231247D01*
X236029003Y-97231247D02*
X236067707Y-97421723D01*
X236067707Y-97421723D02*
X236106412Y-97516961D01*
X236106412Y-97516961D02*
X236183822Y-97612200D01*
X236183822Y-97612200D02*
X236299936Y-97659819D01*
X236299936Y-97659819D02*
X236377345Y-97659819D01*
X236377345Y-97659819D02*
X236493460Y-97612200D01*
X236493460Y-97612200D02*
X236532164Y-97564580D01*
X236532164Y-97564580D02*
X236532164Y-97231247D01*
X236532164Y-97231247D02*
X236377345Y-97231247D01*
X236880507Y-97659819D02*
X236880507Y-96659819D01*
X236880507Y-96659819D02*
X237344964Y-97659819D01*
X237344964Y-97659819D02*
X237344964Y-96659819D01*
X237732012Y-97659819D02*
X237732012Y-96659819D01*
X237732012Y-96659819D02*
X237925536Y-96659819D01*
X237925536Y-96659819D02*
X238041650Y-96707438D01*
X238041650Y-96707438D02*
X238119060Y-96802676D01*
X238119060Y-96802676D02*
X238157765Y-96897914D01*
X238157765Y-96897914D02*
X238196469Y-97088390D01*
X238196469Y-97088390D02*
X238196469Y-97231247D01*
X238196469Y-97231247D02*
X238157765Y-97421723D01*
X238157765Y-97421723D02*
X238119060Y-97516961D01*
X238119060Y-97516961D02*
X238041650Y-97612200D01*
X238041650Y-97612200D02*
X237925536Y-97659819D01*
X237925536Y-97659819D02*
X237732012Y-97659819D01*
X246683093Y-96659819D02*
X247147550Y-96659819D01*
X246915322Y-97659819D02*
X246915322Y-96659819D01*
X247341074Y-97659819D02*
X247766826Y-96993152D01*
X247341074Y-96993152D02*
X247766826Y-97659819D01*
D11*
X224857478Y-130412908D02*
X224760716Y-130509670D01*
X224760716Y-130509670D02*
X224470430Y-130606431D01*
X224470430Y-130606431D02*
X224276906Y-130606431D01*
X224276906Y-130606431D02*
X223986621Y-130509670D01*
X223986621Y-130509670D02*
X223793097Y-130316146D01*
X223793097Y-130316146D02*
X223696335Y-130122622D01*
X223696335Y-130122622D02*
X223599573Y-129735574D01*
X223599573Y-129735574D02*
X223599573Y-129445289D01*
X223599573Y-129445289D02*
X223696335Y-129058241D01*
X223696335Y-129058241D02*
X223793097Y-128864717D01*
X223793097Y-128864717D02*
X223986621Y-128671193D01*
X223986621Y-128671193D02*
X224276906Y-128574431D01*
X224276906Y-128574431D02*
X224470430Y-128574431D01*
X224470430Y-128574431D02*
X224760716Y-128671193D01*
X224760716Y-128671193D02*
X224857478Y-128767955D01*
X226115383Y-128574431D02*
X226502430Y-128574431D01*
X226502430Y-128574431D02*
X226695954Y-128671193D01*
X226695954Y-128671193D02*
X226889478Y-128864717D01*
X226889478Y-128864717D02*
X226986240Y-129251765D01*
X226986240Y-129251765D02*
X226986240Y-129929098D01*
X226986240Y-129929098D02*
X226889478Y-130316146D01*
X226889478Y-130316146D02*
X226695954Y-130509670D01*
X226695954Y-130509670D02*
X226502430Y-130606431D01*
X226502430Y-130606431D02*
X226115383Y-130606431D01*
X226115383Y-130606431D02*
X225921859Y-130509670D01*
X225921859Y-130509670D02*
X225728335Y-130316146D01*
X225728335Y-130316146D02*
X225631573Y-129929098D01*
X225631573Y-129929098D02*
X225631573Y-129251765D01*
X225631573Y-129251765D02*
X225728335Y-128864717D01*
X225728335Y-128864717D02*
X225921859Y-128671193D01*
X225921859Y-128671193D02*
X226115383Y-128574431D01*
X227857097Y-130606431D02*
X227857097Y-128574431D01*
X227857097Y-128574431D02*
X228534430Y-130025860D01*
X228534430Y-130025860D02*
X229211764Y-128574431D01*
X229211764Y-128574431D02*
X229211764Y-130606431D01*
X230179383Y-130606431D02*
X230179383Y-129251765D01*
X230179383Y-128574431D02*
X230082621Y-128671193D01*
X230082621Y-128671193D02*
X230179383Y-128767955D01*
X230179383Y-128767955D02*
X230276145Y-128671193D01*
X230276145Y-128671193D02*
X230179383Y-128574431D01*
X230179383Y-128574431D02*
X230179383Y-128767955D01*
X230953478Y-128574431D02*
X232308145Y-130606431D01*
X232308145Y-128574431D02*
X230953478Y-130606431D01*
X233082240Y-129832336D02*
X234630431Y-129832336D01*
X235404526Y-128574431D02*
X236662431Y-128574431D01*
X236662431Y-128574431D02*
X235985098Y-129348527D01*
X235985098Y-129348527D02*
X236275383Y-129348527D01*
X236275383Y-129348527D02*
X236468907Y-129445289D01*
X236468907Y-129445289D02*
X236565669Y-129542050D01*
X236565669Y-129542050D02*
X236662431Y-129735574D01*
X236662431Y-129735574D02*
X236662431Y-130219384D01*
X236662431Y-130219384D02*
X236565669Y-130412908D01*
X236565669Y-130412908D02*
X236468907Y-130509670D01*
X236468907Y-130509670D02*
X236275383Y-130606431D01*
X236275383Y-130606431D02*
X235694812Y-130606431D01*
X235694812Y-130606431D02*
X235501288Y-130509670D01*
X235501288Y-130509670D02*
X235404526Y-130412908D01*
X238500907Y-128574431D02*
X237533288Y-128574431D01*
X237533288Y-128574431D02*
X237436526Y-129542050D01*
X237436526Y-129542050D02*
X237533288Y-129445289D01*
X237533288Y-129445289D02*
X237726812Y-129348527D01*
X237726812Y-129348527D02*
X238210621Y-129348527D01*
X238210621Y-129348527D02*
X238404145Y-129445289D01*
X238404145Y-129445289D02*
X238500907Y-129542050D01*
X238500907Y-129542050D02*
X238597669Y-129735574D01*
X238597669Y-129735574D02*
X238597669Y-130219384D01*
X238597669Y-130219384D02*
X238500907Y-130412908D01*
X238500907Y-130412908D02*
X238404145Y-130509670D01*
X238404145Y-130509670D02*
X238210621Y-130606431D01*
X238210621Y-130606431D02*
X237726812Y-130606431D01*
X237726812Y-130606431D02*
X237533288Y-130509670D01*
X237533288Y-130509670D02*
X237436526Y-130412908D01*
X223696335Y-133877951D02*
X223696335Y-131845951D01*
X223696335Y-132813570D02*
X224857478Y-132813570D01*
X224857478Y-133877951D02*
X224857478Y-131845951D01*
X225825097Y-133877951D02*
X225825097Y-132523285D01*
X225825097Y-131845951D02*
X225728335Y-131942713D01*
X225728335Y-131942713D02*
X225825097Y-132039475D01*
X225825097Y-132039475D02*
X225921859Y-131942713D01*
X225921859Y-131942713D02*
X225825097Y-131845951D01*
X225825097Y-131845951D02*
X225825097Y-132039475D01*
X227663573Y-132523285D02*
X227663573Y-134168237D01*
X227663573Y-134168237D02*
X227566811Y-134361761D01*
X227566811Y-134361761D02*
X227470049Y-134458523D01*
X227470049Y-134458523D02*
X227276526Y-134555285D01*
X227276526Y-134555285D02*
X226986240Y-134555285D01*
X226986240Y-134555285D02*
X226792716Y-134458523D01*
X227663573Y-133781190D02*
X227470049Y-133877951D01*
X227470049Y-133877951D02*
X227083002Y-133877951D01*
X227083002Y-133877951D02*
X226889478Y-133781190D01*
X226889478Y-133781190D02*
X226792716Y-133684428D01*
X226792716Y-133684428D02*
X226695954Y-133490904D01*
X226695954Y-133490904D02*
X226695954Y-132910332D01*
X226695954Y-132910332D02*
X226792716Y-132716809D01*
X226792716Y-132716809D02*
X226889478Y-132620047D01*
X226889478Y-132620047D02*
X227083002Y-132523285D01*
X227083002Y-132523285D02*
X227470049Y-132523285D01*
X227470049Y-132523285D02*
X227663573Y-132620047D01*
X228631192Y-133877951D02*
X228631192Y-131845951D01*
X229502049Y-133877951D02*
X229502049Y-132813570D01*
X229502049Y-132813570D02*
X229405287Y-132620047D01*
X229405287Y-132620047D02*
X229211763Y-132523285D01*
X229211763Y-132523285D02*
X228921478Y-132523285D01*
X228921478Y-132523285D02*
X228727954Y-132620047D01*
X228727954Y-132620047D02*
X228631192Y-132716809D01*
X231921096Y-133781190D02*
X232211382Y-133877951D01*
X232211382Y-133877951D02*
X232695191Y-133877951D01*
X232695191Y-133877951D02*
X232888715Y-133781190D01*
X232888715Y-133781190D02*
X232985477Y-133684428D01*
X232985477Y-133684428D02*
X233082239Y-133490904D01*
X233082239Y-133490904D02*
X233082239Y-133297380D01*
X233082239Y-133297380D02*
X232985477Y-133103856D01*
X232985477Y-133103856D02*
X232888715Y-133007094D01*
X232888715Y-133007094D02*
X232695191Y-132910332D01*
X232695191Y-132910332D02*
X232308144Y-132813570D01*
X232308144Y-132813570D02*
X232114620Y-132716809D01*
X232114620Y-132716809D02*
X232017858Y-132620047D01*
X232017858Y-132620047D02*
X231921096Y-132426523D01*
X231921096Y-132426523D02*
X231921096Y-132232999D01*
X231921096Y-132232999D02*
X232017858Y-132039475D01*
X232017858Y-132039475D02*
X232114620Y-131942713D01*
X232114620Y-131942713D02*
X232308144Y-131845951D01*
X232308144Y-131845951D02*
X232791953Y-131845951D01*
X232791953Y-131845951D02*
X233082239Y-131942713D01*
X233953096Y-132523285D02*
X233953096Y-134555285D01*
X233953096Y-132620047D02*
X234146620Y-132523285D01*
X234146620Y-132523285D02*
X234533667Y-132523285D01*
X234533667Y-132523285D02*
X234727191Y-132620047D01*
X234727191Y-132620047D02*
X234823953Y-132716809D01*
X234823953Y-132716809D02*
X234920715Y-132910332D01*
X234920715Y-132910332D02*
X234920715Y-133490904D01*
X234920715Y-133490904D02*
X234823953Y-133684428D01*
X234823953Y-133684428D02*
X234727191Y-133781190D01*
X234727191Y-133781190D02*
X234533667Y-133877951D01*
X234533667Y-133877951D02*
X234146620Y-133877951D01*
X234146620Y-133877951D02*
X233953096Y-133781190D01*
X236565667Y-133781190D02*
X236372143Y-133877951D01*
X236372143Y-133877951D02*
X235985096Y-133877951D01*
X235985096Y-133877951D02*
X235791572Y-133781190D01*
X235791572Y-133781190D02*
X235694810Y-133587666D01*
X235694810Y-133587666D02*
X235694810Y-132813570D01*
X235694810Y-132813570D02*
X235791572Y-132620047D01*
X235791572Y-132620047D02*
X235985096Y-132523285D01*
X235985096Y-132523285D02*
X236372143Y-132523285D01*
X236372143Y-132523285D02*
X236565667Y-132620047D01*
X236565667Y-132620047D02*
X236662429Y-132813570D01*
X236662429Y-132813570D02*
X236662429Y-133007094D01*
X236662429Y-133007094D02*
X235694810Y-133200618D01*
X238307381Y-133781190D02*
X238113857Y-133877951D01*
X238113857Y-133877951D02*
X237726810Y-133877951D01*
X237726810Y-133877951D02*
X237533286Y-133781190D01*
X237533286Y-133781190D02*
X237436524Y-133587666D01*
X237436524Y-133587666D02*
X237436524Y-132813570D01*
X237436524Y-132813570D02*
X237533286Y-132620047D01*
X237533286Y-132620047D02*
X237726810Y-132523285D01*
X237726810Y-132523285D02*
X238113857Y-132523285D01*
X238113857Y-132523285D02*
X238307381Y-132620047D01*
X238307381Y-132620047D02*
X238404143Y-132813570D01*
X238404143Y-132813570D02*
X238404143Y-133007094D01*
X238404143Y-133007094D02*
X237436524Y-133200618D01*
X240145857Y-133877951D02*
X240145857Y-131845951D01*
X240145857Y-133781190D02*
X239952333Y-133877951D01*
X239952333Y-133877951D02*
X239565286Y-133877951D01*
X239565286Y-133877951D02*
X239371762Y-133781190D01*
X239371762Y-133781190D02*
X239275000Y-133684428D01*
X239275000Y-133684428D02*
X239178238Y-133490904D01*
X239178238Y-133490904D02*
X239178238Y-132910332D01*
X239178238Y-132910332D02*
X239275000Y-132716809D01*
X239275000Y-132716809D02*
X239371762Y-132620047D01*
X239371762Y-132620047D02*
X239565286Y-132523285D01*
X239565286Y-132523285D02*
X239952333Y-132523285D01*
X239952333Y-132523285D02*
X240145857Y-132620047D01*
X242661666Y-133877951D02*
X242661666Y-131845951D01*
X242661666Y-131845951D02*
X243145476Y-131845951D01*
X243145476Y-131845951D02*
X243435761Y-131942713D01*
X243435761Y-131942713D02*
X243629285Y-132136237D01*
X243629285Y-132136237D02*
X243726047Y-132329761D01*
X243726047Y-132329761D02*
X243822809Y-132716809D01*
X243822809Y-132716809D02*
X243822809Y-133007094D01*
X243822809Y-133007094D02*
X243726047Y-133394142D01*
X243726047Y-133394142D02*
X243629285Y-133587666D01*
X243629285Y-133587666D02*
X243435761Y-133781190D01*
X243435761Y-133781190D02*
X243145476Y-133877951D01*
X243145476Y-133877951D02*
X242661666Y-133877951D01*
X244693666Y-133877951D02*
X244693666Y-132523285D01*
X244693666Y-131845951D02*
X244596904Y-131942713D01*
X244596904Y-131942713D02*
X244693666Y-132039475D01*
X244693666Y-132039475D02*
X244790428Y-131942713D01*
X244790428Y-131942713D02*
X244693666Y-131845951D01*
X244693666Y-131845951D02*
X244693666Y-132039475D01*
X245661285Y-133877951D02*
X245661285Y-132523285D01*
X245661285Y-132910332D02*
X245758047Y-132716809D01*
X245758047Y-132716809D02*
X245854809Y-132620047D01*
X245854809Y-132620047D02*
X246048333Y-132523285D01*
X246048333Y-132523285D02*
X246241856Y-132523285D01*
X247693285Y-133781190D02*
X247499761Y-133877951D01*
X247499761Y-133877951D02*
X247112714Y-133877951D01*
X247112714Y-133877951D02*
X246919190Y-133781190D01*
X246919190Y-133781190D02*
X246822428Y-133587666D01*
X246822428Y-133587666D02*
X246822428Y-132813570D01*
X246822428Y-132813570D02*
X246919190Y-132620047D01*
X246919190Y-132620047D02*
X247112714Y-132523285D01*
X247112714Y-132523285D02*
X247499761Y-132523285D01*
X247499761Y-132523285D02*
X247693285Y-132620047D01*
X247693285Y-132620047D02*
X247790047Y-132813570D01*
X247790047Y-132813570D02*
X247790047Y-133007094D01*
X247790047Y-133007094D02*
X246822428Y-133200618D01*
X249531761Y-133781190D02*
X249338237Y-133877951D01*
X249338237Y-133877951D02*
X248951190Y-133877951D01*
X248951190Y-133877951D02*
X248757666Y-133781190D01*
X248757666Y-133781190D02*
X248660904Y-133684428D01*
X248660904Y-133684428D02*
X248564142Y-133490904D01*
X248564142Y-133490904D02*
X248564142Y-132910332D01*
X248564142Y-132910332D02*
X248660904Y-132716809D01*
X248660904Y-132716809D02*
X248757666Y-132620047D01*
X248757666Y-132620047D02*
X248951190Y-132523285D01*
X248951190Y-132523285D02*
X249338237Y-132523285D01*
X249338237Y-132523285D02*
X249531761Y-132620047D01*
X250112332Y-132523285D02*
X250886428Y-132523285D01*
X250402618Y-131845951D02*
X250402618Y-133587666D01*
X250402618Y-133587666D02*
X250499380Y-133781190D01*
X250499380Y-133781190D02*
X250692904Y-133877951D01*
X250692904Y-133877951D02*
X250886428Y-133877951D01*
X224857478Y-136955948D02*
X224760716Y-137052710D01*
X224760716Y-137052710D02*
X224470430Y-137149471D01*
X224470430Y-137149471D02*
X224276906Y-137149471D01*
X224276906Y-137149471D02*
X223986621Y-137052710D01*
X223986621Y-137052710D02*
X223793097Y-136859186D01*
X223793097Y-136859186D02*
X223696335Y-136665662D01*
X223696335Y-136665662D02*
X223599573Y-136278614D01*
X223599573Y-136278614D02*
X223599573Y-135988329D01*
X223599573Y-135988329D02*
X223696335Y-135601281D01*
X223696335Y-135601281D02*
X223793097Y-135407757D01*
X223793097Y-135407757D02*
X223986621Y-135214233D01*
X223986621Y-135214233D02*
X224276906Y-135117471D01*
X224276906Y-135117471D02*
X224470430Y-135117471D01*
X224470430Y-135117471D02*
X224760716Y-135214233D01*
X224760716Y-135214233D02*
X224857478Y-135310995D01*
X226018621Y-137149471D02*
X225825097Y-137052710D01*
X225825097Y-137052710D02*
X225728335Y-136955948D01*
X225728335Y-136955948D02*
X225631573Y-136762424D01*
X225631573Y-136762424D02*
X225631573Y-136181852D01*
X225631573Y-136181852D02*
X225728335Y-135988329D01*
X225728335Y-135988329D02*
X225825097Y-135891567D01*
X225825097Y-135891567D02*
X226018621Y-135794805D01*
X226018621Y-135794805D02*
X226308906Y-135794805D01*
X226308906Y-135794805D02*
X226502430Y-135891567D01*
X226502430Y-135891567D02*
X226599192Y-135988329D01*
X226599192Y-135988329D02*
X226695954Y-136181852D01*
X226695954Y-136181852D02*
X226695954Y-136762424D01*
X226695954Y-136762424D02*
X226599192Y-136955948D01*
X226599192Y-136955948D02*
X226502430Y-137052710D01*
X226502430Y-137052710D02*
X226308906Y-137149471D01*
X226308906Y-137149471D02*
X226018621Y-137149471D01*
X227566811Y-135794805D02*
X227566811Y-137149471D01*
X227566811Y-135988329D02*
X227663573Y-135891567D01*
X227663573Y-135891567D02*
X227857097Y-135794805D01*
X227857097Y-135794805D02*
X228147382Y-135794805D01*
X228147382Y-135794805D02*
X228340906Y-135891567D01*
X228340906Y-135891567D02*
X228437668Y-136085090D01*
X228437668Y-136085090D02*
X228437668Y-137149471D01*
X229405287Y-135794805D02*
X229405287Y-137149471D01*
X229405287Y-135988329D02*
X229502049Y-135891567D01*
X229502049Y-135891567D02*
X229695573Y-135794805D01*
X229695573Y-135794805D02*
X229985858Y-135794805D01*
X229985858Y-135794805D02*
X230179382Y-135891567D01*
X230179382Y-135891567D02*
X230276144Y-136085090D01*
X230276144Y-136085090D02*
X230276144Y-137149471D01*
X232017858Y-137052710D02*
X231824334Y-137149471D01*
X231824334Y-137149471D02*
X231437287Y-137149471D01*
X231437287Y-137149471D02*
X231243763Y-137052710D01*
X231243763Y-137052710D02*
X231147001Y-136859186D01*
X231147001Y-136859186D02*
X231147001Y-136085090D01*
X231147001Y-136085090D02*
X231243763Y-135891567D01*
X231243763Y-135891567D02*
X231437287Y-135794805D01*
X231437287Y-135794805D02*
X231824334Y-135794805D01*
X231824334Y-135794805D02*
X232017858Y-135891567D01*
X232017858Y-135891567D02*
X232114620Y-136085090D01*
X232114620Y-136085090D02*
X232114620Y-136278614D01*
X232114620Y-136278614D02*
X231147001Y-136472138D01*
X233856334Y-137052710D02*
X233662810Y-137149471D01*
X233662810Y-137149471D02*
X233275763Y-137149471D01*
X233275763Y-137149471D02*
X233082239Y-137052710D01*
X233082239Y-137052710D02*
X232985477Y-136955948D01*
X232985477Y-136955948D02*
X232888715Y-136762424D01*
X232888715Y-136762424D02*
X232888715Y-136181852D01*
X232888715Y-136181852D02*
X232985477Y-135988329D01*
X232985477Y-135988329D02*
X233082239Y-135891567D01*
X233082239Y-135891567D02*
X233275763Y-135794805D01*
X233275763Y-135794805D02*
X233662810Y-135794805D01*
X233662810Y-135794805D02*
X233856334Y-135891567D01*
X234436905Y-135794805D02*
X235211001Y-135794805D01*
X234727191Y-135117471D02*
X234727191Y-136859186D01*
X234727191Y-136859186D02*
X234823953Y-137052710D01*
X234823953Y-137052710D02*
X235017477Y-137149471D01*
X235017477Y-137149471D02*
X235211001Y-137149471D01*
X237339762Y-136568900D02*
X238307381Y-136568900D01*
X237146238Y-137149471D02*
X237823572Y-135117471D01*
X237823572Y-135117471D02*
X238500905Y-137149471D01*
X240049095Y-137149471D02*
X240049095Y-135117471D01*
X240049095Y-137052710D02*
X239855571Y-137149471D01*
X239855571Y-137149471D02*
X239468524Y-137149471D01*
X239468524Y-137149471D02*
X239275000Y-137052710D01*
X239275000Y-137052710D02*
X239178238Y-136955948D01*
X239178238Y-136955948D02*
X239081476Y-136762424D01*
X239081476Y-136762424D02*
X239081476Y-136181852D01*
X239081476Y-136181852D02*
X239178238Y-135988329D01*
X239178238Y-135988329D02*
X239275000Y-135891567D01*
X239275000Y-135891567D02*
X239468524Y-135794805D01*
X239468524Y-135794805D02*
X239855571Y-135794805D01*
X239855571Y-135794805D02*
X240049095Y-135891567D01*
X241887571Y-137149471D02*
X241887571Y-136085090D01*
X241887571Y-136085090D02*
X241790809Y-135891567D01*
X241790809Y-135891567D02*
X241597285Y-135794805D01*
X241597285Y-135794805D02*
X241210238Y-135794805D01*
X241210238Y-135794805D02*
X241016714Y-135891567D01*
X241887571Y-137052710D02*
X241694047Y-137149471D01*
X241694047Y-137149471D02*
X241210238Y-137149471D01*
X241210238Y-137149471D02*
X241016714Y-137052710D01*
X241016714Y-137052710D02*
X240919952Y-136859186D01*
X240919952Y-136859186D02*
X240919952Y-136665662D01*
X240919952Y-136665662D02*
X241016714Y-136472138D01*
X241016714Y-136472138D02*
X241210238Y-136375376D01*
X241210238Y-136375376D02*
X241694047Y-136375376D01*
X241694047Y-136375376D02*
X241887571Y-136278614D01*
X242855190Y-135794805D02*
X242855190Y-137826805D01*
X242855190Y-135891567D02*
X243048714Y-135794805D01*
X243048714Y-135794805D02*
X243435761Y-135794805D01*
X243435761Y-135794805D02*
X243629285Y-135891567D01*
X243629285Y-135891567D02*
X243726047Y-135988329D01*
X243726047Y-135988329D02*
X243822809Y-136181852D01*
X243822809Y-136181852D02*
X243822809Y-136762424D01*
X243822809Y-136762424D02*
X243726047Y-136955948D01*
X243726047Y-136955948D02*
X243629285Y-137052710D01*
X243629285Y-137052710D02*
X243435761Y-137149471D01*
X243435761Y-137149471D02*
X243048714Y-137149471D01*
X243048714Y-137149471D02*
X242855190Y-137052710D01*
X244403380Y-135794805D02*
X245177476Y-135794805D01*
X244693666Y-135117471D02*
X244693666Y-136859186D01*
X244693666Y-136859186D02*
X244790428Y-137052710D01*
X244790428Y-137052710D02*
X244983952Y-137149471D01*
X244983952Y-137149471D02*
X245177476Y-137149471D01*
X246628904Y-137052710D02*
X246435380Y-137149471D01*
X246435380Y-137149471D02*
X246048333Y-137149471D01*
X246048333Y-137149471D02*
X245854809Y-137052710D01*
X245854809Y-137052710D02*
X245758047Y-136859186D01*
X245758047Y-136859186D02*
X245758047Y-136085090D01*
X245758047Y-136085090D02*
X245854809Y-135891567D01*
X245854809Y-135891567D02*
X246048333Y-135794805D01*
X246048333Y-135794805D02*
X246435380Y-135794805D01*
X246435380Y-135794805D02*
X246628904Y-135891567D01*
X246628904Y-135891567D02*
X246725666Y-136085090D01*
X246725666Y-136085090D02*
X246725666Y-136278614D01*
X246725666Y-136278614D02*
X245758047Y-136472138D01*
X247596523Y-137149471D02*
X247596523Y-135794805D01*
X247596523Y-136181852D02*
X247693285Y-135988329D01*
X247693285Y-135988329D02*
X247790047Y-135891567D01*
X247790047Y-135891567D02*
X247983571Y-135794805D01*
X247983571Y-135794805D02*
X248177094Y-135794805D01*
D10*
X250009819Y-108727666D02*
X250009819Y-109299094D01*
X250009819Y-109013380D02*
X249009819Y-109013380D01*
X249009819Y-109013380D02*
X249152676Y-109108618D01*
X249152676Y-109108618D02*
X249247914Y-109203856D01*
X249247914Y-109203856D02*
X249295533Y-109299094D01*
X250009819Y-108299094D02*
X249009819Y-108299094D01*
X249009819Y-108299094D02*
X250009819Y-107727666D01*
X250009819Y-107727666D02*
X249009819Y-107727666D01*
X250009819Y-107203856D02*
X250009819Y-107013380D01*
X250009819Y-107013380D02*
X249962200Y-106918142D01*
X249962200Y-106918142D02*
X249914580Y-106870523D01*
X249914580Y-106870523D02*
X249771723Y-106775285D01*
X249771723Y-106775285D02*
X249581247Y-106727666D01*
X249581247Y-106727666D02*
X249200295Y-106727666D01*
X249200295Y-106727666D02*
X249105057Y-106775285D01*
X249105057Y-106775285D02*
X249057438Y-106822904D01*
X249057438Y-106822904D02*
X249009819Y-106918142D01*
X249009819Y-106918142D02*
X249009819Y-107108618D01*
X249009819Y-107108618D02*
X249057438Y-107203856D01*
X249057438Y-107203856D02*
X249105057Y-107251475D01*
X249105057Y-107251475D02*
X249200295Y-107299094D01*
X249200295Y-107299094D02*
X249438390Y-107299094D01*
X249438390Y-107299094D02*
X249533628Y-107251475D01*
X249533628Y-107251475D02*
X249581247Y-107203856D01*
X249581247Y-107203856D02*
X249628866Y-107108618D01*
X249628866Y-107108618D02*
X249628866Y-106918142D01*
X249628866Y-106918142D02*
X249581247Y-106822904D01*
X249581247Y-106822904D02*
X249533628Y-106775285D01*
X249533628Y-106775285D02*
X249438390Y-106727666D01*
X250009819Y-105775285D02*
X250009819Y-106346713D01*
X250009819Y-106060999D02*
X249009819Y-106060999D01*
X249009819Y-106060999D02*
X249152676Y-106156237D01*
X249152676Y-106156237D02*
X249247914Y-106251475D01*
X249247914Y-106251475D02*
X249295533Y-106346713D01*
X249343152Y-104918142D02*
X250009819Y-104918142D01*
X248962200Y-105156237D02*
X249676485Y-105394332D01*
X249676485Y-105394332D02*
X249676485Y-104775285D01*
D12*
X247632855Y-107097475D02*
X246832855Y-107097475D01*
X246832855Y-107097475D02*
X246832855Y-106906999D01*
X246832855Y-106906999D02*
X246870950Y-106792713D01*
X246870950Y-106792713D02*
X246947140Y-106716523D01*
X246947140Y-106716523D02*
X247023331Y-106678428D01*
X247023331Y-106678428D02*
X247175712Y-106640332D01*
X247175712Y-106640332D02*
X247289998Y-106640332D01*
X247289998Y-106640332D02*
X247442379Y-106678428D01*
X247442379Y-106678428D02*
X247518569Y-106716523D01*
X247518569Y-106716523D02*
X247594760Y-106792713D01*
X247594760Y-106792713D02*
X247632855Y-106906999D01*
X247632855Y-106906999D02*
X247632855Y-107097475D01*
X247632855Y-105878428D02*
X247632855Y-106335571D01*
X247632855Y-106106999D02*
X246832855Y-106106999D01*
X246832855Y-106106999D02*
X246947140Y-106183190D01*
X246947140Y-106183190D02*
X247023331Y-106259380D01*
X247023331Y-106259380D02*
X247061426Y-106335571D01*
D10*
X242998666Y-93434819D02*
X242998666Y-94149104D01*
X242998666Y-94149104D02*
X242951047Y-94291961D01*
X242951047Y-94291961D02*
X242855809Y-94387200D01*
X242855809Y-94387200D02*
X242712952Y-94434819D01*
X242712952Y-94434819D02*
X242617714Y-94434819D01*
X243427238Y-93530057D02*
X243474857Y-93482438D01*
X243474857Y-93482438D02*
X243570095Y-93434819D01*
X243570095Y-93434819D02*
X243808190Y-93434819D01*
X243808190Y-93434819D02*
X243903428Y-93482438D01*
X243903428Y-93482438D02*
X243951047Y-93530057D01*
X243951047Y-93530057D02*
X243998666Y-93625295D01*
X243998666Y-93625295D02*
X243998666Y-93720533D01*
X243998666Y-93720533D02*
X243951047Y-93863390D01*
X243951047Y-93863390D02*
X243379619Y-94434819D01*
X243379619Y-94434819D02*
X243998666Y-94434819D01*
X238593951Y-91625009D02*
X238260618Y-91625009D01*
X238260618Y-92148819D02*
X238260618Y-91148819D01*
X238260618Y-91148819D02*
X238736808Y-91148819D01*
X238974904Y-91148819D02*
X239546332Y-91148819D01*
X239260618Y-92148819D02*
X239260618Y-91148819D01*
X239879666Y-92148819D02*
X239879666Y-91148819D01*
X239879666Y-91148819D02*
X240117761Y-91148819D01*
X240117761Y-91148819D02*
X240260618Y-91196438D01*
X240260618Y-91196438D02*
X240355856Y-91291676D01*
X240355856Y-91291676D02*
X240403475Y-91386914D01*
X240403475Y-91386914D02*
X240451094Y-91577390D01*
X240451094Y-91577390D02*
X240451094Y-91720247D01*
X240451094Y-91720247D02*
X240403475Y-91910723D01*
X240403475Y-91910723D02*
X240355856Y-92005961D01*
X240355856Y-92005961D02*
X240260618Y-92101200D01*
X240260618Y-92101200D02*
X240117761Y-92148819D01*
X240117761Y-92148819D02*
X239879666Y-92148819D01*
X240879666Y-92148819D02*
X240879666Y-91148819D01*
X242689189Y-92053580D02*
X242641570Y-92101200D01*
X242641570Y-92101200D02*
X242498713Y-92148819D01*
X242498713Y-92148819D02*
X242403475Y-92148819D01*
X242403475Y-92148819D02*
X242260618Y-92101200D01*
X242260618Y-92101200D02*
X242165380Y-92005961D01*
X242165380Y-92005961D02*
X242117761Y-91910723D01*
X242117761Y-91910723D02*
X242070142Y-91720247D01*
X242070142Y-91720247D02*
X242070142Y-91577390D01*
X242070142Y-91577390D02*
X242117761Y-91386914D01*
X242117761Y-91386914D02*
X242165380Y-91291676D01*
X242165380Y-91291676D02*
X242260618Y-91196438D01*
X242260618Y-91196438D02*
X242403475Y-91148819D01*
X242403475Y-91148819D02*
X242498713Y-91148819D01*
X242498713Y-91148819D02*
X242641570Y-91196438D01*
X242641570Y-91196438D02*
X242689189Y-91244057D01*
X243260618Y-92148819D02*
X243165380Y-92101200D01*
X243165380Y-92101200D02*
X243117761Y-92053580D01*
X243117761Y-92053580D02*
X243070142Y-91958342D01*
X243070142Y-91958342D02*
X243070142Y-91672628D01*
X243070142Y-91672628D02*
X243117761Y-91577390D01*
X243117761Y-91577390D02*
X243165380Y-91529771D01*
X243165380Y-91529771D02*
X243260618Y-91482152D01*
X243260618Y-91482152D02*
X243403475Y-91482152D01*
X243403475Y-91482152D02*
X243498713Y-91529771D01*
X243498713Y-91529771D02*
X243546332Y-91577390D01*
X243546332Y-91577390D02*
X243593951Y-91672628D01*
X243593951Y-91672628D02*
X243593951Y-91958342D01*
X243593951Y-91958342D02*
X243546332Y-92053580D01*
X243546332Y-92053580D02*
X243498713Y-92101200D01*
X243498713Y-92101200D02*
X243403475Y-92148819D01*
X243403475Y-92148819D02*
X243260618Y-92148819D01*
X244022523Y-91482152D02*
X244022523Y-92148819D01*
X244022523Y-91577390D02*
X244070142Y-91529771D01*
X244070142Y-91529771D02*
X244165380Y-91482152D01*
X244165380Y-91482152D02*
X244308237Y-91482152D01*
X244308237Y-91482152D02*
X244403475Y-91529771D01*
X244403475Y-91529771D02*
X244451094Y-91625009D01*
X244451094Y-91625009D02*
X244451094Y-92148819D01*
X244927285Y-91482152D02*
X244927285Y-92148819D01*
X244927285Y-91577390D02*
X244974904Y-91529771D01*
X244974904Y-91529771D02*
X245070142Y-91482152D01*
X245070142Y-91482152D02*
X245212999Y-91482152D01*
X245212999Y-91482152D02*
X245308237Y-91529771D01*
X245308237Y-91529771D02*
X245355856Y-91625009D01*
X245355856Y-91625009D02*
X245355856Y-92148819D01*
X246212999Y-92101200D02*
X246117761Y-92148819D01*
X246117761Y-92148819D02*
X245927285Y-92148819D01*
X245927285Y-92148819D02*
X245832047Y-92101200D01*
X245832047Y-92101200D02*
X245784428Y-92005961D01*
X245784428Y-92005961D02*
X245784428Y-91625009D01*
X245784428Y-91625009D02*
X245832047Y-91529771D01*
X245832047Y-91529771D02*
X245927285Y-91482152D01*
X245927285Y-91482152D02*
X246117761Y-91482152D01*
X246117761Y-91482152D02*
X246212999Y-91529771D01*
X246212999Y-91529771D02*
X246260618Y-91625009D01*
X246260618Y-91625009D02*
X246260618Y-91720247D01*
X246260618Y-91720247D02*
X245784428Y-91815485D01*
X247117761Y-92101200D02*
X247022523Y-92148819D01*
X247022523Y-92148819D02*
X246832047Y-92148819D01*
X246832047Y-92148819D02*
X246736809Y-92101200D01*
X246736809Y-92101200D02*
X246689190Y-92053580D01*
X246689190Y-92053580D02*
X246641571Y-91958342D01*
X246641571Y-91958342D02*
X246641571Y-91672628D01*
X246641571Y-91672628D02*
X246689190Y-91577390D01*
X246689190Y-91577390D02*
X246736809Y-91529771D01*
X246736809Y-91529771D02*
X246832047Y-91482152D01*
X246832047Y-91482152D02*
X247022523Y-91482152D01*
X247022523Y-91482152D02*
X247117761Y-91529771D01*
X247403476Y-91482152D02*
X247784428Y-91482152D01*
X247546333Y-91148819D02*
X247546333Y-92005961D01*
X247546333Y-92005961D02*
X247593952Y-92101200D01*
X247593952Y-92101200D02*
X247689190Y-92148819D01*
X247689190Y-92148819D02*
X247784428Y-92148819D01*
X248260619Y-92148819D02*
X248165381Y-92101200D01*
X248165381Y-92101200D02*
X248117762Y-92053580D01*
X248117762Y-92053580D02*
X248070143Y-91958342D01*
X248070143Y-91958342D02*
X248070143Y-91672628D01*
X248070143Y-91672628D02*
X248117762Y-91577390D01*
X248117762Y-91577390D02*
X248165381Y-91529771D01*
X248165381Y-91529771D02*
X248260619Y-91482152D01*
X248260619Y-91482152D02*
X248403476Y-91482152D01*
X248403476Y-91482152D02*
X248498714Y-91529771D01*
X248498714Y-91529771D02*
X248546333Y-91577390D01*
X248546333Y-91577390D02*
X248593952Y-91672628D01*
X248593952Y-91672628D02*
X248593952Y-91958342D01*
X248593952Y-91958342D02*
X248546333Y-92053580D01*
X248546333Y-92053580D02*
X248498714Y-92101200D01*
X248498714Y-92101200D02*
X248403476Y-92148819D01*
X248403476Y-92148819D02*
X248260619Y-92148819D01*
X249022524Y-92148819D02*
X249022524Y-91482152D01*
X249022524Y-91672628D02*
X249070143Y-91577390D01*
X249070143Y-91577390D02*
X249117762Y-91529771D01*
X249117762Y-91529771D02*
X249213000Y-91482152D01*
X249213000Y-91482152D02*
X249308238Y-91482152D01*
X229393904Y-118617819D02*
X228822476Y-118617819D01*
X229108190Y-118617819D02*
X229108190Y-117617819D01*
X229108190Y-117617819D02*
X229012952Y-117760676D01*
X229012952Y-117760676D02*
X228917714Y-117855914D01*
X228917714Y-117855914D02*
X228822476Y-117903533D01*
X230012952Y-117617819D02*
X230108190Y-117617819D01*
X230108190Y-117617819D02*
X230203428Y-117665438D01*
X230203428Y-117665438D02*
X230251047Y-117713057D01*
X230251047Y-117713057D02*
X230298666Y-117808295D01*
X230298666Y-117808295D02*
X230346285Y-117998771D01*
X230346285Y-117998771D02*
X230346285Y-118236866D01*
X230346285Y-118236866D02*
X230298666Y-118427342D01*
X230298666Y-118427342D02*
X230251047Y-118522580D01*
X230251047Y-118522580D02*
X230203428Y-118570200D01*
X230203428Y-118570200D02*
X230108190Y-118617819D01*
X230108190Y-118617819D02*
X230012952Y-118617819D01*
X230012952Y-118617819D02*
X229917714Y-118570200D01*
X229917714Y-118570200D02*
X229870095Y-118522580D01*
X229870095Y-118522580D02*
X229822476Y-118427342D01*
X229822476Y-118427342D02*
X229774857Y-118236866D01*
X229774857Y-118236866D02*
X229774857Y-117998771D01*
X229774857Y-117998771D02*
X229822476Y-117808295D01*
X229822476Y-117808295D02*
X229870095Y-117713057D01*
X229870095Y-117713057D02*
X229917714Y-117665438D01*
X229917714Y-117665438D02*
X230012952Y-117617819D01*
X230965333Y-117617819D02*
X231060571Y-117617819D01*
X231060571Y-117617819D02*
X231155809Y-117665438D01*
X231155809Y-117665438D02*
X231203428Y-117713057D01*
X231203428Y-117713057D02*
X231251047Y-117808295D01*
X231251047Y-117808295D02*
X231298666Y-117998771D01*
X231298666Y-117998771D02*
X231298666Y-118236866D01*
X231298666Y-118236866D02*
X231251047Y-118427342D01*
X231251047Y-118427342D02*
X231203428Y-118522580D01*
X231203428Y-118522580D02*
X231155809Y-118570200D01*
X231155809Y-118570200D02*
X231060571Y-118617819D01*
X231060571Y-118617819D02*
X230965333Y-118617819D01*
X230965333Y-118617819D02*
X230870095Y-118570200D01*
X230870095Y-118570200D02*
X230822476Y-118522580D01*
X230822476Y-118522580D02*
X230774857Y-118427342D01*
X230774857Y-118427342D02*
X230727238Y-118236866D01*
X230727238Y-118236866D02*
X230727238Y-117998771D01*
X230727238Y-117998771D02*
X230774857Y-117808295D01*
X230774857Y-117808295D02*
X230822476Y-117713057D01*
X230822476Y-117713057D02*
X230870095Y-117665438D01*
X230870095Y-117665438D02*
X230965333Y-117617819D01*
X231679619Y-118617819D02*
X231917714Y-118617819D01*
X231917714Y-118617819D02*
X231917714Y-118427342D01*
X231917714Y-118427342D02*
X231822476Y-118379723D01*
X231822476Y-118379723D02*
X231727238Y-118284485D01*
X231727238Y-118284485D02*
X231679619Y-118141628D01*
X231679619Y-118141628D02*
X231679619Y-117903533D01*
X231679619Y-117903533D02*
X231727238Y-117760676D01*
X231727238Y-117760676D02*
X231822476Y-117665438D01*
X231822476Y-117665438D02*
X231965333Y-117617819D01*
X231965333Y-117617819D02*
X232155809Y-117617819D01*
X232155809Y-117617819D02*
X232298666Y-117665438D01*
X232298666Y-117665438D02*
X232393904Y-117760676D01*
X232393904Y-117760676D02*
X232441523Y-117903533D01*
X232441523Y-117903533D02*
X232441523Y-118141628D01*
X232441523Y-118141628D02*
X232393904Y-118284485D01*
X232393904Y-118284485D02*
X232298666Y-118379723D01*
X232298666Y-118379723D02*
X232203428Y-118427342D01*
X232203428Y-118427342D02*
X232203428Y-118617819D01*
X232203428Y-118617819D02*
X232441523Y-118617819D01*
X230465333Y-115897819D02*
X230132000Y-115421628D01*
X229893905Y-115897819D02*
X229893905Y-114897819D01*
X229893905Y-114897819D02*
X230274857Y-114897819D01*
X230274857Y-114897819D02*
X230370095Y-114945438D01*
X230370095Y-114945438D02*
X230417714Y-114993057D01*
X230417714Y-114993057D02*
X230465333Y-115088295D01*
X230465333Y-115088295D02*
X230465333Y-115231152D01*
X230465333Y-115231152D02*
X230417714Y-115326390D01*
X230417714Y-115326390D02*
X230370095Y-115374009D01*
X230370095Y-115374009D02*
X230274857Y-115421628D01*
X230274857Y-115421628D02*
X229893905Y-115421628D01*
X230846286Y-114993057D02*
X230893905Y-114945438D01*
X230893905Y-114945438D02*
X230989143Y-114897819D01*
X230989143Y-114897819D02*
X231227238Y-114897819D01*
X231227238Y-114897819D02*
X231322476Y-114945438D01*
X231322476Y-114945438D02*
X231370095Y-114993057D01*
X231370095Y-114993057D02*
X231417714Y-115088295D01*
X231417714Y-115088295D02*
X231417714Y-115183533D01*
X231417714Y-115183533D02*
X231370095Y-115326390D01*
X231370095Y-115326390D02*
X230798667Y-115897819D01*
X230798667Y-115897819D02*
X231417714Y-115897819D01*
X229393904Y-108023819D02*
X228822476Y-108023819D01*
X229108190Y-108023819D02*
X229108190Y-107023819D01*
X229108190Y-107023819D02*
X229012952Y-107166676D01*
X229012952Y-107166676D02*
X228917714Y-107261914D01*
X228917714Y-107261914D02*
X228822476Y-107309533D01*
X230012952Y-107023819D02*
X230108190Y-107023819D01*
X230108190Y-107023819D02*
X230203428Y-107071438D01*
X230203428Y-107071438D02*
X230251047Y-107119057D01*
X230251047Y-107119057D02*
X230298666Y-107214295D01*
X230298666Y-107214295D02*
X230346285Y-107404771D01*
X230346285Y-107404771D02*
X230346285Y-107642866D01*
X230346285Y-107642866D02*
X230298666Y-107833342D01*
X230298666Y-107833342D02*
X230251047Y-107928580D01*
X230251047Y-107928580D02*
X230203428Y-107976200D01*
X230203428Y-107976200D02*
X230108190Y-108023819D01*
X230108190Y-108023819D02*
X230012952Y-108023819D01*
X230012952Y-108023819D02*
X229917714Y-107976200D01*
X229917714Y-107976200D02*
X229870095Y-107928580D01*
X229870095Y-107928580D02*
X229822476Y-107833342D01*
X229822476Y-107833342D02*
X229774857Y-107642866D01*
X229774857Y-107642866D02*
X229774857Y-107404771D01*
X229774857Y-107404771D02*
X229822476Y-107214295D01*
X229822476Y-107214295D02*
X229870095Y-107119057D01*
X229870095Y-107119057D02*
X229917714Y-107071438D01*
X229917714Y-107071438D02*
X230012952Y-107023819D01*
X230965333Y-107023819D02*
X231060571Y-107023819D01*
X231060571Y-107023819D02*
X231155809Y-107071438D01*
X231155809Y-107071438D02*
X231203428Y-107119057D01*
X231203428Y-107119057D02*
X231251047Y-107214295D01*
X231251047Y-107214295D02*
X231298666Y-107404771D01*
X231298666Y-107404771D02*
X231298666Y-107642866D01*
X231298666Y-107642866D02*
X231251047Y-107833342D01*
X231251047Y-107833342D02*
X231203428Y-107928580D01*
X231203428Y-107928580D02*
X231155809Y-107976200D01*
X231155809Y-107976200D02*
X231060571Y-108023819D01*
X231060571Y-108023819D02*
X230965333Y-108023819D01*
X230965333Y-108023819D02*
X230870095Y-107976200D01*
X230870095Y-107976200D02*
X230822476Y-107928580D01*
X230822476Y-107928580D02*
X230774857Y-107833342D01*
X230774857Y-107833342D02*
X230727238Y-107642866D01*
X230727238Y-107642866D02*
X230727238Y-107404771D01*
X230727238Y-107404771D02*
X230774857Y-107214295D01*
X230774857Y-107214295D02*
X230822476Y-107119057D01*
X230822476Y-107119057D02*
X230870095Y-107071438D01*
X230870095Y-107071438D02*
X230965333Y-107023819D01*
X231679619Y-108023819D02*
X231917714Y-108023819D01*
X231917714Y-108023819D02*
X231917714Y-107833342D01*
X231917714Y-107833342D02*
X231822476Y-107785723D01*
X231822476Y-107785723D02*
X231727238Y-107690485D01*
X231727238Y-107690485D02*
X231679619Y-107547628D01*
X231679619Y-107547628D02*
X231679619Y-107309533D01*
X231679619Y-107309533D02*
X231727238Y-107166676D01*
X231727238Y-107166676D02*
X231822476Y-107071438D01*
X231822476Y-107071438D02*
X231965333Y-107023819D01*
X231965333Y-107023819D02*
X232155809Y-107023819D01*
X232155809Y-107023819D02*
X232298666Y-107071438D01*
X232298666Y-107071438D02*
X232393904Y-107166676D01*
X232393904Y-107166676D02*
X232441523Y-107309533D01*
X232441523Y-107309533D02*
X232441523Y-107547628D01*
X232441523Y-107547628D02*
X232393904Y-107690485D01*
X232393904Y-107690485D02*
X232298666Y-107785723D01*
X232298666Y-107785723D02*
X232203428Y-107833342D01*
X232203428Y-107833342D02*
X232203428Y-108023819D01*
X232203428Y-108023819D02*
X232441523Y-108023819D01*
X230465333Y-110944819D02*
X230132000Y-110468628D01*
X229893905Y-110944819D02*
X229893905Y-109944819D01*
X229893905Y-109944819D02*
X230274857Y-109944819D01*
X230274857Y-109944819D02*
X230370095Y-109992438D01*
X230370095Y-109992438D02*
X230417714Y-110040057D01*
X230417714Y-110040057D02*
X230465333Y-110135295D01*
X230465333Y-110135295D02*
X230465333Y-110278152D01*
X230465333Y-110278152D02*
X230417714Y-110373390D01*
X230417714Y-110373390D02*
X230370095Y-110421009D01*
X230370095Y-110421009D02*
X230274857Y-110468628D01*
X230274857Y-110468628D02*
X229893905Y-110468628D01*
X231417714Y-110944819D02*
X230846286Y-110944819D01*
X231132000Y-110944819D02*
X231132000Y-109944819D01*
X231132000Y-109944819D02*
X231036762Y-110087676D01*
X231036762Y-110087676D02*
X230941524Y-110182914D01*
X230941524Y-110182914D02*
X230846286Y-110230533D01*
X242897819Y-108600666D02*
X242897819Y-109172094D01*
X242897819Y-108886380D02*
X241897819Y-108886380D01*
X241897819Y-108886380D02*
X242040676Y-108981618D01*
X242040676Y-108981618D02*
X242135914Y-109076856D01*
X242135914Y-109076856D02*
X242183533Y-109172094D01*
X242897819Y-108172094D02*
X241897819Y-108172094D01*
X241897819Y-108172094D02*
X242897819Y-107600666D01*
X242897819Y-107600666D02*
X241897819Y-107600666D01*
X242897819Y-107076856D02*
X242897819Y-106886380D01*
X242897819Y-106886380D02*
X242850200Y-106791142D01*
X242850200Y-106791142D02*
X242802580Y-106743523D01*
X242802580Y-106743523D02*
X242659723Y-106648285D01*
X242659723Y-106648285D02*
X242469247Y-106600666D01*
X242469247Y-106600666D02*
X242088295Y-106600666D01*
X242088295Y-106600666D02*
X241993057Y-106648285D01*
X241993057Y-106648285D02*
X241945438Y-106695904D01*
X241945438Y-106695904D02*
X241897819Y-106791142D01*
X241897819Y-106791142D02*
X241897819Y-106981618D01*
X241897819Y-106981618D02*
X241945438Y-107076856D01*
X241945438Y-107076856D02*
X241993057Y-107124475D01*
X241993057Y-107124475D02*
X242088295Y-107172094D01*
X242088295Y-107172094D02*
X242326390Y-107172094D01*
X242326390Y-107172094D02*
X242421628Y-107124475D01*
X242421628Y-107124475D02*
X242469247Y-107076856D01*
X242469247Y-107076856D02*
X242516866Y-106981618D01*
X242516866Y-106981618D02*
X242516866Y-106791142D01*
X242516866Y-106791142D02*
X242469247Y-106695904D01*
X242469247Y-106695904D02*
X242421628Y-106648285D01*
X242421628Y-106648285D02*
X242326390Y-106600666D01*
X242897819Y-105648285D02*
X242897819Y-106219713D01*
X242897819Y-105933999D02*
X241897819Y-105933999D01*
X241897819Y-105933999D02*
X242040676Y-106029237D01*
X242040676Y-106029237D02*
X242135914Y-106124475D01*
X242135914Y-106124475D02*
X242183533Y-106219713D01*
X242231152Y-104791142D02*
X242897819Y-104791142D01*
X241850200Y-105029237D02*
X242564485Y-105267332D01*
X242564485Y-105267332D02*
X242564485Y-104648285D01*
D12*
X245092855Y-107697475D02*
X244292855Y-107697475D01*
X244292855Y-107697475D02*
X244292855Y-107506999D01*
X244292855Y-107506999D02*
X244330950Y-107392713D01*
X244330950Y-107392713D02*
X244407140Y-107316523D01*
X244407140Y-107316523D02*
X244483331Y-107278428D01*
X244483331Y-107278428D02*
X244635712Y-107240332D01*
X244635712Y-107240332D02*
X244749998Y-107240332D01*
X244749998Y-107240332D02*
X244902379Y-107278428D01*
X244902379Y-107278428D02*
X244978569Y-107316523D01*
X244978569Y-107316523D02*
X245054760Y-107392713D01*
X245054760Y-107392713D02*
X245092855Y-107506999D01*
X245092855Y-107506999D02*
X245092855Y-107697475D01*
X244369045Y-106935571D02*
X244330950Y-106897475D01*
X244330950Y-106897475D02*
X244292855Y-106821285D01*
X244292855Y-106821285D02*
X244292855Y-106630809D01*
X244292855Y-106630809D02*
X244330950Y-106554618D01*
X244330950Y-106554618D02*
X244369045Y-106516523D01*
X244369045Y-106516523D02*
X244445236Y-106478428D01*
X244445236Y-106478428D02*
X244521426Y-106478428D01*
X244521426Y-106478428D02*
X244635712Y-106516523D01*
X244635712Y-106516523D02*
X245092855Y-106973666D01*
X245092855Y-106973666D02*
X245092855Y-106478428D01*
X247269000Y-109577000D02*
X247269000Y-108927000D01*
X246149000Y-108927000D02*
X248389000Y-108927000D01*
X248389000Y-108927000D02*
X248389000Y-104687000D01*
X246149000Y-108327000D02*
X248389000Y-108327000D01*
X246149000Y-108207000D02*
X248389000Y-108207000D01*
X246149000Y-108087000D02*
X248389000Y-108087000D01*
X246149000Y-104687000D02*
X246149000Y-108927000D01*
X248389000Y-104687000D02*
X246149000Y-104687000D01*
X247269000Y-104037000D02*
X247269000Y-104687000D01*
X235839000Y-101092000D02*
X235839000Y-99822000D01*
X237109000Y-101092000D02*
X235839000Y-101092000D01*
X239269000Y-98779071D02*
X239269000Y-98382000D01*
X240029000Y-98779071D02*
X240029000Y-98382000D01*
X241809000Y-98779071D02*
X241809000Y-98382000D01*
X242569000Y-98779071D02*
X242569000Y-98382000D01*
X244349000Y-98779071D02*
X244349000Y-98382000D01*
X245109000Y-98779071D02*
X245109000Y-98382000D01*
X246889000Y-98779071D02*
X246889000Y-98382000D01*
X247649000Y-98779071D02*
X247649000Y-98382000D01*
X249429000Y-98779071D02*
X249429000Y-98382000D01*
X250189000Y-98779071D02*
X250189000Y-98382000D01*
X236729000Y-98712000D02*
X236729000Y-98382000D01*
X237489000Y-98712000D02*
X237489000Y-98382000D01*
X235779000Y-98382000D02*
X251139000Y-98382000D01*
X238379000Y-98382000D02*
X238379000Y-95722000D01*
X240919000Y-98382000D02*
X240919000Y-95722000D01*
X243459000Y-98382000D02*
X243459000Y-95722000D01*
X245999000Y-98382000D02*
X245999000Y-95722000D01*
X248539000Y-98382000D02*
X248539000Y-95722000D01*
X251139000Y-98382000D02*
X251139000Y-95722000D01*
X235779000Y-95722000D02*
X235779000Y-98382000D01*
X236729000Y-95722000D02*
X236729000Y-89722000D01*
X236789000Y-95722000D02*
X236789000Y-89722000D01*
X236909000Y-95722000D02*
X236909000Y-89722000D01*
X237029000Y-95722000D02*
X237029000Y-89722000D01*
X237149000Y-95722000D02*
X237149000Y-89722000D01*
X237269000Y-95722000D02*
X237269000Y-89722000D01*
X237389000Y-95722000D02*
X237389000Y-89722000D01*
X239269000Y-95722000D02*
X239269000Y-89722000D01*
X241809000Y-95722000D02*
X241809000Y-89722000D01*
X244349000Y-95722000D02*
X244349000Y-89722000D01*
X246889000Y-95722000D02*
X246889000Y-89722000D01*
X249429000Y-95722000D02*
X249429000Y-89722000D01*
X251139000Y-95722000D02*
X235779000Y-95722000D01*
X236729000Y-89722000D02*
X237489000Y-89722000D01*
X237489000Y-89722000D02*
X237489000Y-95722000D01*
X239269000Y-89722000D02*
X240029000Y-89722000D01*
X240029000Y-89722000D02*
X240029000Y-95722000D01*
X241809000Y-89722000D02*
X242569000Y-89722000D01*
X242569000Y-89722000D02*
X242569000Y-95722000D01*
X244349000Y-89722000D02*
X245109000Y-89722000D01*
X245109000Y-89722000D02*
X245109000Y-95722000D01*
X246889000Y-89722000D02*
X247649000Y-89722000D01*
X247649000Y-89722000D02*
X247649000Y-95722000D01*
X249429000Y-89722000D02*
X250189000Y-89722000D01*
X250189000Y-89722000D02*
X250189000Y-95722000D01*
X225322000Y-115443000D02*
X226012000Y-115443000D01*
X226012000Y-113723000D02*
X226012000Y-117163000D01*
X226012000Y-117163000D02*
X235252000Y-117163000D01*
X235252000Y-113723000D02*
X226012000Y-113723000D01*
X235252000Y-117163000D02*
X235252000Y-113723000D01*
X235942000Y-115443000D02*
X235252000Y-115443000D01*
X225322000Y-110490000D02*
X226012000Y-110490000D01*
X226012000Y-108770000D02*
X226012000Y-112210000D01*
X226012000Y-112210000D02*
X235252000Y-112210000D01*
X235252000Y-108770000D02*
X226012000Y-108770000D01*
X235252000Y-112210000D02*
X235252000Y-108770000D01*
X235942000Y-110490000D02*
X235252000Y-110490000D01*
X244729000Y-104037000D02*
X244729000Y-104687000D01*
X245849000Y-104687000D02*
X243609000Y-104687000D01*
X243609000Y-104687000D02*
X243609000Y-108927000D01*
X245849000Y-105287000D02*
X243609000Y-105287000D01*
X245849000Y-105407000D02*
X243609000Y-105407000D01*
X245849000Y-105527000D02*
X243609000Y-105527000D01*
X245849000Y-108927000D02*
X245849000Y-104687000D01*
X243609000Y-108927000D02*
X245849000Y-108927000D01*
X244729000Y-109577000D02*
X244729000Y-108927000D01*
D13*
X202412600Y-146862800D02*
X211302600Y-146862800D01*
X211302600Y-146862800D02*
X211302600Y-88849200D01*
X211302600Y-88849200D02*
X202412600Y-88849200D01*
X202412600Y-88849200D02*
X202412600Y-146862800D01*
%LPC*%
D14*
X247269000Y-110617000D03*
D15*
X247269000Y-102997000D03*
D16*
X237109000Y-99822000D03*
D17*
X239649000Y-99822000D03*
X242189000Y-99822000D03*
X244729000Y-99822000D03*
X247269000Y-99822000D03*
X249809000Y-99822000D03*
D18*
X224282000Y-115443000D03*
D15*
X236982000Y-115443000D03*
D18*
X224282000Y-110490000D03*
D15*
X236982000Y-110490000D03*
D14*
X244729000Y-102997000D03*
D15*
X244729000Y-110617000D03*
D19*
X206883000Y-91186000D03*
X206883000Y-93726000D03*
X206883000Y-96266000D03*
X206883000Y-98806000D03*
X206883000Y-101346000D03*
X206883000Y-103886000D03*
X206883000Y-106426000D03*
X206883000Y-108966000D03*
X206883000Y-111506000D03*
X206883000Y-114046000D03*
X206883000Y-116586000D03*
X206883000Y-119126000D03*
X206883000Y-121666000D03*
X206883000Y-124206000D03*
X206883000Y-126746000D03*
X206883000Y-129286000D03*
X206883000Y-131826000D03*
X206883000Y-134366000D03*
X206883000Y-136906000D03*
X206883000Y-139446000D03*
X206883000Y-141986000D03*
X206883000Y-144526000D03*
%LPD*%
M02*
