G04 #@! TF.GenerationSoftware,KiCad,Pcbnew,7.0.8*
G04 #@! TF.CreationDate,2023-11-17T23:06:40-08:00*
G04 #@! TF.ProjectId,COMiX-FTDI-Adapter,434f4d69-582d-4465-9444-492d41646170,rev?*
G04 #@! TF.SameCoordinates,Original*
G04 #@! TF.FileFunction,Legend,Bot*
G04 #@! TF.FilePolarity,Positive*
%FSLAX46Y46*%
G04 Gerber Fmt 4.6, Leading zero omitted, Abs format (unit mm)*
G04 Created by KiCad (PCBNEW 7.0.8) date 2023-11-17 23:06:40*
%MOMM*%
%LPD*%
G01*
G04 APERTURE LIST*
%ADD10C,0.150000*%
%ADD11R,1.600000X1.600000*%
%ADD12O,1.600000X1.600000*%
%ADD13R,1.700000X1.700000*%
%ADD14O,1.700000X1.700000*%
%ADD15C,1.600000*%
%ADD16R,8.890000X1.397000*%
G04 APERTURE END LIST*
D10*
X249091792Y-137774580D02*
X249139411Y-137822200D01*
X249139411Y-137822200D02*
X249282268Y-137869819D01*
X249282268Y-137869819D02*
X249377506Y-137869819D01*
X249377506Y-137869819D02*
X249520363Y-137822200D01*
X249520363Y-137822200D02*
X249615601Y-137726961D01*
X249615601Y-137726961D02*
X249663220Y-137631723D01*
X249663220Y-137631723D02*
X249710839Y-137441247D01*
X249710839Y-137441247D02*
X249710839Y-137298390D01*
X249710839Y-137298390D02*
X249663220Y-137107914D01*
X249663220Y-137107914D02*
X249615601Y-137012676D01*
X249615601Y-137012676D02*
X249520363Y-136917438D01*
X249520363Y-136917438D02*
X249377506Y-136869819D01*
X249377506Y-136869819D02*
X249282268Y-136869819D01*
X249282268Y-136869819D02*
X249139411Y-136917438D01*
X249139411Y-136917438D02*
X249091792Y-136965057D01*
X248472744Y-136869819D02*
X248282268Y-136869819D01*
X248282268Y-136869819D02*
X248187030Y-136917438D01*
X248187030Y-136917438D02*
X248091792Y-137012676D01*
X248091792Y-137012676D02*
X248044173Y-137203152D01*
X248044173Y-137203152D02*
X248044173Y-137536485D01*
X248044173Y-137536485D02*
X248091792Y-137726961D01*
X248091792Y-137726961D02*
X248187030Y-137822200D01*
X248187030Y-137822200D02*
X248282268Y-137869819D01*
X248282268Y-137869819D02*
X248472744Y-137869819D01*
X248472744Y-137869819D02*
X248567982Y-137822200D01*
X248567982Y-137822200D02*
X248663220Y-137726961D01*
X248663220Y-137726961D02*
X248710839Y-137536485D01*
X248710839Y-137536485D02*
X248710839Y-137203152D01*
X248710839Y-137203152D02*
X248663220Y-137012676D01*
X248663220Y-137012676D02*
X248567982Y-136917438D01*
X248567982Y-136917438D02*
X248472744Y-136869819D01*
X247615601Y-137869819D02*
X247615601Y-136869819D01*
X247615601Y-136869819D02*
X247282268Y-137584104D01*
X247282268Y-137584104D02*
X246948935Y-136869819D01*
X246948935Y-136869819D02*
X246948935Y-137869819D01*
X246472744Y-137869819D02*
X246472744Y-137203152D01*
X246472744Y-136869819D02*
X246520363Y-136917438D01*
X246520363Y-136917438D02*
X246472744Y-136965057D01*
X246472744Y-136965057D02*
X246425125Y-136917438D01*
X246425125Y-136917438D02*
X246472744Y-136869819D01*
X246472744Y-136869819D02*
X246472744Y-136965057D01*
X246091792Y-136869819D02*
X245425126Y-137869819D01*
X245425126Y-136869819D02*
X246091792Y-137869819D01*
X244282268Y-137869819D02*
X244282268Y-136869819D01*
X244282268Y-137346009D02*
X243710840Y-137346009D01*
X243710840Y-137869819D02*
X243710840Y-136869819D01*
X243234649Y-137869819D02*
X243234649Y-137203152D01*
X243234649Y-136869819D02*
X243282268Y-136917438D01*
X243282268Y-136917438D02*
X243234649Y-136965057D01*
X243234649Y-136965057D02*
X243187030Y-136917438D01*
X243187030Y-136917438D02*
X243234649Y-136869819D01*
X243234649Y-136869819D02*
X243234649Y-136965057D01*
X242329888Y-137203152D02*
X242329888Y-138012676D01*
X242329888Y-138012676D02*
X242377507Y-138107914D01*
X242377507Y-138107914D02*
X242425126Y-138155533D01*
X242425126Y-138155533D02*
X242520364Y-138203152D01*
X242520364Y-138203152D02*
X242663221Y-138203152D01*
X242663221Y-138203152D02*
X242758459Y-138155533D01*
X242329888Y-137822200D02*
X242425126Y-137869819D01*
X242425126Y-137869819D02*
X242615602Y-137869819D01*
X242615602Y-137869819D02*
X242710840Y-137822200D01*
X242710840Y-137822200D02*
X242758459Y-137774580D01*
X242758459Y-137774580D02*
X242806078Y-137679342D01*
X242806078Y-137679342D02*
X242806078Y-137393628D01*
X242806078Y-137393628D02*
X242758459Y-137298390D01*
X242758459Y-137298390D02*
X242710840Y-137250771D01*
X242710840Y-137250771D02*
X242615602Y-137203152D01*
X242615602Y-137203152D02*
X242425126Y-137203152D01*
X242425126Y-137203152D02*
X242329888Y-137250771D01*
X241853697Y-137869819D02*
X241853697Y-136869819D01*
X241425126Y-137869819D02*
X241425126Y-137346009D01*
X241425126Y-137346009D02*
X241472745Y-137250771D01*
X241472745Y-137250771D02*
X241567983Y-137203152D01*
X241567983Y-137203152D02*
X241710840Y-137203152D01*
X241710840Y-137203152D02*
X241806078Y-137250771D01*
X241806078Y-137250771D02*
X241853697Y-137298390D01*
X240234649Y-137822200D02*
X240091792Y-137869819D01*
X240091792Y-137869819D02*
X239853697Y-137869819D01*
X239853697Y-137869819D02*
X239758459Y-137822200D01*
X239758459Y-137822200D02*
X239710840Y-137774580D01*
X239710840Y-137774580D02*
X239663221Y-137679342D01*
X239663221Y-137679342D02*
X239663221Y-137584104D01*
X239663221Y-137584104D02*
X239710840Y-137488866D01*
X239710840Y-137488866D02*
X239758459Y-137441247D01*
X239758459Y-137441247D02*
X239853697Y-137393628D01*
X239853697Y-137393628D02*
X240044173Y-137346009D01*
X240044173Y-137346009D02*
X240139411Y-137298390D01*
X240139411Y-137298390D02*
X240187030Y-137250771D01*
X240187030Y-137250771D02*
X240234649Y-137155533D01*
X240234649Y-137155533D02*
X240234649Y-137060295D01*
X240234649Y-137060295D02*
X240187030Y-136965057D01*
X240187030Y-136965057D02*
X240139411Y-136917438D01*
X240139411Y-136917438D02*
X240044173Y-136869819D01*
X240044173Y-136869819D02*
X239806078Y-136869819D01*
X239806078Y-136869819D02*
X239663221Y-136917438D01*
X239234649Y-137203152D02*
X239234649Y-138203152D01*
X239234649Y-137250771D02*
X239139411Y-137203152D01*
X239139411Y-137203152D02*
X238948935Y-137203152D01*
X238948935Y-137203152D02*
X238853697Y-137250771D01*
X238853697Y-137250771D02*
X238806078Y-137298390D01*
X238806078Y-137298390D02*
X238758459Y-137393628D01*
X238758459Y-137393628D02*
X238758459Y-137679342D01*
X238758459Y-137679342D02*
X238806078Y-137774580D01*
X238806078Y-137774580D02*
X238853697Y-137822200D01*
X238853697Y-137822200D02*
X238948935Y-137869819D01*
X238948935Y-137869819D02*
X239139411Y-137869819D01*
X239139411Y-137869819D02*
X239234649Y-137822200D01*
X237948935Y-137822200D02*
X238044173Y-137869819D01*
X238044173Y-137869819D02*
X238234649Y-137869819D01*
X238234649Y-137869819D02*
X238329887Y-137822200D01*
X238329887Y-137822200D02*
X238377506Y-137726961D01*
X238377506Y-137726961D02*
X238377506Y-137346009D01*
X238377506Y-137346009D02*
X238329887Y-137250771D01*
X238329887Y-137250771D02*
X238234649Y-137203152D01*
X238234649Y-137203152D02*
X238044173Y-137203152D01*
X238044173Y-137203152D02*
X237948935Y-137250771D01*
X237948935Y-137250771D02*
X237901316Y-137346009D01*
X237901316Y-137346009D02*
X237901316Y-137441247D01*
X237901316Y-137441247D02*
X238377506Y-137536485D01*
X237091792Y-137822200D02*
X237187030Y-137869819D01*
X237187030Y-137869819D02*
X237377506Y-137869819D01*
X237377506Y-137869819D02*
X237472744Y-137822200D01*
X237472744Y-137822200D02*
X237520363Y-137726961D01*
X237520363Y-137726961D02*
X237520363Y-137346009D01*
X237520363Y-137346009D02*
X237472744Y-137250771D01*
X237472744Y-137250771D02*
X237377506Y-137203152D01*
X237377506Y-137203152D02*
X237187030Y-137203152D01*
X237187030Y-137203152D02*
X237091792Y-137250771D01*
X237091792Y-137250771D02*
X237044173Y-137346009D01*
X237044173Y-137346009D02*
X237044173Y-137441247D01*
X237044173Y-137441247D02*
X237520363Y-137536485D01*
X236187030Y-137869819D02*
X236187030Y-136869819D01*
X236187030Y-137822200D02*
X236282268Y-137869819D01*
X236282268Y-137869819D02*
X236472744Y-137869819D01*
X236472744Y-137869819D02*
X236567982Y-137822200D01*
X236567982Y-137822200D02*
X236615601Y-137774580D01*
X236615601Y-137774580D02*
X236663220Y-137679342D01*
X236663220Y-137679342D02*
X236663220Y-137393628D01*
X236663220Y-137393628D02*
X236615601Y-137298390D01*
X236615601Y-137298390D02*
X236567982Y-137250771D01*
X236567982Y-137250771D02*
X236472744Y-137203152D01*
X236472744Y-137203152D02*
X236282268Y-137203152D01*
X236282268Y-137203152D02*
X236187030Y-137250771D01*
X234948934Y-137869819D02*
X234948934Y-136869819D01*
X234948934Y-136869819D02*
X234710839Y-136869819D01*
X234710839Y-136869819D02*
X234567982Y-136917438D01*
X234567982Y-136917438D02*
X234472744Y-137012676D01*
X234472744Y-137012676D02*
X234425125Y-137107914D01*
X234425125Y-137107914D02*
X234377506Y-137298390D01*
X234377506Y-137298390D02*
X234377506Y-137441247D01*
X234377506Y-137441247D02*
X234425125Y-137631723D01*
X234425125Y-137631723D02*
X234472744Y-137726961D01*
X234472744Y-137726961D02*
X234567982Y-137822200D01*
X234567982Y-137822200D02*
X234710839Y-137869819D01*
X234710839Y-137869819D02*
X234948934Y-137869819D01*
X233948934Y-137869819D02*
X233948934Y-137203152D01*
X233948934Y-136869819D02*
X233996553Y-136917438D01*
X233996553Y-136917438D02*
X233948934Y-136965057D01*
X233948934Y-136965057D02*
X233901315Y-136917438D01*
X233901315Y-136917438D02*
X233948934Y-136869819D01*
X233948934Y-136869819D02*
X233948934Y-136965057D01*
X233472744Y-137869819D02*
X233472744Y-137203152D01*
X233472744Y-137393628D02*
X233425125Y-137298390D01*
X233425125Y-137298390D02*
X233377506Y-137250771D01*
X233377506Y-137250771D02*
X233282268Y-137203152D01*
X233282268Y-137203152D02*
X233187030Y-137203152D01*
X232472744Y-137822200D02*
X232567982Y-137869819D01*
X232567982Y-137869819D02*
X232758458Y-137869819D01*
X232758458Y-137869819D02*
X232853696Y-137822200D01*
X232853696Y-137822200D02*
X232901315Y-137726961D01*
X232901315Y-137726961D02*
X232901315Y-137346009D01*
X232901315Y-137346009D02*
X232853696Y-137250771D01*
X232853696Y-137250771D02*
X232758458Y-137203152D01*
X232758458Y-137203152D02*
X232567982Y-137203152D01*
X232567982Y-137203152D02*
X232472744Y-137250771D01*
X232472744Y-137250771D02*
X232425125Y-137346009D01*
X232425125Y-137346009D02*
X232425125Y-137441247D01*
X232425125Y-137441247D02*
X232901315Y-137536485D01*
X231567982Y-137822200D02*
X231663220Y-137869819D01*
X231663220Y-137869819D02*
X231853696Y-137869819D01*
X231853696Y-137869819D02*
X231948934Y-137822200D01*
X231948934Y-137822200D02*
X231996553Y-137774580D01*
X231996553Y-137774580D02*
X232044172Y-137679342D01*
X232044172Y-137679342D02*
X232044172Y-137393628D01*
X232044172Y-137393628D02*
X231996553Y-137298390D01*
X231996553Y-137298390D02*
X231948934Y-137250771D01*
X231948934Y-137250771D02*
X231853696Y-137203152D01*
X231853696Y-137203152D02*
X231663220Y-137203152D01*
X231663220Y-137203152D02*
X231567982Y-137250771D01*
X231282267Y-137203152D02*
X230901315Y-137203152D01*
X231139410Y-136869819D02*
X231139410Y-137726961D01*
X231139410Y-137726961D02*
X231091791Y-137822200D01*
X231091791Y-137822200D02*
X230996553Y-137869819D01*
X230996553Y-137869819D02*
X230901315Y-137869819D01*
X229234648Y-137774580D02*
X229282267Y-137822200D01*
X229282267Y-137822200D02*
X229425124Y-137869819D01*
X229425124Y-137869819D02*
X229520362Y-137869819D01*
X229520362Y-137869819D02*
X229663219Y-137822200D01*
X229663219Y-137822200D02*
X229758457Y-137726961D01*
X229758457Y-137726961D02*
X229806076Y-137631723D01*
X229806076Y-137631723D02*
X229853695Y-137441247D01*
X229853695Y-137441247D02*
X229853695Y-137298390D01*
X229853695Y-137298390D02*
X229806076Y-137107914D01*
X229806076Y-137107914D02*
X229758457Y-137012676D01*
X229758457Y-137012676D02*
X229663219Y-136917438D01*
X229663219Y-136917438D02*
X229520362Y-136869819D01*
X229520362Y-136869819D02*
X229425124Y-136869819D01*
X229425124Y-136869819D02*
X229282267Y-136917438D01*
X229282267Y-136917438D02*
X229234648Y-136965057D01*
X228663219Y-137869819D02*
X228758457Y-137822200D01*
X228758457Y-137822200D02*
X228806076Y-137774580D01*
X228806076Y-137774580D02*
X228853695Y-137679342D01*
X228853695Y-137679342D02*
X228853695Y-137393628D01*
X228853695Y-137393628D02*
X228806076Y-137298390D01*
X228806076Y-137298390D02*
X228758457Y-137250771D01*
X228758457Y-137250771D02*
X228663219Y-137203152D01*
X228663219Y-137203152D02*
X228520362Y-137203152D01*
X228520362Y-137203152D02*
X228425124Y-137250771D01*
X228425124Y-137250771D02*
X228377505Y-137298390D01*
X228377505Y-137298390D02*
X228329886Y-137393628D01*
X228329886Y-137393628D02*
X228329886Y-137679342D01*
X228329886Y-137679342D02*
X228377505Y-137774580D01*
X228377505Y-137774580D02*
X228425124Y-137822200D01*
X228425124Y-137822200D02*
X228520362Y-137869819D01*
X228520362Y-137869819D02*
X228663219Y-137869819D01*
X227901314Y-137203152D02*
X227901314Y-137869819D01*
X227901314Y-137298390D02*
X227853695Y-137250771D01*
X227853695Y-137250771D02*
X227758457Y-137203152D01*
X227758457Y-137203152D02*
X227615600Y-137203152D01*
X227615600Y-137203152D02*
X227520362Y-137250771D01*
X227520362Y-137250771D02*
X227472743Y-137346009D01*
X227472743Y-137346009D02*
X227472743Y-137869819D01*
X226996552Y-137203152D02*
X226996552Y-137869819D01*
X226996552Y-137298390D02*
X226948933Y-137250771D01*
X226948933Y-137250771D02*
X226853695Y-137203152D01*
X226853695Y-137203152D02*
X226710838Y-137203152D01*
X226710838Y-137203152D02*
X226615600Y-137250771D01*
X226615600Y-137250771D02*
X226567981Y-137346009D01*
X226567981Y-137346009D02*
X226567981Y-137869819D01*
X225710838Y-137822200D02*
X225806076Y-137869819D01*
X225806076Y-137869819D02*
X225996552Y-137869819D01*
X225996552Y-137869819D02*
X226091790Y-137822200D01*
X226091790Y-137822200D02*
X226139409Y-137726961D01*
X226139409Y-137726961D02*
X226139409Y-137346009D01*
X226139409Y-137346009D02*
X226091790Y-137250771D01*
X226091790Y-137250771D02*
X225996552Y-137203152D01*
X225996552Y-137203152D02*
X225806076Y-137203152D01*
X225806076Y-137203152D02*
X225710838Y-137250771D01*
X225710838Y-137250771D02*
X225663219Y-137346009D01*
X225663219Y-137346009D02*
X225663219Y-137441247D01*
X225663219Y-137441247D02*
X226139409Y-137536485D01*
X224806076Y-137822200D02*
X224901314Y-137869819D01*
X224901314Y-137869819D02*
X225091790Y-137869819D01*
X225091790Y-137869819D02*
X225187028Y-137822200D01*
X225187028Y-137822200D02*
X225234647Y-137774580D01*
X225234647Y-137774580D02*
X225282266Y-137679342D01*
X225282266Y-137679342D02*
X225282266Y-137393628D01*
X225282266Y-137393628D02*
X225234647Y-137298390D01*
X225234647Y-137298390D02*
X225187028Y-137250771D01*
X225187028Y-137250771D02*
X225091790Y-137203152D01*
X225091790Y-137203152D02*
X224901314Y-137203152D01*
X224901314Y-137203152D02*
X224806076Y-137250771D01*
X224520361Y-137203152D02*
X224139409Y-137203152D01*
X224377504Y-136869819D02*
X224377504Y-137726961D01*
X224377504Y-137726961D02*
X224329885Y-137822200D01*
X224329885Y-137822200D02*
X224234647Y-137869819D01*
X224234647Y-137869819D02*
X224139409Y-137869819D01*
X223806075Y-137869819D02*
X223806075Y-137203152D01*
X223806075Y-136869819D02*
X223853694Y-136917438D01*
X223853694Y-136917438D02*
X223806075Y-136965057D01*
X223806075Y-136965057D02*
X223758456Y-136917438D01*
X223758456Y-136917438D02*
X223806075Y-136869819D01*
X223806075Y-136869819D02*
X223806075Y-136965057D01*
X223187028Y-137869819D02*
X223282266Y-137822200D01*
X223282266Y-137822200D02*
X223329885Y-137774580D01*
X223329885Y-137774580D02*
X223377504Y-137679342D01*
X223377504Y-137679342D02*
X223377504Y-137393628D01*
X223377504Y-137393628D02*
X223329885Y-137298390D01*
X223329885Y-137298390D02*
X223282266Y-137250771D01*
X223282266Y-137250771D02*
X223187028Y-137203152D01*
X223187028Y-137203152D02*
X223044171Y-137203152D01*
X223044171Y-137203152D02*
X222948933Y-137250771D01*
X222948933Y-137250771D02*
X222901314Y-137298390D01*
X222901314Y-137298390D02*
X222853695Y-137393628D01*
X222853695Y-137393628D02*
X222853695Y-137679342D01*
X222853695Y-137679342D02*
X222901314Y-137774580D01*
X222901314Y-137774580D02*
X222948933Y-137822200D01*
X222948933Y-137822200D02*
X223044171Y-137869819D01*
X223044171Y-137869819D02*
X223187028Y-137869819D01*
X222425123Y-137203152D02*
X222425123Y-137869819D01*
X222425123Y-137298390D02*
X222377504Y-137250771D01*
X222377504Y-137250771D02*
X222282266Y-137203152D01*
X222282266Y-137203152D02*
X222139409Y-137203152D01*
X222139409Y-137203152D02*
X222044171Y-137250771D01*
X222044171Y-137250771D02*
X221996552Y-137346009D01*
X221996552Y-137346009D02*
X221996552Y-137869819D01*
X220806075Y-137584104D02*
X220329885Y-137584104D01*
X220901313Y-137869819D02*
X220567980Y-136869819D01*
X220567980Y-136869819D02*
X220234647Y-137869819D01*
X219472742Y-137869819D02*
X219472742Y-136869819D01*
X219472742Y-137822200D02*
X219567980Y-137869819D01*
X219567980Y-137869819D02*
X219758456Y-137869819D01*
X219758456Y-137869819D02*
X219853694Y-137822200D01*
X219853694Y-137822200D02*
X219901313Y-137774580D01*
X219901313Y-137774580D02*
X219948932Y-137679342D01*
X219948932Y-137679342D02*
X219948932Y-137393628D01*
X219948932Y-137393628D02*
X219901313Y-137298390D01*
X219901313Y-137298390D02*
X219853694Y-137250771D01*
X219853694Y-137250771D02*
X219758456Y-137203152D01*
X219758456Y-137203152D02*
X219567980Y-137203152D01*
X219567980Y-137203152D02*
X219472742Y-137250771D01*
X218567980Y-137869819D02*
X218567980Y-137346009D01*
X218567980Y-137346009D02*
X218615599Y-137250771D01*
X218615599Y-137250771D02*
X218710837Y-137203152D01*
X218710837Y-137203152D02*
X218901313Y-137203152D01*
X218901313Y-137203152D02*
X218996551Y-137250771D01*
X218567980Y-137822200D02*
X218663218Y-137869819D01*
X218663218Y-137869819D02*
X218901313Y-137869819D01*
X218901313Y-137869819D02*
X218996551Y-137822200D01*
X218996551Y-137822200D02*
X219044170Y-137726961D01*
X219044170Y-137726961D02*
X219044170Y-137631723D01*
X219044170Y-137631723D02*
X218996551Y-137536485D01*
X218996551Y-137536485D02*
X218901313Y-137488866D01*
X218901313Y-137488866D02*
X218663218Y-137488866D01*
X218663218Y-137488866D02*
X218567980Y-137441247D01*
X218091789Y-137203152D02*
X218091789Y-138203152D01*
X218091789Y-137250771D02*
X217996551Y-137203152D01*
X217996551Y-137203152D02*
X217806075Y-137203152D01*
X217806075Y-137203152D02*
X217710837Y-137250771D01*
X217710837Y-137250771D02*
X217663218Y-137298390D01*
X217663218Y-137298390D02*
X217615599Y-137393628D01*
X217615599Y-137393628D02*
X217615599Y-137679342D01*
X217615599Y-137679342D02*
X217663218Y-137774580D01*
X217663218Y-137774580D02*
X217710837Y-137822200D01*
X217710837Y-137822200D02*
X217806075Y-137869819D01*
X217806075Y-137869819D02*
X217996551Y-137869819D01*
X217996551Y-137869819D02*
X218091789Y-137822200D01*
X217329884Y-137203152D02*
X216948932Y-137203152D01*
X217187027Y-136869819D02*
X217187027Y-137726961D01*
X217187027Y-137726961D02*
X217139408Y-137822200D01*
X217139408Y-137822200D02*
X217044170Y-137869819D01*
X217044170Y-137869819D02*
X216948932Y-137869819D01*
X216234646Y-137822200D02*
X216329884Y-137869819D01*
X216329884Y-137869819D02*
X216520360Y-137869819D01*
X216520360Y-137869819D02*
X216615598Y-137822200D01*
X216615598Y-137822200D02*
X216663217Y-137726961D01*
X216663217Y-137726961D02*
X216663217Y-137346009D01*
X216663217Y-137346009D02*
X216615598Y-137250771D01*
X216615598Y-137250771D02*
X216520360Y-137203152D01*
X216520360Y-137203152D02*
X216329884Y-137203152D01*
X216329884Y-137203152D02*
X216234646Y-137250771D01*
X216234646Y-137250771D02*
X216187027Y-137346009D01*
X216187027Y-137346009D02*
X216187027Y-137441247D01*
X216187027Y-137441247D02*
X216663217Y-137536485D01*
X215758455Y-137869819D02*
X215758455Y-137203152D01*
X215758455Y-137393628D02*
X215710836Y-137298390D01*
X215710836Y-137298390D02*
X215663217Y-137250771D01*
X215663217Y-137250771D02*
X215567979Y-137203152D01*
X215567979Y-137203152D02*
X215472741Y-137203152D01*
X249710839Y-139754104D02*
X249234649Y-139754104D01*
X249806077Y-140039819D02*
X249472744Y-139039819D01*
X249472744Y-139039819D02*
X249139411Y-140039819D01*
X248806077Y-139373152D02*
X248806077Y-140039819D01*
X248806077Y-139468390D02*
X248758458Y-139420771D01*
X248758458Y-139420771D02*
X248663220Y-139373152D01*
X248663220Y-139373152D02*
X248520363Y-139373152D01*
X248520363Y-139373152D02*
X248425125Y-139420771D01*
X248425125Y-139420771D02*
X248377506Y-139516009D01*
X248377506Y-139516009D02*
X248377506Y-140039819D01*
X247472744Y-140039819D02*
X247472744Y-139039819D01*
X247472744Y-139992200D02*
X247567982Y-140039819D01*
X247567982Y-140039819D02*
X247758458Y-140039819D01*
X247758458Y-140039819D02*
X247853696Y-139992200D01*
X247853696Y-139992200D02*
X247901315Y-139944580D01*
X247901315Y-139944580D02*
X247948934Y-139849342D01*
X247948934Y-139849342D02*
X247948934Y-139563628D01*
X247948934Y-139563628D02*
X247901315Y-139468390D01*
X247901315Y-139468390D02*
X247853696Y-139420771D01*
X247853696Y-139420771D02*
X247758458Y-139373152D01*
X247758458Y-139373152D02*
X247567982Y-139373152D01*
X247567982Y-139373152D02*
X247472744Y-139420771D01*
X246996553Y-140039819D02*
X246996553Y-139373152D01*
X246996553Y-139563628D02*
X246948934Y-139468390D01*
X246948934Y-139468390D02*
X246901315Y-139420771D01*
X246901315Y-139420771D02*
X246806077Y-139373152D01*
X246806077Y-139373152D02*
X246710839Y-139373152D01*
X245996553Y-139992200D02*
X246091791Y-140039819D01*
X246091791Y-140039819D02*
X246282267Y-140039819D01*
X246282267Y-140039819D02*
X246377505Y-139992200D01*
X246377505Y-139992200D02*
X246425124Y-139896961D01*
X246425124Y-139896961D02*
X246425124Y-139516009D01*
X246425124Y-139516009D02*
X246377505Y-139420771D01*
X246377505Y-139420771D02*
X246282267Y-139373152D01*
X246282267Y-139373152D02*
X246091791Y-139373152D01*
X246091791Y-139373152D02*
X245996553Y-139420771D01*
X245996553Y-139420771D02*
X245948934Y-139516009D01*
X245948934Y-139516009D02*
X245948934Y-139611247D01*
X245948934Y-139611247D02*
X246425124Y-139706485D01*
X245615600Y-139373152D02*
X245425124Y-140039819D01*
X245425124Y-140039819D02*
X245234648Y-139563628D01*
X245234648Y-139563628D02*
X245044172Y-140039819D01*
X245044172Y-140039819D02*
X244853696Y-139373152D01*
X243806076Y-139039819D02*
X243567981Y-140039819D01*
X243567981Y-140039819D02*
X243377505Y-139325533D01*
X243377505Y-139325533D02*
X243187029Y-140039819D01*
X243187029Y-140039819D02*
X242948934Y-139039819D01*
X242139410Y-140039819D02*
X242139410Y-139516009D01*
X242139410Y-139516009D02*
X242187029Y-139420771D01*
X242187029Y-139420771D02*
X242282267Y-139373152D01*
X242282267Y-139373152D02*
X242472743Y-139373152D01*
X242472743Y-139373152D02*
X242567981Y-139420771D01*
X242139410Y-139992200D02*
X242234648Y-140039819D01*
X242234648Y-140039819D02*
X242472743Y-140039819D01*
X242472743Y-140039819D02*
X242567981Y-139992200D01*
X242567981Y-139992200D02*
X242615600Y-139896961D01*
X242615600Y-139896961D02*
X242615600Y-139801723D01*
X242615600Y-139801723D02*
X242567981Y-139706485D01*
X242567981Y-139706485D02*
X242472743Y-139658866D01*
X242472743Y-139658866D02*
X242234648Y-139658866D01*
X242234648Y-139658866D02*
X242139410Y-139611247D01*
X241710838Y-139992200D02*
X241615600Y-140039819D01*
X241615600Y-140039819D02*
X241425124Y-140039819D01*
X241425124Y-140039819D02*
X241329886Y-139992200D01*
X241329886Y-139992200D02*
X241282267Y-139896961D01*
X241282267Y-139896961D02*
X241282267Y-139849342D01*
X241282267Y-139849342D02*
X241329886Y-139754104D01*
X241329886Y-139754104D02*
X241425124Y-139706485D01*
X241425124Y-139706485D02*
X241567981Y-139706485D01*
X241567981Y-139706485D02*
X241663219Y-139658866D01*
X241663219Y-139658866D02*
X241710838Y-139563628D01*
X241710838Y-139563628D02*
X241710838Y-139516009D01*
X241710838Y-139516009D02*
X241663219Y-139420771D01*
X241663219Y-139420771D02*
X241567981Y-139373152D01*
X241567981Y-139373152D02*
X241425124Y-139373152D01*
X241425124Y-139373152D02*
X241329886Y-139420771D01*
X240901314Y-139992200D02*
X240806076Y-140039819D01*
X240806076Y-140039819D02*
X240615600Y-140039819D01*
X240615600Y-140039819D02*
X240520362Y-139992200D01*
X240520362Y-139992200D02*
X240472743Y-139896961D01*
X240472743Y-139896961D02*
X240472743Y-139849342D01*
X240472743Y-139849342D02*
X240520362Y-139754104D01*
X240520362Y-139754104D02*
X240615600Y-139706485D01*
X240615600Y-139706485D02*
X240758457Y-139706485D01*
X240758457Y-139706485D02*
X240853695Y-139658866D01*
X240853695Y-139658866D02*
X240901314Y-139563628D01*
X240901314Y-139563628D02*
X240901314Y-139516009D01*
X240901314Y-139516009D02*
X240853695Y-139420771D01*
X240853695Y-139420771D02*
X240758457Y-139373152D01*
X240758457Y-139373152D02*
X240615600Y-139373152D01*
X240615600Y-139373152D02*
X240520362Y-139420771D01*
X239901314Y-140039819D02*
X239996552Y-139992200D01*
X239996552Y-139992200D02*
X240044171Y-139944580D01*
X240044171Y-139944580D02*
X240091790Y-139849342D01*
X240091790Y-139849342D02*
X240091790Y-139563628D01*
X240091790Y-139563628D02*
X240044171Y-139468390D01*
X240044171Y-139468390D02*
X239996552Y-139420771D01*
X239996552Y-139420771D02*
X239901314Y-139373152D01*
X239901314Y-139373152D02*
X239758457Y-139373152D01*
X239758457Y-139373152D02*
X239663219Y-139420771D01*
X239663219Y-139420771D02*
X239615600Y-139468390D01*
X239615600Y-139468390D02*
X239567981Y-139563628D01*
X239567981Y-139563628D02*
X239567981Y-139849342D01*
X239567981Y-139849342D02*
X239615600Y-139944580D01*
X239615600Y-139944580D02*
X239663219Y-139992200D01*
X239663219Y-139992200D02*
X239758457Y-140039819D01*
X239758457Y-140039819D02*
X239901314Y-140039819D01*
X239139409Y-139373152D02*
X239139409Y-140039819D01*
X239139409Y-139468390D02*
X239091790Y-139420771D01*
X239091790Y-139420771D02*
X238996552Y-139373152D01*
X238996552Y-139373152D02*
X238853695Y-139373152D01*
X238853695Y-139373152D02*
X238758457Y-139420771D01*
X238758457Y-139420771D02*
X238710838Y-139516009D01*
X238710838Y-139516009D02*
X238710838Y-140039819D01*
X249663220Y-141649819D02*
X249663220Y-140649819D01*
X249663220Y-140649819D02*
X249329887Y-141364104D01*
X249329887Y-141364104D02*
X248996554Y-140649819D01*
X248996554Y-140649819D02*
X248996554Y-141649819D01*
X248091792Y-141649819D02*
X248091792Y-141126009D01*
X248091792Y-141126009D02*
X248139411Y-141030771D01*
X248139411Y-141030771D02*
X248234649Y-140983152D01*
X248234649Y-140983152D02*
X248425125Y-140983152D01*
X248425125Y-140983152D02*
X248520363Y-141030771D01*
X248091792Y-141602200D02*
X248187030Y-141649819D01*
X248187030Y-141649819D02*
X248425125Y-141649819D01*
X248425125Y-141649819D02*
X248520363Y-141602200D01*
X248520363Y-141602200D02*
X248567982Y-141506961D01*
X248567982Y-141506961D02*
X248567982Y-141411723D01*
X248567982Y-141411723D02*
X248520363Y-141316485D01*
X248520363Y-141316485D02*
X248425125Y-141268866D01*
X248425125Y-141268866D02*
X248187030Y-141268866D01*
X248187030Y-141268866D02*
X248091792Y-141221247D01*
X247615601Y-141649819D02*
X247615601Y-140983152D01*
X247615601Y-141173628D02*
X247567982Y-141078390D01*
X247567982Y-141078390D02*
X247520363Y-141030771D01*
X247520363Y-141030771D02*
X247425125Y-140983152D01*
X247425125Y-140983152D02*
X247329887Y-140983152D01*
X246567982Y-141602200D02*
X246663220Y-141649819D01*
X246663220Y-141649819D02*
X246853696Y-141649819D01*
X246853696Y-141649819D02*
X246948934Y-141602200D01*
X246948934Y-141602200D02*
X246996553Y-141554580D01*
X246996553Y-141554580D02*
X247044172Y-141459342D01*
X247044172Y-141459342D02*
X247044172Y-141173628D01*
X247044172Y-141173628D02*
X246996553Y-141078390D01*
X246996553Y-141078390D02*
X246948934Y-141030771D01*
X246948934Y-141030771D02*
X246853696Y-140983152D01*
X246853696Y-140983152D02*
X246663220Y-140983152D01*
X246663220Y-140983152D02*
X246567982Y-141030771D01*
X245758458Y-141602200D02*
X245853696Y-141649819D01*
X245853696Y-141649819D02*
X246044172Y-141649819D01*
X246044172Y-141649819D02*
X246139410Y-141602200D01*
X246139410Y-141602200D02*
X246187029Y-141506961D01*
X246187029Y-141506961D02*
X246187029Y-141126009D01*
X246187029Y-141126009D02*
X246139410Y-141030771D01*
X246139410Y-141030771D02*
X246044172Y-140983152D01*
X246044172Y-140983152D02*
X245853696Y-140983152D01*
X245853696Y-140983152D02*
X245758458Y-141030771D01*
X245758458Y-141030771D02*
X245710839Y-141126009D01*
X245710839Y-141126009D02*
X245710839Y-141221247D01*
X245710839Y-141221247D02*
X246187029Y-141316485D01*
X245139410Y-141649819D02*
X245234648Y-141602200D01*
X245234648Y-141602200D02*
X245282267Y-141506961D01*
X245282267Y-141506961D02*
X245282267Y-140649819D01*
X244139409Y-140649819D02*
X243806076Y-141649819D01*
X243806076Y-141649819D02*
X243472743Y-140649819D01*
X242710838Y-141649819D02*
X242710838Y-141126009D01*
X242710838Y-141126009D02*
X242758457Y-141030771D01*
X242758457Y-141030771D02*
X242853695Y-140983152D01*
X242853695Y-140983152D02*
X243044171Y-140983152D01*
X243044171Y-140983152D02*
X243139409Y-141030771D01*
X242710838Y-141602200D02*
X242806076Y-141649819D01*
X242806076Y-141649819D02*
X243044171Y-141649819D01*
X243044171Y-141649819D02*
X243139409Y-141602200D01*
X243139409Y-141602200D02*
X243187028Y-141506961D01*
X243187028Y-141506961D02*
X243187028Y-141411723D01*
X243187028Y-141411723D02*
X243139409Y-141316485D01*
X243139409Y-141316485D02*
X243044171Y-141268866D01*
X243044171Y-141268866D02*
X242806076Y-141268866D01*
X242806076Y-141268866D02*
X242710838Y-141221247D01*
X242234647Y-140983152D02*
X242234647Y-141649819D01*
X242234647Y-141078390D02*
X242187028Y-141030771D01*
X242187028Y-141030771D02*
X242091790Y-140983152D01*
X242091790Y-140983152D02*
X241948933Y-140983152D01*
X241948933Y-140983152D02*
X241853695Y-141030771D01*
X241853695Y-141030771D02*
X241806076Y-141126009D01*
X241806076Y-141126009D02*
X241806076Y-141649819D01*
X240710837Y-140649819D02*
X240139409Y-140649819D01*
X240425123Y-141649819D02*
X240425123Y-140649819D01*
X239663218Y-141649819D02*
X239758456Y-141602200D01*
X239758456Y-141602200D02*
X239806075Y-141554580D01*
X239806075Y-141554580D02*
X239853694Y-141459342D01*
X239853694Y-141459342D02*
X239853694Y-141173628D01*
X239853694Y-141173628D02*
X239806075Y-141078390D01*
X239806075Y-141078390D02*
X239758456Y-141030771D01*
X239758456Y-141030771D02*
X239663218Y-140983152D01*
X239663218Y-140983152D02*
X239520361Y-140983152D01*
X239520361Y-140983152D02*
X239425123Y-141030771D01*
X239425123Y-141030771D02*
X239377504Y-141078390D01*
X239377504Y-141078390D02*
X239329885Y-141173628D01*
X239329885Y-141173628D02*
X239329885Y-141459342D01*
X239329885Y-141459342D02*
X239377504Y-141554580D01*
X239377504Y-141554580D02*
X239425123Y-141602200D01*
X239425123Y-141602200D02*
X239520361Y-141649819D01*
X239520361Y-141649819D02*
X239663218Y-141649819D01*
X238901313Y-140983152D02*
X238901313Y-141649819D01*
X238901313Y-141078390D02*
X238853694Y-141030771D01*
X238853694Y-141030771D02*
X238758456Y-140983152D01*
X238758456Y-140983152D02*
X238615599Y-140983152D01*
X238615599Y-140983152D02*
X238520361Y-141030771D01*
X238520361Y-141030771D02*
X238472742Y-141126009D01*
X238472742Y-141126009D02*
X238472742Y-141649819D01*
X237567980Y-140983152D02*
X237567980Y-141792676D01*
X237567980Y-141792676D02*
X237615599Y-141887914D01*
X237615599Y-141887914D02*
X237663218Y-141935533D01*
X237663218Y-141935533D02*
X237758456Y-141983152D01*
X237758456Y-141983152D02*
X237901313Y-141983152D01*
X237901313Y-141983152D02*
X237996551Y-141935533D01*
X237567980Y-141602200D02*
X237663218Y-141649819D01*
X237663218Y-141649819D02*
X237853694Y-141649819D01*
X237853694Y-141649819D02*
X237948932Y-141602200D01*
X237948932Y-141602200D02*
X237996551Y-141554580D01*
X237996551Y-141554580D02*
X238044170Y-141459342D01*
X238044170Y-141459342D02*
X238044170Y-141173628D01*
X238044170Y-141173628D02*
X237996551Y-141078390D01*
X237996551Y-141078390D02*
X237948932Y-141030771D01*
X237948932Y-141030771D02*
X237853694Y-140983152D01*
X237853694Y-140983152D02*
X237663218Y-140983152D01*
X237663218Y-140983152D02*
X237567980Y-141030771D01*
X236710837Y-141602200D02*
X236806075Y-141649819D01*
X236806075Y-141649819D02*
X236996551Y-141649819D01*
X236996551Y-141649819D02*
X237091789Y-141602200D01*
X237091789Y-141602200D02*
X237139408Y-141506961D01*
X237139408Y-141506961D02*
X237139408Y-141126009D01*
X237139408Y-141126009D02*
X237091789Y-141030771D01*
X237091789Y-141030771D02*
X236996551Y-140983152D01*
X236996551Y-140983152D02*
X236806075Y-140983152D01*
X236806075Y-140983152D02*
X236710837Y-141030771D01*
X236710837Y-141030771D02*
X236663218Y-141126009D01*
X236663218Y-141126009D02*
X236663218Y-141221247D01*
X236663218Y-141221247D02*
X237139408Y-141316485D01*
X236234646Y-141649819D02*
X236234646Y-140983152D01*
X236234646Y-141173628D02*
X236187027Y-141078390D01*
X236187027Y-141078390D02*
X236139408Y-141030771D01*
X236139408Y-141030771D02*
X236044170Y-140983152D01*
X236044170Y-140983152D02*
X235948932Y-140983152D01*
X235234646Y-141602200D02*
X235329884Y-141649819D01*
X235329884Y-141649819D02*
X235520360Y-141649819D01*
X235520360Y-141649819D02*
X235615598Y-141602200D01*
X235615598Y-141602200D02*
X235663217Y-141506961D01*
X235663217Y-141506961D02*
X235663217Y-141126009D01*
X235663217Y-141126009D02*
X235615598Y-141030771D01*
X235615598Y-141030771D02*
X235520360Y-140983152D01*
X235520360Y-140983152D02*
X235329884Y-140983152D01*
X235329884Y-140983152D02*
X235234646Y-141030771D01*
X235234646Y-141030771D02*
X235187027Y-141126009D01*
X235187027Y-141126009D02*
X235187027Y-141221247D01*
X235187027Y-141221247D02*
X235663217Y-141316485D01*
X234758455Y-140983152D02*
X234758455Y-141649819D01*
X234758455Y-141078390D02*
X234710836Y-141030771D01*
X234710836Y-141030771D02*
X234615598Y-140983152D01*
X234615598Y-140983152D02*
X234472741Y-140983152D01*
X234472741Y-140983152D02*
X234377503Y-141030771D01*
X234377503Y-141030771D02*
X234329884Y-141126009D01*
X234329884Y-141126009D02*
X234329884Y-141649819D01*
X249663220Y-143259819D02*
X249663220Y-142259819D01*
X249663220Y-142736009D02*
X249091792Y-142736009D01*
X249091792Y-143259819D02*
X249091792Y-142259819D01*
X248187030Y-143259819D02*
X248187030Y-142736009D01*
X248187030Y-142736009D02*
X248234649Y-142640771D01*
X248234649Y-142640771D02*
X248329887Y-142593152D01*
X248329887Y-142593152D02*
X248520363Y-142593152D01*
X248520363Y-142593152D02*
X248615601Y-142640771D01*
X248187030Y-143212200D02*
X248282268Y-143259819D01*
X248282268Y-143259819D02*
X248520363Y-143259819D01*
X248520363Y-143259819D02*
X248615601Y-143212200D01*
X248615601Y-143212200D02*
X248663220Y-143116961D01*
X248663220Y-143116961D02*
X248663220Y-143021723D01*
X248663220Y-143021723D02*
X248615601Y-142926485D01*
X248615601Y-142926485D02*
X248520363Y-142878866D01*
X248520363Y-142878866D02*
X248282268Y-142878866D01*
X248282268Y-142878866D02*
X248187030Y-142831247D01*
X247710839Y-142593152D02*
X247710839Y-143259819D01*
X247710839Y-142688390D02*
X247663220Y-142640771D01*
X247663220Y-142640771D02*
X247567982Y-142593152D01*
X247567982Y-142593152D02*
X247425125Y-142593152D01*
X247425125Y-142593152D02*
X247329887Y-142640771D01*
X247329887Y-142640771D02*
X247282268Y-142736009D01*
X247282268Y-142736009D02*
X247282268Y-143259819D01*
X246806077Y-143259819D02*
X246806077Y-142259819D01*
X246710839Y-142878866D02*
X246425125Y-143259819D01*
X246425125Y-142593152D02*
X246806077Y-142974104D01*
X244663220Y-143259819D02*
X244996553Y-142783628D01*
X245234648Y-143259819D02*
X245234648Y-142259819D01*
X245234648Y-142259819D02*
X244853696Y-142259819D01*
X244853696Y-142259819D02*
X244758458Y-142307438D01*
X244758458Y-142307438D02*
X244710839Y-142355057D01*
X244710839Y-142355057D02*
X244663220Y-142450295D01*
X244663220Y-142450295D02*
X244663220Y-142593152D01*
X244663220Y-142593152D02*
X244710839Y-142688390D01*
X244710839Y-142688390D02*
X244758458Y-142736009D01*
X244758458Y-142736009D02*
X244853696Y-142783628D01*
X244853696Y-142783628D02*
X245234648Y-142783628D01*
X244234648Y-143259819D02*
X244234648Y-142593152D01*
X244234648Y-142259819D02*
X244282267Y-142307438D01*
X244282267Y-142307438D02*
X244234648Y-142355057D01*
X244234648Y-142355057D02*
X244187029Y-142307438D01*
X244187029Y-142307438D02*
X244234648Y-142259819D01*
X244234648Y-142259819D02*
X244234648Y-142355057D01*
X243615601Y-143259819D02*
X243710839Y-143212200D01*
X243710839Y-143212200D02*
X243758458Y-143116961D01*
X243758458Y-143116961D02*
X243758458Y-142259819D01*
X242853696Y-143212200D02*
X242948934Y-143259819D01*
X242948934Y-143259819D02*
X243139410Y-143259819D01*
X243139410Y-143259819D02*
X243234648Y-143212200D01*
X243234648Y-143212200D02*
X243282267Y-143116961D01*
X243282267Y-143116961D02*
X243282267Y-142736009D01*
X243282267Y-142736009D02*
X243234648Y-142640771D01*
X243234648Y-142640771D02*
X243139410Y-142593152D01*
X243139410Y-142593152D02*
X242948934Y-142593152D01*
X242948934Y-142593152D02*
X242853696Y-142640771D01*
X242853696Y-142640771D02*
X242806077Y-142736009D01*
X242806077Y-142736009D02*
X242806077Y-142831247D01*
X242806077Y-142831247D02*
X243282267Y-142926485D01*
X242472743Y-142593152D02*
X242234648Y-143259819D01*
X241996553Y-142593152D02*
X242234648Y-143259819D01*
X242234648Y-143259819D02*
X242329886Y-143497914D01*
X242329886Y-143497914D02*
X242377505Y-143545533D01*
X242377505Y-143545533D02*
X242472743Y-143593152D01*
X249663220Y-144869819D02*
X249663220Y-143869819D01*
X249663220Y-143869819D02*
X249091792Y-144869819D01*
X249091792Y-144869819D02*
X249091792Y-143869819D01*
X248472744Y-144869819D02*
X248567982Y-144822200D01*
X248567982Y-144822200D02*
X248615601Y-144774580D01*
X248615601Y-144774580D02*
X248663220Y-144679342D01*
X248663220Y-144679342D02*
X248663220Y-144393628D01*
X248663220Y-144393628D02*
X248615601Y-144298390D01*
X248615601Y-144298390D02*
X248567982Y-144250771D01*
X248567982Y-144250771D02*
X248472744Y-144203152D01*
X248472744Y-144203152D02*
X248329887Y-144203152D01*
X248329887Y-144203152D02*
X248234649Y-144250771D01*
X248234649Y-144250771D02*
X248187030Y-144298390D01*
X248187030Y-144298390D02*
X248139411Y-144393628D01*
X248139411Y-144393628D02*
X248139411Y-144679342D01*
X248139411Y-144679342D02*
X248187030Y-144774580D01*
X248187030Y-144774580D02*
X248234649Y-144822200D01*
X248234649Y-144822200D02*
X248329887Y-144869819D01*
X248329887Y-144869819D02*
X248472744Y-144869819D01*
X247806077Y-144203152D02*
X247567982Y-144869819D01*
X247567982Y-144869819D02*
X247329887Y-144203152D01*
X246567982Y-144822200D02*
X246663220Y-144869819D01*
X246663220Y-144869819D02*
X246853696Y-144869819D01*
X246853696Y-144869819D02*
X246948934Y-144822200D01*
X246948934Y-144822200D02*
X246996553Y-144726961D01*
X246996553Y-144726961D02*
X246996553Y-144346009D01*
X246996553Y-144346009D02*
X246948934Y-144250771D01*
X246948934Y-144250771D02*
X246853696Y-144203152D01*
X246853696Y-144203152D02*
X246663220Y-144203152D01*
X246663220Y-144203152D02*
X246567982Y-144250771D01*
X246567982Y-144250771D02*
X246520363Y-144346009D01*
X246520363Y-144346009D02*
X246520363Y-144441247D01*
X246520363Y-144441247D02*
X246996553Y-144536485D01*
X246091791Y-144869819D02*
X246091791Y-144203152D01*
X246091791Y-144298390D02*
X246044172Y-144250771D01*
X246044172Y-144250771D02*
X245948934Y-144203152D01*
X245948934Y-144203152D02*
X245806077Y-144203152D01*
X245806077Y-144203152D02*
X245710839Y-144250771D01*
X245710839Y-144250771D02*
X245663220Y-144346009D01*
X245663220Y-144346009D02*
X245663220Y-144869819D01*
X245663220Y-144346009D02*
X245615601Y-144250771D01*
X245615601Y-144250771D02*
X245520363Y-144203152D01*
X245520363Y-144203152D02*
X245377506Y-144203152D01*
X245377506Y-144203152D02*
X245282267Y-144250771D01*
X245282267Y-144250771D02*
X245234648Y-144346009D01*
X245234648Y-144346009D02*
X245234648Y-144869819D01*
X244758458Y-144869819D02*
X244758458Y-143869819D01*
X244758458Y-144250771D02*
X244663220Y-144203152D01*
X244663220Y-144203152D02*
X244472744Y-144203152D01*
X244472744Y-144203152D02*
X244377506Y-144250771D01*
X244377506Y-144250771D02*
X244329887Y-144298390D01*
X244329887Y-144298390D02*
X244282268Y-144393628D01*
X244282268Y-144393628D02*
X244282268Y-144679342D01*
X244282268Y-144679342D02*
X244329887Y-144774580D01*
X244329887Y-144774580D02*
X244377506Y-144822200D01*
X244377506Y-144822200D02*
X244472744Y-144869819D01*
X244472744Y-144869819D02*
X244663220Y-144869819D01*
X244663220Y-144869819D02*
X244758458Y-144822200D01*
X243472744Y-144822200D02*
X243567982Y-144869819D01*
X243567982Y-144869819D02*
X243758458Y-144869819D01*
X243758458Y-144869819D02*
X243853696Y-144822200D01*
X243853696Y-144822200D02*
X243901315Y-144726961D01*
X243901315Y-144726961D02*
X243901315Y-144346009D01*
X243901315Y-144346009D02*
X243853696Y-144250771D01*
X243853696Y-144250771D02*
X243758458Y-144203152D01*
X243758458Y-144203152D02*
X243567982Y-144203152D01*
X243567982Y-144203152D02*
X243472744Y-144250771D01*
X243472744Y-144250771D02*
X243425125Y-144346009D01*
X243425125Y-144346009D02*
X243425125Y-144441247D01*
X243425125Y-144441247D02*
X243901315Y-144536485D01*
X242996553Y-144869819D02*
X242996553Y-144203152D01*
X242996553Y-144393628D02*
X242948934Y-144298390D01*
X242948934Y-144298390D02*
X242901315Y-144250771D01*
X242901315Y-144250771D02*
X242806077Y-144203152D01*
X242806077Y-144203152D02*
X242710839Y-144203152D01*
X241091791Y-144869819D02*
X241663219Y-144869819D01*
X241377505Y-144869819D02*
X241377505Y-143869819D01*
X241377505Y-143869819D02*
X241472743Y-144012676D01*
X241472743Y-144012676D02*
X241567981Y-144107914D01*
X241567981Y-144107914D02*
X241663219Y-144155533D01*
X240472743Y-143869819D02*
X240377505Y-143869819D01*
X240377505Y-143869819D02*
X240282267Y-143917438D01*
X240282267Y-143917438D02*
X240234648Y-143965057D01*
X240234648Y-143965057D02*
X240187029Y-144060295D01*
X240187029Y-144060295D02*
X240139410Y-144250771D01*
X240139410Y-144250771D02*
X240139410Y-144488866D01*
X240139410Y-144488866D02*
X240187029Y-144679342D01*
X240187029Y-144679342D02*
X240234648Y-144774580D01*
X240234648Y-144774580D02*
X240282267Y-144822200D01*
X240282267Y-144822200D02*
X240377505Y-144869819D01*
X240377505Y-144869819D02*
X240472743Y-144869819D01*
X240472743Y-144869819D02*
X240567981Y-144822200D01*
X240567981Y-144822200D02*
X240615600Y-144774580D01*
X240615600Y-144774580D02*
X240663219Y-144679342D01*
X240663219Y-144679342D02*
X240710838Y-144488866D01*
X240710838Y-144488866D02*
X240710838Y-144250771D01*
X240710838Y-144250771D02*
X240663219Y-144060295D01*
X240663219Y-144060295D02*
X240615600Y-143965057D01*
X240615600Y-143965057D02*
X240567981Y-143917438D01*
X240567981Y-143917438D02*
X240472743Y-143869819D01*
X239663219Y-144822200D02*
X239663219Y-144869819D01*
X239663219Y-144869819D02*
X239710838Y-144965057D01*
X239710838Y-144965057D02*
X239758457Y-145012676D01*
X238520362Y-143965057D02*
X238472743Y-143917438D01*
X238472743Y-143917438D02*
X238377505Y-143869819D01*
X238377505Y-143869819D02*
X238139410Y-143869819D01*
X238139410Y-143869819D02*
X238044172Y-143917438D01*
X238044172Y-143917438D02*
X237996553Y-143965057D01*
X237996553Y-143965057D02*
X237948934Y-144060295D01*
X237948934Y-144060295D02*
X237948934Y-144155533D01*
X237948934Y-144155533D02*
X237996553Y-144298390D01*
X237996553Y-144298390D02*
X238567981Y-144869819D01*
X238567981Y-144869819D02*
X237948934Y-144869819D01*
X237329886Y-143869819D02*
X237234648Y-143869819D01*
X237234648Y-143869819D02*
X237139410Y-143917438D01*
X237139410Y-143917438D02*
X237091791Y-143965057D01*
X237091791Y-143965057D02*
X237044172Y-144060295D01*
X237044172Y-144060295D02*
X236996553Y-144250771D01*
X236996553Y-144250771D02*
X236996553Y-144488866D01*
X236996553Y-144488866D02*
X237044172Y-144679342D01*
X237044172Y-144679342D02*
X237091791Y-144774580D01*
X237091791Y-144774580D02*
X237139410Y-144822200D01*
X237139410Y-144822200D02*
X237234648Y-144869819D01*
X237234648Y-144869819D02*
X237329886Y-144869819D01*
X237329886Y-144869819D02*
X237425124Y-144822200D01*
X237425124Y-144822200D02*
X237472743Y-144774580D01*
X237472743Y-144774580D02*
X237520362Y-144679342D01*
X237520362Y-144679342D02*
X237567981Y-144488866D01*
X237567981Y-144488866D02*
X237567981Y-144250771D01*
X237567981Y-144250771D02*
X237520362Y-144060295D01*
X237520362Y-144060295D02*
X237472743Y-143965057D01*
X237472743Y-143965057D02*
X237425124Y-143917438D01*
X237425124Y-143917438D02*
X237329886Y-143869819D01*
X236615600Y-143965057D02*
X236567981Y-143917438D01*
X236567981Y-143917438D02*
X236472743Y-143869819D01*
X236472743Y-143869819D02*
X236234648Y-143869819D01*
X236234648Y-143869819D02*
X236139410Y-143917438D01*
X236139410Y-143917438D02*
X236091791Y-143965057D01*
X236091791Y-143965057D02*
X236044172Y-144060295D01*
X236044172Y-144060295D02*
X236044172Y-144155533D01*
X236044172Y-144155533D02*
X236091791Y-144298390D01*
X236091791Y-144298390D02*
X236663219Y-144869819D01*
X236663219Y-144869819D02*
X236044172Y-144869819D01*
X235710838Y-143869819D02*
X235091791Y-143869819D01*
X235091791Y-143869819D02*
X235425124Y-144250771D01*
X235425124Y-144250771D02*
X235282267Y-144250771D01*
X235282267Y-144250771D02*
X235187029Y-144298390D01*
X235187029Y-144298390D02*
X235139410Y-144346009D01*
X235139410Y-144346009D02*
X235091791Y-144441247D01*
X235091791Y-144441247D02*
X235091791Y-144679342D01*
X235091791Y-144679342D02*
X235139410Y-144774580D01*
X235139410Y-144774580D02*
X235187029Y-144822200D01*
X235187029Y-144822200D02*
X235282267Y-144869819D01*
X235282267Y-144869819D02*
X235567981Y-144869819D01*
X235567981Y-144869819D02*
X235663219Y-144822200D01*
X235663219Y-144822200D02*
X235710838Y-144774580D01*
%LPC*%
D11*
X247269000Y-110617000D03*
D12*
X247269000Y-102997000D03*
D13*
X237109000Y-99822000D03*
D14*
X239649000Y-99822000D03*
X242189000Y-99822000D03*
X244729000Y-99822000D03*
X247269000Y-99822000D03*
X249809000Y-99822000D03*
D15*
X224282000Y-115443000D03*
D12*
X236982000Y-115443000D03*
D15*
X224282000Y-110490000D03*
D12*
X236982000Y-110490000D03*
D11*
X244729000Y-102997000D03*
D12*
X244729000Y-110617000D03*
D16*
X206883000Y-91186000D03*
X206883000Y-93726000D03*
X206883000Y-96266000D03*
X206883000Y-98806000D03*
X206883000Y-101346000D03*
X206883000Y-103886000D03*
X206883000Y-106426000D03*
X206883000Y-108966000D03*
X206883000Y-111506000D03*
X206883000Y-114046000D03*
X206883000Y-116586000D03*
X206883000Y-119126000D03*
X206883000Y-121666000D03*
X206883000Y-124206000D03*
X206883000Y-126746000D03*
X206883000Y-129286000D03*
X206883000Y-131826000D03*
X206883000Y-134366000D03*
X206883000Y-136906000D03*
X206883000Y-139446000D03*
X206883000Y-141986000D03*
X206883000Y-144526000D03*
%LPD*%
M02*
